<?xml version="1.0" encoding="UTF-8" standalone="no"?>
<!DOCTYPE svg PUBLIC "-//W3C//DTD SVG 1.1//EN"
"http://www.w3.org/Graphics/SVG/1.1/DTD/svg11.dtd">
<svg viewBox="0 0 742 976" version="1.1" xmlns="http://www.w3.org/2000/svg" xmlns:xlink="http://www.w3.org/1999/xlink">
<defs>
<clipPath id="c0_4"><path d="M303.3,869.7V847.5H479.6v22.2Z"/></clipPath>
<style type="text/css"><![CDATA[
.g0_4{
fill: none;
stroke: #000000;
stroke-width: 1.527;
stroke-linecap: butt;
stroke-linejoin: miter;
}
.g1_4{
}
]]></style>
</defs>
<path d="M96.3,380.4H682.9" class="g0_4"/>
<path d="M313.5,847.5l-4.5,7.9h9.1Z" class="g1_4"/>
<path d="M303.3,857.1l4.6,7.8l4.5,-7.8Z" class="g1_4"/>
<path d="M323.3,857.1l-4.5,7.8l-4.6,-7.8Z" class="g1_4"/>
<path d="M335.8,858.5h-5.4l2.7,-6.3Zm.3,.9l.9,1.9c.2,.5,.5,1.3,.5,1.8c0,.8,-.6,1,-1.6,1.1v.4h6.2v-.4c-1.8,-.1,-2.2,-1.4,-2.8,-2.8L334,848.6h-.4L328,861.8c-.7,1.6,-1.2,2.3,-2.5,2.4v.4h4.9v-.4c-.8,-.1,-1.8,-.2,-1.8,-1.1c0,-.4,.4,-1.1,.5,-1.5l1,-2.2h6Z" class="g1_4"/>
<path d="M350.5,862.6c-.5,.6,-1.2,1.1,-2,1.1c-1.8,0,-3.2,-1.9,-3.2,-4.8c0,-3.7,1.9,-4.5,2.8,-4.5c1.6,0,2.4,1.6,2.4,3Zm0,-8c-.6,-.6,-1.5,-.9,-2.3,-.9c-3.1,0,-5.1,3.2,-5.1,6c0,2.5,1.5,5.2,4.3,5.2c1.3,0,2.2,-.6,3.1,-1.5v1.5h.6l3.1,-1.3l-.1,-.4c-.3,.1,-.6,.2,-.8,.2c-.4,0,-.9,0,-.9,-1.6V848.2h-.5l-3.2,1.3l.2,.4c.2,-.1,.5,-.2,.8,-.2c.3,0,.8,0,.8,1.6v3.3Z" class="g1_4"/>
<path d="M362.3,862.6c-.5,.6,-1.2,1.1,-2,1.1c-1.8,0,-3.2,-1.9,-3.2,-4.8c0,-3.7,1.9,-4.5,2.8,-4.5c1.6,0,2.4,1.6,2.4,3Zm0,-8c-.6,-.6,-1.5,-.9,-2.3,-.9c-3.1,0,-5.1,3.2,-5.1,6c0,2.5,1.5,5.2,4.3,5.2c1.3,0,2.2,-.6,3.1,-1.5v1.5h.5l3.2,-1.3l-.1,-.4c-.3,.1,-.6,.2,-.8,.2c-.4,0,-.9,0,-.9,-1.6V848.2h-.5l-3.2,1.3l.2,.4c.2,-.1,.5,-.2,.8,-.2c.3,0,.8,0,.8,1.6v3.3Z" class="g1_4"/>
<path d="M370.3,862.6c0,1.4,.5,1.5,1.6,1.6v.4h-5.2v-.4c1.1,-.1,1.6,-.2,1.6,-1.6v-5.8c0,-1.6,-.5,-1.6,-.8,-1.6c-.2,0,-.5,.1,-.8,.2l-.2,-.4l3.2,-1.3h.6Zm-1,-14.4c.6,0,1.1,.5,1.1,1.2c0,.6,-.5,1.1,-1.1,1.1c-.6,0,-1.2,-.5,-1.2,-1.1c0,-.7,.6,-1.2,1.2,-1.2Z" class="g1_4"/>
<path d="M380.1,857.3h-.4c-.4,-1.6,-1,-2.9,-2.9,-2.9c-.8,0,-1.8,.5,-1.8,1.5c0,2.5,5.9,2.2,5.9,5.9c0,1.9,-1.8,3.1,-3.6,3.1c-.7,0,-1.5,-.1,-2.2,-.3c-.1,-.1,-.4,-.1,-.6,-.1c-.2,0,-.3,.1,-.4,.3h-.4V861h.4c.2,1.6,1.5,3.2,3.3,3.2c.9,0,1.8,-.5,1.8,-1.6c0,-2.7,-5.5,-2.4,-5.5,-5.7c0,-2,1.4,-3.2,3.3,-3.2c.4,0,.8,.1,1.3,.3c.3,0,.6,.2,.9,.2c.3,0,.4,-.2,.5,-.5h.4v3.6Z" class="g1_4"/>
<path d="M387.2,854.5c2.6,0,3.3,3.5,3.3,5.6c0,1.6,-.4,4,-2.6,4c-2.6,0,-3.3,-3.7,-3.3,-5.7c0,-3,1.4,-3.9,2.6,-3.9m.4,-.8c-3.1,0,-5.2,2.8,-5.2,5.7c0,2.9,2,5.5,5,5.5c3.7,0,5.2,-3.4,5.2,-5.8c0,-2.9,-2.1,-5.4,-5,-5.4Z" class="g1_4"/>
<path d="M397.3,855.9c1.3,-1.4,2.2,-2.2,3.5,-2.2c2,0,2.7,1.8,2.7,3.6v5.3c0,1.4,.6,1.5,1.6,1.6v.4H400v-.4c1.1,-.1,1.6,-.2,1.6,-1.6v-4.9c0,-2.3,-1,-2.6,-1.7,-2.6c-1.1,0,-1.9,.7,-2.6,1.5v6c0,1.4,.5,1.5,1.6,1.6v.4h-5.2v-.4c1.1,-.1,1.7,-.2,1.7,-1.6v-5.8c0,-1.6,-.5,-1.6,-.9,-1.6c-.2,0,-.5,.1,-.8,.2l-.1,-.4l3.1,-1.3h.6v2.2Z" class="g1_4"/>
<path d="M406.2,860.2h5.9v-1.8h-5.9v1.8Z" class="g1_4"/>
<path d="M429.7,852.6c.2,-.5,.6,-1.5,.6,-2.1c0,-.9,-.7,-1.1,-1.7,-1.1V849h4.6v.4c-1.5,0,-1.9,1.3,-2.3,2.6l-4.5,12.9H426L422.5,855h-.1l-3.5,9.9h-.4l-4.8,-13.4c-.6,-1.5,-.8,-2.1,-2.2,-2.1V849h5.8v.4c-.9,0,-1.6,.2,-1.6,1c0,.4,.3,1,.4,1.3l3.2,9.1l2.6,-7.3l-.6,-1.7c-.5,-1.3,-.9,-2.4,-2.4,-2.4V849H425v.4c-1,0,-1.7,.1,-1.7,1.1c0,.7,.4,1.6,.6,2.3l2.9,8l2.9,-8.2Z" class="g1_4"/>
<path d="M434,857.3c.1,-1.3,1.1,-2.7,2.5,-2.7c1.7,0,2.4,1.3,2.4,2.7Zm7.3,.7c0,-2.5,-1.6,-4.3,-4,-4.3c-3.4,0,-4.9,2.8,-4.9,5.8c0,3.2,2,5.4,4.6,5.4c2.4,0,3.9,-2,4.3,-4.2l-.4,-.2c-.5,1.5,-1.4,2.5,-3.1,2.5c-2.6,0,-3.8,-2.6,-3.8,-5h7.3Z" class="g1_4"/>
<path d="M449.7,857.3h-.4c-.4,-1.6,-1,-2.9,-2.9,-2.9c-.8,0,-1.8,.5,-1.8,1.5c0,2.5,5.9,2.2,5.9,5.9c0,1.9,-1.9,3.1,-3.7,3.1c-.6,0,-1.4,-.1,-2.1,-.3c-.1,-.1,-.4,-.1,-.6,-.1c-.2,0,-.3,.1,-.4,.3h-.4V861h.4c.2,1.6,1.5,3.2,3.2,3.2c1,0,1.9,-.5,1.9,-1.6c0,-2.7,-5.5,-2.4,-5.5,-5.7c0,-2,1.4,-3.2,3.2,-3.2c.5,0,.9,.1,1.4,.3c.3,0,.6,.2,.9,.2c.3,0,.4,-.2,.5,-.5h.4v3.6Z" class="g1_4"/>
<path d="M455.6,862.6c0,1.4,.5,1.5,1.6,1.6v.4H452v-.4c1.1,-.1,1.7,-.2,1.7,-1.6V851.3c0,-1.6,-.5,-1.6,-.9,-1.6c-.2,0,-.5,.1,-.8,.2l-.1,-.4l3.2,-1.3h.5v14.4Z" class="g1_4"/>
<path d="M460.2,857.3c.1,-1.3,1.1,-2.7,2.5,-2.7c1.7,0,2.4,1.3,2.4,2.7Zm7.3,.7c0,-2.5,-1.6,-4.3,-4,-4.3c-3.4,0,-4.9,2.8,-4.9,5.8c0,3.2,2,5.4,4.6,5.4c2.4,0,3.9,-2,4.3,-4.2l-.3,-.2c-.6,1.5,-1.5,2.5,-3.2,2.5c-2.6,0,-3.8,-2.6,-3.8,-5h7.3Z" class="g1_4"/>
<g clip-path="url(#c0_4)">
<path d="M470,856.5c-.4,-.9,-.9,-1.9,-1.9,-2V854H473v.5c-.8,0,-1.3,.1,-1.3,.8c0,.4,.3,1.1,.5,1.5l2.4,5l2.3,-5.5c.1,-.5,.3,-.8,.3,-1.2c0,-.6,-.4,-.6,-1.1,-.6V854h3.5v.5c-.8,0,-1.2,.6,-1.4,1.2l-4.6,11c-.9,2.3,-2.6,3,-3.4,3c-.8,0,-1.6,-.5,-1.6,-1.3c0,-.7,.6,-1.1,1.2,-1.1c.8,0,1.2,.5,1.6,.5c.9,0,1.4,-1.4,1.7,-2.1l.6,-1.5L470,856.5Z" class="g1_4"/>
</g>
</svg>