<?xml version="1.0" encoding="UTF-8" standalone="no"?>
<!DOCTYPE svg PUBLIC "-//W3C//DTD SVG 1.1//EN"
"http://www.w3.org/Graphics/SVG/1.1/DTD/svg11.dtd">
<svg viewBox="0 0 742 976" version="1.1" xmlns="http://www.w3.org/2000/svg" xmlns:xlink="http://www.w3.org/1999/xlink">
<defs>
<style type="text/css"><![CDATA[
.g0_148{
fill: none;
stroke: #000000;
stroke-width: 1.827;
stroke-linecap: butt;
stroke-linejoin: miter;
}
.g1_148{
fill: none;
stroke: #000000;
stroke-width: 0.608;
stroke-linecap: butt;
stroke-linejoin: miter;
}
.g2_148{
fill: #FFFFFF;
}
.g3_148{
fill: #959595;
}
]]></style>
</defs>
<path d="M-41.1,60.8H783.7" class="g0_148"/>
<path d="M234.3,147.8H544.9m-310.6,0H544.9M234.6,169.4V148.1m206,21.3V148.1m104,21.3V148.1M234.3,169.7H544.9m-310.6,0H544.9M234.6,191.3V170m206,21.3V170m104,21.3V170M234.3,191.6H544.9m-310.6,0H544.9M234.6,213.2V191.9m206,21.3V191.9m104,21.3V191.9M234.3,213.5H544.9m-310.6,0H544.9M234.6,235.1V213.8m206,21.3V213.8m104,21.3V213.8M234.3,235.4H544.9m-310.6,0H544.9M234.6,257.1V235.8m206,21.3V235.8m104,21.3V235.8M234.3,257.4H544.9m-310.6,0H544.9M234.6,279V257.7m206,21.3V257.7m104,21.3V257.7M234.3,279.3H544.9m-310.6,0H544.9M234.6,300.9V279.6m206,21.3V279.6m104,21.3V279.6M234.3,301.2H544.9m-310.6,0H544.9M234.6,322.8V301.5m206,21.3V301.5m104,21.3V301.5M234.3,323.1H544.9m-310.6,0H544.9M234.6,344.7V323.4m206,21.3V323.4m104,21.3V323.4M234.3,345H544.9m-310.6,0H544.9M234.6,366.7V345.3m206,21.4V345.3m104,21.4V345.3M234.3,367H544.9m-310.6,0H544.9" class="g1_148"/>
<path d="M96.3,907.7V707.1H682.9V907.7Z" class="g2_148"/>
<path d="M96.3,733.1v-26H682.9v26Z" class="g2_148"/>
<path d="M96.3,733.9v-.8H682.9v.8Z" class="g3_148"/>
</svg>