<?xml version="1.0" encoding="UTF-8" standalone="no"?>
<!DOCTYPE svg PUBLIC "-//W3C//DTD SVG 1.1//EN"
"http://www.w3.org/Graphics/SVG/1.1/DTD/svg11.dtd">
<svg viewBox="0 0 742 976" version="1.1" xmlns="http://www.w3.org/2000/svg" xmlns:xlink="http://www.w3.org/1999/xlink">
<defs>
<clipPath id="c0_3"><path d="M63.2,939.5V902.4h44v37.1Z"/></clipPath>
<style type="text/css"><![CDATA[
.g0_3{
fill: #FFFFFF;
}
.g1_3{
fill: none;
stroke: #000000;
stroke-width: 1.527;
stroke-linecap: butt;
stroke-linejoin: miter;
}
.g2_3{
fill: #00507F;
}
.g3_3{
fill: none;
stroke: #808285;
stroke-width: 1.527;
stroke-linecap: butt;
stroke-linejoin: miter;
}
.g4_3{
}
.g5_3{
fill: #C72828;
}
.g6_3{
fill: #454546;
}
.g7_3{
fill: #EE3B44;
}
.g8_3{
fill: #D31242;
}
.g9_3{
fill: #1E1B1D;
}
.ga_3{
fill: #008FB4;
}
]]></style>
</defs>
<path d="M32.6,445.4H665.1V174.6H32.6V445.4Z" class="g0_3"/>
<image preserveAspectRatio="none" x="31" y="173" width="636" height="274" xlink:href="img/1.png"/>
<path d="M61.6,511.8H633" class="g1_3"/>
<path d="M60.6,82.5c0,0,-28,0,-28,28v68.2H665.1V110.5c0,0,0,-28,-28,-28Z" class="g2_3"/>
<path d="M61,82.8c0,0,-28,0,-28,28.1v336H664.7v-336c0,0,0,-28.1,-28,-28.1H61Z" class="g3_3"/>
<path d="M277.5,412.9h-8.9l4.4,-7.8Z" class="g4_3"/>
<path d="M271.9,414.6l-4.5,7.7l-4.5,-7.7Z" class="g4_3"/>
<path d="M282.7,414.6l-4.4,7.7l-4.6,-7.7Z" class="g4_3"/>
<path d="M295.1,416h-5.3l2.6,-6.3Zm.3,.8l.8,1.9c.2,.5,.6,1.3,.6,1.8c0,.8,-.6,1,-1.6,1.1v.4h6.1v-.4c-1.7,-.1,-2.2,-1.4,-2.8,-2.8l-5.2,-12.6h-.4l-5.6,13c-.7,1.6,-1.2,2.3,-2.4,2.4v.4h4.9v-.4c-.9,-.1,-1.8,-.2,-1.8,-1.1c0,-.4,.3,-1.1,.5,-1.5l.9,-2.2Z" class="g4_3"/>
<path d="M309.6,420c-.5,.6,-1.2,1.1,-2,1.1c-1.8,0,-3.2,-1.9,-3.2,-4.8c0,-3.6,2,-4.4,2.8,-4.4c1.6,0,2.4,1.6,2.4,3Zm0,-7.9c-.6,-.6,-1.4,-.9,-2.3,-.9c-3,0,-5,3.2,-5,6c0,2.4,1.5,5.1,4.2,5.1c1.3,0,2.2,-.6,3.1,-1.5v1.5h.5l3.2,-1.3l-.2,-.4c-.2,.1,-.5,.2,-.8,.2c-.3,0,-.8,0,-.8,-1.6V405.8H311l-3.1,1.3l.1,.4c.2,-.1,.6,-.2,.8,-.2c.3,0,.8,0,.8,1.6Z" class="g4_3"/>
<path d="M321.3,420c-.5,.6,-1.2,1.1,-2,1.1c-1.8,0,-3.2,-1.9,-3.2,-4.8c0,-3.6,1.9,-4.4,2.8,-4.4c1.5,0,2.4,1.6,2.4,3Zm0,-7.9c-.6,-.6,-1.5,-.9,-2.3,-.9c-3.1,0,-5,3.2,-5,6c0,2.4,1.5,5.1,4.2,5.1c1.3,0,2.2,-.6,3.1,-1.5v1.5h.5l3.1,-1.3l-.1,-.4c-.2,.1,-.6,.2,-.8,.2c-.3,0,-.8,0,-.8,-1.6V405.8h-.5l-3.2,1.3l.2,.4c.2,-.1,.5,-.2,.8,-.2c.3,0,.8,0,.8,1.6Z" class="g4_3"/>
<path d="M329.1,420c0,1.4,.6,1.5,1.6,1.6v.4h-5.1v-.4c1.1,-.1,1.6,-.2,1.6,-1.6v-5.7c0,-1.6,-.5,-1.6,-.8,-1.6c-.2,0,-.5,.1,-.8,.2l-.1,-.4l3.1,-1.3h.5Zm-.9,-14.2c.6,0,1.1,.5,1.1,1.1c0,.7,-.5,1.2,-1.1,1.2c-.7,0,-1.2,-.5,-1.2,-1.2c0,-.6,.5,-1.1,1.2,-1.1Z" class="g4_3"/>
<path d="M338.8,414.8h-.4c-.3,-1.6,-1,-2.9,-2.8,-2.9c-.8,0,-1.7,.5,-1.7,1.5c0,2.5,5.7,2.2,5.7,5.8c0,1.9,-1.8,3.1,-3.6,3.1c-.6,0,-1.4,-.1,-2.1,-.3c-.1,-.1,-.4,-.2,-.5,-.2c-.2,0,-.4,.2,-.5,.4h-.4v-3.8h.4c.3,1.7,1.5,3.2,3.2,3.2c1,0,1.8,-.5,1.8,-1.6c0,-2.7,-5.4,-2.3,-5.4,-5.6c0,-2,1.4,-3.2,3.2,-3.2c.5,0,.9,.2,1.4,.3c.3,.1,.6,.2,.8,.2c.3,0,.4,-.2,.5,-.5h.4Z" class="g4_3"/>
<path d="M345.8,412c2.6,0,3.3,3.5,3.3,5.5c0,1.6,-.4,4,-2.5,4c-2.6,0,-3.3,-3.6,-3.3,-5.6c0,-3,1.4,-3.9,2.5,-3.9m.4,-.8c-3,0,-5,2.8,-5,5.7c0,2.8,1.9,5.4,4.9,5.4c3.7,0,5.2,-3.4,5.2,-5.8c0,-2.8,-2.1,-5.3,-5.1,-5.3Z" class="g4_3"/>
<path d="M355.8,413.4c1.3,-1.4,2.2,-2.2,3.6,-2.2c1.9,0,2.6,1.8,2.6,3.6V420c0,1.4,.5,1.5,1.6,1.6v.4h-5.1v-.4c1.1,-.1,1.6,-.2,1.6,-1.6v-4.8c0,-2.3,-.9,-2.6,-1.6,-2.6c-1.1,0,-1.9,.7,-2.7,1.5V420c0,1.4,.6,1.5,1.6,1.6v.4h-5.1v-.4c1.1,-.1,1.6,-.2,1.6,-1.6v-5.7c0,-1.6,-.5,-1.6,-.8,-1.6c-.2,0,-.5,.1,-.8,.2l-.1,-.4l3.1,-1.3h.5Z" class="g4_3"/>
<path d="M370.5,417.7h-5.9v-1.8h5.9v1.8Z" class="g4_3"/>
<path d="M387.9,410.2c.2,-.6,.6,-1.6,.6,-2.1c0,-.9,-.7,-1.1,-1.7,-1.1v-.4h4.6v.4c-1.5,0,-1.9,1.3,-2.3,2.5l-4.4,12.8h-.5l-3.5,-9.8l-3.4,9.8h-.5L372,409c-.5,-1.4,-.7,-2,-2.1,-2v-.4h5.7v.4c-.8,0,-1.5,.2,-1.5,.9c0,.4,.2,1,.3,1.4l3.2,9l2.6,-7.2l-.6,-1.8c-.5,-1.3,-.9,-2.3,-2.4,-2.3v-.4h6v.4c-1,0,-1.6,0,-1.6,1c0,.7,.3,1.7,.6,2.3l2.8,8h.1Z" class="g4_3"/>
<path d="M392.2,414.8c.1,-1.3,1,-2.7,2.4,-2.7c1.7,0,2.4,1.3,2.4,2.7Zm7.2,.7c0,-2.5,-1.6,-4.3,-4,-4.3c-3.3,0,-4.8,2.7,-4.8,5.8c0,3.1,2,5.3,4.5,5.3c2.4,0,3.9,-2,4.3,-4.1L399,418c-.5,1.5,-1.4,2.4,-3.1,2.4c-2.5,0,-3.8,-2.6,-3.8,-4.9Z" class="g4_3"/>
<path d="M407.7,414.8h-.5c-.3,-1.6,-.9,-2.9,-2.8,-2.9c-.8,0,-1.7,.5,-1.7,1.5c0,2.5,5.7,2.2,5.7,5.8c0,1.9,-1.8,3.1,-3.5,3.1c-.7,0,-1.5,-.1,-2.1,-.3c-.2,-.1,-.5,-.2,-.6,-.2c-.2,0,-.4,.2,-.4,.4h-.5v-3.8h.5c.2,1.7,1.4,3.2,3.1,3.2c1,0,1.8,-.5,1.8,-1.6c0,-2.7,-5.4,-2.3,-5.4,-5.6c0,-2,1.4,-3.2,3.2,-3.2c.5,0,.9,.2,1.4,.3c.3,.1,.6,.2,.8,.2c.3,0,.4,-.2,.5,-.5h.5Z" class="g4_3"/>
<path d="M413.5,420c0,1.4,.5,1.5,1.6,1.6v.4H410v-.4c1.1,-.1,1.6,-.2,1.6,-1.6V408.9c0,-1.6,-.5,-1.6,-.8,-1.6c-.3,0,-.6,.1,-.8,.2l-.2,-.4l3.2,-1.3h.5Z" class="g4_3"/>
<path d="M418.1,414.8c.1,-1.3,1,-2.7,2.4,-2.7c1.7,0,2.4,1.3,2.4,2.7Zm7.2,.7c0,-2.5,-1.6,-4.3,-4,-4.3c-3.3,0,-4.8,2.7,-4.8,5.8c0,3.1,2,5.3,4.5,5.3c2.4,0,3.9,-2,4.3,-4.1l-.4,-.2c-.5,1.5,-1.4,2.4,-3.1,2.4c-2.5,0,-3.7,-2.6,-3.7,-4.9Z" class="g4_3"/>
<path d="M427.8,414c-.4,-.9,-1,-1.9,-2,-2v-.4h4.9v.4c-.8,0,-1.3,.1,-1.3,.8c0,.4,.3,1.1,.5,1.4l2.4,5l2.2,-5.4c.2,-.5,.3,-.8,.3,-1.2c0,-.6,-.4,-.6,-1,-.6v-.4h3.4v.4c-.7,0,-1.1,.6,-1.4,1.2l-4.5,10.9c-.9,2.3,-2.6,2.9,-3.4,2.9c-.7,0,-1.5,-.4,-1.5,-1.3c0,-.7,.5,-1,1.1,-1c.8,0,1.2,.4,1.6,.4c.9,0,1.4,-1.3,1.7,-2l.6,-1.5Z" class="g4_3"/>
<image preserveAspectRatio="none" x="267" y="801" width="27" height="27" xlink:href="img/2.png"/>
<image preserveAspectRatio="none" x="312" y="801" width="28" height="27" xlink:href="img/3.png"/>
<image preserveAspectRatio="none" x="358" y="801" width="27" height="27" xlink:href="img/4.png"/>
<image preserveAspectRatio="none" x="403" y="801" width="28" height="27" xlink:href="img/5.png"/>
<path d="M283.6,918.2c-.2,-.7,-.7,-1.2,-1.4,-1.6c-.7,-.5,-1.6,-.7,-2.6,-.7c-1,0,-1.9,.2,-2.6,.7c-.7,.4,-1.2,.9,-1.4,1.4c-.2,.6,-.3,1.4,-.3,2.5v3.6c0,1.3,.1,2.2,.4,2.9c.2,.7,.7,1.2,1.3,1.6c.7,.3,1.5,.5,2.6,.5c.9,0,1.6,-.1,2.2,-.4c.6,-.2,1.1,-.7,1.4,-1.2c.4,-.5,.6,-1,.7,-1.6c0,-.5,.1,-1.2,.1,-2.2h-3.5v1.5c0,.6,0,1.1,-.1,1.3c-.1,.3,-.3,.4,-.6,.4c-.2,0,-.4,-.1,-.5,-.4c-.1,-.2,-.1,-.5,-.1,-1v-6c0,-.6,0,-.9,.1,-1.1c0,-.1,.2,-.2,.4,-.2c.2,0,.4,.1,.5,.2c.1,.2,.1,.6,.1,1.1V921H284c0,-1.2,-.1,-2.2,-.4,-2.8m10.1,.4c-.1,-.4,-.4,-.9,-.7,-1.3c-.4,-.4,-.8,-.7,-1.5,-1c-.6,-.3,-1.3,-.4,-2.2,-.4c-1,0,-1.9,.2,-2.6,.6c-.6,.4,-1.1,1,-1.4,1.6c-.2,.7,-.3,1.6,-.3,2.8v3.3c0,1.1,0,1.9,.2,2.4c.1,.6,.4,1,.7,1.4c.3,.4,.8,.7,1.4,.8c.6,.2,1.3,.3,2.2,.3c.7,0,1.4,-.1,2,-.3c.6,-.2,1.1,-.6,1.5,-1c.3,-.5,.6,-1,.7,-1.5c.1,-.6,.2,-1.4,.2,-2.6v-3.1c0,-.9,-.1,-1.6,-.2,-2m-3.7,6.9c0,.6,-.1,1,-.1,1.1c-.1,.2,-.3,.3,-.5,.3c-.2,0,-.4,-.1,-.4,-.3c-.1,-.2,-.2,-.6,-.2,-1.2v-5.7c0,-.7,.1,-1.1,.2,-1.3c0,-.1,.2,-.2,.4,-.2c.3,0,.4,.1,.5,.2c0,.2,.1,.6,.1,1.3Zm5.1,-9.4v12.8h3.7v-8.8c0,-.7,0,-1.1,0,-1.3c.1,-.1,.1,-.3,.2,-.4c.2,-.2,.3,-.2,.5,-.2c.3,0,.4,.1,.5,.3c.1,.3,.1,1,.1,2.3v8.1h3.8v-8.3c0,-1.1,0,-1.8,.1,-2c.1,-.3,.2,-.4,.5,-.4c.3,0,.5,.1,.5,.4c.1,.2,.1,.9,.1,2v8.3h3.8v-9.1c0,-1,-.1,-1.8,-.2,-2.2c-.1,-.5,-.4,-.9,-.8,-1.2c-.4,-.3,-1,-.5,-1.6,-.5c-.5,0,-1,.1,-1.4,.4c-.4,.2,-.8,.6,-1.1,1.1c-.6,-1,-1.4,-1.5,-2.5,-1.5c-.5,0,-1,.1,-1.4,.4c-.4,.2,-.8,.6,-1.1,1.1l.1,-1.3Z" class="g4_3"/>
<path d="M259.4,928.9h3.4V915.8h-3.4v13.1Zm4.4,-13.1v2.6h2v10.5h3.4V918.4h2v-2.6Zm7.2,13.1h2.9v-3.2H271v3.2Z" class="g5_3"/>
<path d="M204.1,915.4h4v-2.1h-4v2.1Zm0,13.5h4V916.1h-4v12.8Zm5.6,-12.8v12.8h3.9v-8.6c0,-1,0,-1.6,.1,-1.8c.1,-.2,.2,-.3,.5,-.3c.3,0,.4,.1,.5,.3c0,.2,.1,.7,.1,1.6v8.8h3.9V920c0,-1.2,-.1,-2,-.2,-2.4c-.2,-.5,-.4,-.9,-.8,-1.2c-.5,-.3,-1,-.5,-1.7,-.5c-.5,0,-1,.1,-1.4,.4c-.4,.2,-.7,.5,-1,1v-1.2Zm14,-2.8c-.8,0,-1.5,.1,-1.9,.2c-.4,.1,-.7,.3,-1,.5c-.2,.2,-.3,.5,-.4,.8c0,.2,-.1,.8,-.1,1.6h-.8v2.1h.8v10.4h3.9V918.5h.9v-2.1h-1.6V916c0,-.3,.1,-.5,.2,-.6c.2,-.1,.6,-.1,1.4,-.1v-2Zm11,5.3c-.1,-.4,-.4,-.9,-.7,-1.3c-.4,-.4,-.8,-.7,-1.5,-1c-.6,-.3,-1.3,-.4,-2.2,-.4c-1,0,-1.9,.2,-2.6,.6c-.6,.4,-1.1,1,-1.4,1.6c-.2,.7,-.3,1.6,-.3,2.8v3.3c0,1.1,0,1.9,.2,2.4c.1,.6,.4,1,.7,1.4c.3,.4,.8,.7,1.4,.8c.6,.2,1.3,.3,2.2,.3c.7,0,1.4,-.1,2,-.3c.6,-.2,1.1,-.6,1.5,-1c.3,-.5,.6,-1,.7,-1.5c.1,-.6,.2,-1.4,.2,-2.6v-3.1c0,-.9,-.1,-1.6,-.2,-2m-3.7,6.9c0,.6,-.1,1,-.1,1.1c-.1,.2,-.3,.3,-.5,.3c-.2,0,-.4,-.1,-.4,-.3c-.1,-.2,-.2,-.6,-.2,-1.2v-5.7c0,-.7,.1,-1.1,.2,-1.3c0,-.1,.2,-.2,.4,-.2c.3,0,.4,.1,.5,.2c0,.2,.1,.6,.1,1.3Zm5.3,-9.4v12.8h3.9v-5c0,-1.3,.1,-2.1,.1,-2.4c.1,-.4,.3,-.6,.7,-.8c.3,-.2,.8,-.3,1.5,-.3v-4.5c-1,.1,-1.9,.7,-2.4,1.9l.1,-1.7Zm7.3,0v12.8h3.8v-8.8c0,-.7,0,-1.1,0,-1.3c0,-.1,.1,-.3,.2,-.4c.1,-.2,.2,-.2,.4,-.2c.3,0,.5,.1,.5,.3c.1,.3,.1,1,.1,2.3v8.1h3.8v-8.3c0,-1.1,0,-1.8,.1,-2c.1,-.3,.3,-.4,.5,-.4c.3,0,.5,.1,.6,.4c0,.2,.1,.9,.1,2v8.3h3.7v-9.1c0,-1,0,-1.8,-.1,-2.2c-.2,-.5,-.4,-.9,-.9,-1.2c-.4,-.3,-1,-.5,-1.6,-.5c-.5,0,-1,.1,-1.4,.4c-.4,.2,-.8,.6,-1.1,1.1c-.6,-1,-1.4,-1.5,-2.4,-1.5c-.6,0,-1,.1,-1.5,.4c-.4,.2,-.7,.6,-1,1.1v-1.3Z" class="g4_3"/>
<path d="M205.1,933.7v.5h-.6v1.9q0,.1,0,.2v.1q.1,0,.1,0c.1,0,.2,0,.2,0h.3v.5h-.4c-.2,0,-.3,-.1,-.4,-.1q-.1,0,-.2,-.1c0,0,-.1,-.1,-.1,-.2c0,-.1,-.1,-.2,-.1,-.3v-2h-.5v-.5h.5v-.9h.6v.9Z" class="g6_3"/>
<path d="M206.2,932.6v1.6c.1,-.1,.1,-.2,.2,-.2c.1,-.1,.1,-.2,.2,-.2c.1,0,.2,-.1,.3,-.1c.1,0,.2,0,.3,0c.2,0,.4,0,.5,.1c.2,0,.3,.1,.3,.2c.1,.1,.2,.2,.2,.3c.1,.2,.1,.3,.1,.5v2.1h-.5v-2.2c0,-.1,-.1,-.3,-.2,-.4c-.1,-.1,-.3,-.2,-.5,-.2c-.1,0,-.3,0,-.4,.1c-.1,0,-.2,.1,-.3,.2c0,.1,-.1,.2,-.1,.3c-.1,.1,-.1,.3,-.1,.4v1.8h-.5v-4.3Z" class="g6_3"/>
<path d="M211.3,936.7c-.2,.1,-.5,.2,-.9,.2c-.2,0,-.4,0,-.6,-.1c-.2,-.1,-.4,-.2,-.5,-.3c-.1,-.2,-.2,-.4,-.3,-.6c0,-.2,-.1,-.4,-.1,-.6c0,-.2,.1,-.5,.1,-.7c.1,-.2,.2,-.3,.4,-.5c.1,-.1,.2,-.2,.4,-.3c.2,-.1,.4,-.1,.6,-.1c.3,0,.5,0,.7,.1c.2,.2,.3,.3,.4,.5c.1,.2,.2,.3,.3,.6c0,.2,0,.4,0,.6h-2.3c0,.1,0,.2,0,.3c.1,.2,.1,.3,.2,.4c.1,.1,.2,.1,.3,.2c.1,.1,.3,.1,.5,.1c.2,0,.3,-.1,.5,-.2c.1,-.1,.2,-.2,.3,-.4h.5c-.1,.3,-.3,.6,-.5,.8m-.1,-2q-.1,-.2,-.2,-.3c-.1,-.1,-.2,-.2,-.3,-.2c-.1,-.1,-.2,-.1,-.3,-.1c-.2,0,-.3,0,-.4,.1c-.1,0,-.2,.1,-.3,.2c0,.1,-.1,.2,-.1,.3c-.1,.1,-.1,.2,-.1,.3h1.8c0,-.1,-.1,-.2,-.1,-.3Z" class="g6_3"/>
<path d="M215.5,933.7v.5h-.6v1.9q0,.1,0,.2v.1c0,0,.1,0,.1,0c.1,0,.2,0,.2,0h.3v.5h-.4c-.2,0,-.3,-.1,-.4,-.1q-.1,0,-.2,-.1c0,0,-.1,-.1,-.1,-.2c0,-.1,-.1,-.2,-.1,-.3v-2h-.5v-.5h.5v-.9h.6v.9Z" class="g6_3"/>
<path d="M216.6,933.7v.7c.1,-.3,.3,-.4,.4,-.6c.2,-.1,.4,-.1,.7,-.1v.5c-.2,0,-.4,0,-.5,.1c-.2,.1,-.3,.1,-.4,.2c0,.2,-.1,.3,-.1,.4c-.1,.2,-.1,.4,-.1,.6v1.4h-.5v-3.2Z" class="g6_3"/>
<path d="M220.3,936.9v-.5h-.1c-.1,.2,-.2,.3,-.4,.4c-.1,.1,-.3,.1,-.6,.1c-.2,0,-.3,0,-.5,-.1c-.1,0,-.2,-.1,-.3,-.2c-.1,-.1,-.1,-.2,-.2,-.3c0,-.2,0,-.3,0,-.5v-2.1h.5v2.2c0,.1,0,.3,.1,.4c.2,.1,.3,.2,.5,.2c.2,0,.3,0,.4,-.1c.1,0,.2,-.1,.3,-.2c.1,-.1,.1,-.2,.2,-.3c0,-.1,0,-.3,0,-.4v-1.8h.5v3.2Z" class="g6_3"/>
<path d="M222,936.2c0,0,.1,.1,.2,.1c0,.1,.1,.1,.2,.1c.1,.1,.2,.1,.3,.1c.1,0,.2,0,.3,0q.1,-.1,.2,-.1c.1,0,.2,-.1,.2,-.1c.1,-.1,.1,-.2,.1,-.3c0,-.1,-.1,-.2,-.2,-.3c-.1,-.1,-.2,-.1,-.3,-.2c-.2,0,-.4,0,-.5,-.1c-.2,0,-.4,-.1,-.5,-.1c-.2,-.1,-.3,-.2,-.4,-.3c-.1,-.1,-.2,-.2,-.2,-.4c0,-.2,.1,-.3,.1,-.4c.1,-.2,.2,-.3,.3,-.3c.1,-.1,.3,-.1,.4,-.2c.1,0,.3,0,.4,0c.2,0,.3,0,.5,0c.1,0,.3,.1,.4,.2c.1,0,.2,.1,.3,.3c0,.1,.1,.3,.1,.4h-.5c0,-.1,-.1,-.1,-.1,-.2q-.1,-.1,-.2,-.2c0,0,-.1,0,-.2,0c-.1,-.1,-.2,-.1,-.3,-.1c0,0,-.1,0,-.2,0q-.1,.1,-.2,.1c-.1,0,-.1,.1,-.2,.1q0,.1,0,.2c0,.1,0,.2,.1,.2c0,.1,.1,.1,.2,.2c.1,0,.2,.1,.3,.1c.2,0,.3,0,.4,.1c.1,0,.3,0,.4,.1c.1,0,.2,.1,.3,.1c.1,.1,.2,.2,.2,.3c.1,.1,.1,.2,.1,.3c0,.2,0,.4,-.1,.5c-.1,.1,-.2,.2,-.3,.3c-.1,.1,-.3,.1,-.4,.2c-.2,0,-.3,0,-.5,0c-.2,0,-.3,0,-.5,0c-.2,-.1,-.3,-.1,-.4,-.2c-.1,-.1,-.2,-.2,-.3,-.3c-.1,-.2,-.1,-.3,-.1,-.5h.5c0,.1,0,.2,.1,.3Z" class="g6_3"/>
<path d="M226,933.7v.5h-.6v1.9q0,.1,0,.2v.1q.1,0,.1,0c.1,0,.2,0,.2,0h.3v.5h-.4c-.1,0,-.3,-.1,-.4,-.1c0,0,-.1,0,-.2,-.1c0,0,-.1,-.1,-.1,-.2c0,-.1,-.1,-.2,-.1,-.3v-2h-.5v-.5h.5v-.9h.6v.9Z" class="g6_3"/>
<path d="M228.8,936.7c-.2,.1,-.5,.2,-.9,.2c-.2,0,-.4,0,-.6,-.1c-.2,-.1,-.4,-.2,-.5,-.3c-.1,-.2,-.2,-.4,-.3,-.6c0,-.2,-.1,-.4,-.1,-.6c0,-.2,.1,-.5,.1,-.7c.1,-.2,.2,-.3,.3,-.5c.2,-.1,.3,-.2,.5,-.3c.2,-.1,.4,-.1,.6,-.1c.3,0,.5,0,.7,.1c.2,.2,.3,.3,.4,.5c.1,.2,.2,.3,.3,.6c0,.2,0,.4,0,.6H227c0,.1,0,.2,0,.3c.1,.2,.1,.3,.2,.4c.1,.1,.2,.1,.3,.2c.1,.1,.3,.1,.4,.1c.3,0,.4,-.1,.6,-.2c.1,-.1,.2,-.2,.3,-.4h.5c-.1,.3,-.3,.6,-.5,.8m-.1,-2q-.1,-.2,-.2,-.3c-.1,-.1,-.2,-.2,-.3,-.2c-.1,-.1,-.2,-.1,-.3,-.1c-.2,0,-.3,0,-.4,.1c-.1,0,-.2,.1,-.3,.2c0,.1,-.1,.2,-.1,.3c-.1,.1,-.1,.2,-.1,.3h1.8c0,-.1,-.1,-.2,-.1,-.3Z" class="g6_3"/>
<path d="M232.2,936.9v-.5c-.1,.2,-.3,.3,-.4,.4c-.2,.1,-.4,.1,-.6,.1c-.3,0,-.5,0,-.7,-.1c-.1,-.1,-.3,-.2,-.4,-.4c-.1,-.1,-.2,-.3,-.3,-.5c0,-.2,-.1,-.4,-.1,-.6c0,-.2,.1,-.4,.1,-.6c.1,-.2,.2,-.4,.3,-.6c.1,-.1,.3,-.2,.4,-.3c.2,-.1,.4,-.1,.7,-.1c0,0,.1,0,.2,0c.1,0,.2,0,.3,.1c.1,0,.2,.1,.3,.1c0,.1,.1,.2,.2,.3v-1.6h.5v4.3Zm-1.9,-1.1c.1,.1,.1,.2,.2,.3c.1,.1,.2,.2,.3,.3c.1,0,.3,.1,.4,.1c.2,0,.4,-.1,.5,-.1c.1,-.1,.2,-.2,.3,-.3c.1,-.1,.1,-.2,.1,-.4c.1,-.1,.1,-.3,.1,-.4c0,-.2,0,-.3,-.1,-.4c0,-.2,-.1,-.3,-.1,-.4c-.1,-.1,-.2,-.2,-.3,-.3c-.2,0,-.3,-.1,-.5,-.1c-.2,0,-.3,.1,-.4,.1c-.2,.1,-.2,.2,-.3,.3c-.1,.1,-.1,.2,-.2,.4c0,.1,0,.3,0,.4c0,.2,0,.3,0,.5Z" class="g6_3"/>
<path d="M236.6,933.7v.5H236v1.9q0,.1,0,.2l.1,.1h.1c0,0,.1,0,.2,0h.2v.5h-.4c-.1,0,-.2,-.1,-.3,-.1c-.1,0,-.2,0,-.3,-.1c0,0,-.1,-.1,-.1,-.2c0,-.1,0,-.2,0,-.3v-2h-.6v-.5h.6v-.9h.5v.9Z" class="g6_3"/>
<path d="M239.4,936.7c-.2,.1,-.5,.2,-.8,.2c-.3,0,-.5,0,-.7,-.1c-.2,-.1,-.3,-.2,-.5,-.3c-.1,-.2,-.2,-.4,-.2,-.6c-.1,-.2,-.1,-.4,-.1,-.6c0,-.2,0,-.5,.1,-.7c0,-.2,.1,-.3,.3,-.5c.1,-.1,.3,-.2,.4,-.3c.2,-.1,.4,-.1,.6,-.1c.3,0,.5,0,.7,.1c.2,.2,.3,.3,.5,.5c.1,.2,.1,.3,.2,.6c0,.2,0,.4,0,.6h-2.3c0,.1,0,.2,0,.3c.1,.2,.1,.3,.2,.4c.1,.1,.2,.1,.3,.2c.2,.1,.3,.1,.5,.1c.2,0,.4,-.1,.5,-.2c.1,-.1,.2,-.2,.3,-.4h.5c-.1,.3,-.2,.6,-.5,.8m-.1,-2c0,-.2,-.1,-.2,-.2,-.3c-.1,-.1,-.1,-.2,-.3,-.2c-.1,-.1,-.2,-.1,-.3,-.1c-.1,0,-.3,0,-.4,.1c-.1,0,-.2,.1,-.2,.2c-.1,.1,-.2,.2,-.2,.3c-.1,.1,-.1,.2,-.1,.3h1.8c0,-.1,0,-.2,-.1,-.3Z" class="g6_3"/>
<path d="M242.4,934.3c-.1,-.1,-.3,-.2,-.5,-.2c-.2,0,-.4,.1,-.5,.1c-.1,.1,-.2,.2,-.3,.3c-.1,.1,-.1,.2,-.2,.4c0,.1,0,.3,0,.4c0,.2,0,.3,0,.5c.1,.1,.1,.2,.2,.3c.1,.1,.2,.2,.3,.3c.1,0,.2,.1,.4,.1c.3,0,.5,-.1,.6,-.2c.1,-.2,.2,-.3,.3,-.6h.5c-.1,.4,-.2,.7,-.4,.9c-.3,.2,-.6,.3,-1,.3c-.2,0,-.4,0,-.6,-.1c-.2,-.1,-.4,-.2,-.5,-.3c-.1,-.2,-.2,-.3,-.3,-.5c0,-.2,0,-.4,0,-.7c0,-.2,0,-.4,0,-.6c.1,-.2,.2,-.4,.3,-.5c.1,-.2,.3,-.3,.5,-.4c.2,-.1,.4,-.1,.6,-.1c.2,0,.4,0,.5,0c.2,.1,.3,.1,.4,.2c.1,.1,.2,.2,.3,.4c.1,.1,.1,.3,.2,.4h-.6c0,-.2,-.1,-.3,-.2,-.4Z" class="g6_3"/>
<path d="M244.3,932.6v1.6c.1,-.1,.1,-.2,.2,-.2c.1,-.1,.2,-.2,.3,-.2c0,0,.1,-.1,.2,-.1c.1,0,.2,0,.3,0c.2,0,.4,0,.5,.1c.2,0,.3,.1,.4,.2c.1,.1,.1,.2,.1,.3c.1,.2,.1,.3,.1,.5v2.1h-.5v-2.2c0,-.1,-.1,-.3,-.2,-.4c-.1,-.1,-.3,-.2,-.4,-.2c-.2,0,-.3,0,-.5,.1c-.1,0,-.2,.1,-.2,.2c-.1,.1,-.2,.2,-.2,.3c-.1,.1,-.1,.3,-.1,.4v1.8h-.5v-4.3Z" class="g6_3"/>
<path d="M247.7,933.7v.5c.2,-.3,.6,-.5,1,-.5c.2,0,.4,0,.5,.1c.2,0,.3,.1,.4,.2c.1,.1,.1,.2,.2,.3c0,.2,0,.3,0,.5v2.1h-.5v-2.2c0,-.1,-.1,-.3,-.2,-.4c-.1,-.1,-.2,-.2,-.4,-.2c-.2,0,-.3,0,-.4,.1c-.2,0,-.3,.1,-.3,.2c-.1,.1,-.2,.2,-.2,.3c0,.1,-.1,.3,-.1,.4v1.8h-.5v-3.2Z" class="g6_3"/>
<path d="M250.6,934.7c0,-.2,.1,-.4,.3,-.6c.1,-.1,.2,-.2,.4,-.3c.2,-.1,.4,-.1,.7,-.1c.2,0,.4,0,.6,.1c.2,.1,.4,.2,.5,.3c.1,.2,.2,.4,.3,.6c.1,.2,.1,.4,.1,.6c0,.2,0,.4,-.1,.6c-.1,.2,-.2,.4,-.3,.6c-.1,.1,-.3,.2,-.5,.3c-.2,.1,-.4,.1,-.6,.1c-.3,0,-.5,0,-.7,-.1c-.2,-.1,-.3,-.2,-.4,-.3c-.2,-.2,-.3,-.4,-.3,-.6c-.1,-.2,-.1,-.4,-.1,-.6c0,-.2,0,-.4,.1,-.6m.5,1.1c0,.2,.1,.3,.2,.4c.1,.1,.2,.1,.3,.2c.1,.1,.3,.1,.4,.1c.1,0,.2,0,.4,-.1c.1,-.1,.2,-.1,.3,-.2c.1,-.1,.1,-.2,.2,-.4c0,-.1,.1,-.3,.1,-.5c0,-.2,-.1,-.4,-.1,-.5c-.1,-.1,-.1,-.3,-.2,-.4c-.1,-.1,-.2,-.1,-.3,-.2c-.2,-.1,-.3,-.1,-.4,-.1c-.1,0,-.3,0,-.4,.1c-.1,.1,-.2,.1,-.3,.2c-.1,.1,-.2,.3,-.2,.4c-.1,.1,-.1,.3,-.1,.5c0,.2,0,.4,.1,.5Z" class="g6_3"/>
<path d="M254.2,936.9h.5v-4.3h-.5v4.3Z" class="g6_3"/>
<path d="M255.5,934.7c0,-.2,.1,-.4,.3,-.6c.1,-.1,.3,-.2,.4,-.3c.2,-.1,.5,-.1,.7,-.1c.2,0,.5,0,.7,.1c.1,.1,.3,.2,.4,.3c.2,.2,.3,.4,.3,.6c.1,.2,.1,.4,.1,.6c0,.2,0,.4,-.1,.6c0,.2,-.1,.4,-.3,.6c-.1,.1,-.3,.2,-.4,.3c-.2,.1,-.5,.1,-.7,.1c-.2,0,-.5,0,-.7,-.1c-.1,-.1,-.3,-.2,-.4,-.3c-.2,-.2,-.3,-.4,-.3,-.6c-.1,-.2,-.1,-.4,-.1,-.6c0,-.2,0,-.4,.1,-.6m.5,1.1c.1,.2,.1,.3,.2,.4c.1,.1,.2,.1,.3,.2c.1,.1,.3,.1,.4,.1c.1,0,.3,0,.4,-.1c.1,-.1,.2,-.1,.3,-.2c.1,-.1,.1,-.2,.2,-.4c0,-.1,.1,-.3,.1,-.5c0,-.2,-.1,-.4,-.1,-.5c-.1,-.1,-.1,-.3,-.2,-.4c-.1,-.1,-.2,-.1,-.3,-.2c-.1,-.1,-.3,-.1,-.4,-.1c-.1,0,-.3,0,-.4,.1c-.1,.1,-.2,.1,-.3,.2c-.1,.1,-.1,.3,-.2,.4c0,.1,-.1,.3,-.1,.5c0,.2,.1,.4,.1,.5Z" class="g6_3"/>
<path d="M261.4,937.7c-.2,.3,-.6,.4,-1.1,.4c-.1,0,-.3,0,-.4,0c-.2,-.1,-.3,-.1,-.4,-.2c-.2,-.1,-.3,-.2,-.3,-.3c-.1,-.1,-.2,-.2,-.2,-.4h.5c0,.1,.1,.2,.1,.2c.1,.1,.1,.2,.2,.2c.1,0,.2,.1,.3,.1c.1,0,.2,0,.2,0c.2,0,.4,0,.5,-.1c.1,0,.2,-.1,.3,-.2c0,-.1,.1,-.2,.1,-.4c.1,-.1,.1,-.3,.1,-.5v-.2c-.1,.2,-.3,.4,-.4,.5c-.2,0,-.4,.1,-.6,.1c-.2,0,-.4,-.1,-.6,-.1c-.2,-.1,-.3,-.2,-.4,-.4c-.2,-.1,-.2,-.3,-.3,-.5c-.1,-.2,-.1,-.4,-.1,-.6c0,-.2,0,-.4,.1,-.6c0,-.1,.1,-.3,.2,-.5c.1,-.1,.3,-.3,.5,-.4c.1,-.1,.4,-.1,.6,-.1c.2,0,.4,0,.6,.1c.2,.1,.3,.2,.4,.4v-.5h.5v2.9c0,.5,-.2,.9,-.4,1.1m-.6,-1.4c.1,0,.2,-.1,.2,-.2c.1,-.2,.2,-.3,.2,-.4c0,-.2,.1,-.3,.1,-.5c0,-.1,-.1,-.2,-.1,-.4c0,-.1,-.1,-.2,-.1,-.3c-.1,-.1,-.2,-.2,-.3,-.3c-.1,0,-.3,-.1,-.4,-.1c-.2,0,-.3,.1,-.5,.1c-.1,.1,-.2,.2,-.2,.3c-.1,.1,-.2,.2,-.2,.3c0,.2,-.1,.3,-.1,.5c0,.1,.1,.2,.1,.4c0,.1,.1,.2,.1,.4c.1,.1,.2,.2,.3,.2c.1,.1,.3,.1,.4,.1c.2,0,.3,0,.5,-.1Z" class="g6_3"/>
<path d="M263.6,937.7c0,.1,-.1,.1,-.2,.2c0,.1,-.1,.1,-.2,.2c-.1,0,-.2,0,-.3,0c0,0,-.1,0,-.2,0c0,0,-.1,0,-.1,-.1v-.4c0,0,.1,0,.1,0q.1,0,.2,0q.1,0,.2,0q.1,-.1,.2,-.2l.2,-.6l-1.2,-3.1h.5l.9,2.6h.1l.8,-2.6h.6l-1.4,3.6c0,.1,-.1,.2,-.2,.4Z" class="g6_3"/>
<path d="M267.4,936.9h.5v-4.3h-.5v4.3Z" class="g6_3"/>
<path d="M271,936.7c-.2,.1,-.5,.2,-.9,.2c-.2,0,-.4,0,-.6,-.1c-.2,-.1,-.4,-.2,-.5,-.3c-.1,-.2,-.2,-.4,-.3,-.6c0,-.2,-.1,-.4,-.1,-.6c0,-.2,.1,-.5,.1,-.7c.1,-.2,.2,-.3,.3,-.5c.2,-.1,.3,-.2,.5,-.3c.2,-.1,.4,-.1,.6,-.1c.3,0,.5,0,.7,.1c.2,.2,.3,.3,.4,.5c.1,.2,.2,.3,.3,.6c0,.2,0,.4,0,.6h-2.3c0,.1,0,.2,0,.3c.1,.2,.1,.3,.2,.4c.1,.1,.2,.1,.3,.2c.1,.1,.3,.1,.4,.1c.3,0,.4,-.1,.6,-.2c.1,-.1,.2,-.2,.3,-.4h.5c-.1,.3,-.3,.6,-.5,.8m-.1,-2q-.1,-.2,-.2,-.3c-.1,-.1,-.2,-.2,-.3,-.2c-.1,-.1,-.2,-.1,-.3,-.1c-.2,0,-.3,0,-.4,.1c-.1,0,-.2,.1,-.3,.2c0,.1,-.1,.2,-.1,.3c-.1,.1,-.1,.2,-.1,.3H271c0,-.1,-.1,-.2,-.1,-.3Z" class="g6_3"/>
<path d="M274.5,936.9c-.1,0,-.3,0,-.3,-.1c-.1,-.1,-.1,-.2,-.1,-.4c-.2,.2,-.4,.3,-.5,.4c-.2,.1,-.4,.1,-.6,.1c-.2,0,-.3,0,-.4,0c-.2,-.1,-.3,-.1,-.4,-.2c-.1,0,-.1,-.1,-.2,-.2c0,-.2,-.1,-.3,-.1,-.4c0,-.2,.1,-.4,.1,-.5c.1,-.1,.2,-.2,.3,-.3c.1,0,.2,-.1,.3,-.1c.1,0,.2,-.1,.4,-.1c.1,0,.3,-.1,.4,-.1c.1,0,.2,0,.3,0c.1,-.1,.2,-.1,.2,-.1c.1,-.1,.1,-.2,.1,-.3c0,-.1,0,-.2,0,-.2c-.1,-.1,-.1,-.2,-.2,-.2q-.1,0,-.2,-.1c-.1,0,-.2,0,-.3,0c-.2,0,-.4,.1,-.5,.1c-.2,.1,-.2,.3,-.2,.5H272c.1,-.2,.1,-.3,.2,-.5c0,-.1,.1,-.2,.3,-.3c.1,-.1,.2,-.1,.4,-.2c.1,0,.3,0,.5,0c.1,0,.2,0,.4,0c.1,0,.2,.1,.4,.1c.1,.1,.2,.2,.2,.3c.1,.1,.1,.2,.1,.4v1.6c0,.1,0,.2,.1,.3q0,.1,.1,.1c0,0,.1,0,.2,-.1v.4c-.1,.1,-.3,.1,-.4,.1m-.7,-1.5c-.1,0,-.2,0,-.4,0c-.1,0,-.2,0,-.3,.1c-.1,0,-.2,0,-.3,0c-.1,.1,-.2,.1,-.2,.2c-.1,.1,-.1,.2,-.1,.3c0,.1,0,.2,0,.2q.1,.1,.2,.2c0,0,.1,0,.1,.1c.1,0,.2,0,.3,0c.1,0,.3,0,.4,-.1c.1,0,.2,-.1,.3,-.2c.1,0,.1,-.1,.2,-.2c0,-.1,0,-.2,0,-.2v-.6c0,.1,-.1,.1,-.2,.2Z" class="g6_3"/>
<path d="M275.9,933.7v.7c.1,-.3,.2,-.4,.4,-.6c.2,-.1,.4,-.1,.7,-.1v.5c-.2,0,-.4,0,-.5,.1c-.2,.1,-.3,.1,-.4,.2c-.1,.2,-.1,.3,-.2,.4c0,.2,0,.4,0,.6v1.4h-.5v-3.2Z" class="g6_3"/>
<path d="M278,933.7v.5h.1c.2,-.3,.5,-.5,1,-.5c.2,0,.3,0,.5,.1c.1,0,.2,.1,.3,.2c.1,.1,.2,.2,.2,.3c0,.2,0,.3,0,.5v2.1h-.5v-2.2c0,-.1,0,-.3,-.1,-.4c-.1,-.1,-.3,-.2,-.5,-.2c-.2,0,-.3,0,-.4,.1c-.1,0,-.2,.1,-.3,.2c-.1,.1,-.1,.2,-.2,.3c0,.1,0,.3,0,.4v1.8h-.5v-3.2Z" class="g6_3"/>
<path d="M281,933.2h.5v-.6H281v.6Zm0,3.7h.5v-3.2H281v3.2Z" class="g6_3"/>
<path d="M282.9,933.7v.5c.2,-.3,.5,-.5,1,-.5c.2,0,.4,0,.5,.1c.1,0,.2,.1,.3,.2c.1,.1,.2,.2,.2,.3c0,.2,.1,.3,.1,.5v2.1h-.6v-2.2c0,-.1,0,-.3,-.1,-.4c-.1,-.1,-.3,-.2,-.5,-.2c-.1,0,-.3,0,-.4,.1c-.1,0,-.2,.1,-.3,.2c-.1,.1,-.1,.2,-.2,.3c0,.1,0,.3,0,.4v1.8h-.5v-3.2Z" class="g6_3"/>
<path d="M288.1,937.7c-.2,.3,-.6,.4,-1.1,.4c-.1,0,-.3,0,-.4,0c-.2,-.1,-.3,-.1,-.4,-.2c-.2,-.1,-.3,-.2,-.3,-.3c-.1,-.1,-.2,-.2,-.2,-.4h.5c.1,.1,.1,.2,.1,.2c.1,.1,.2,.2,.2,.2c.1,0,.2,.1,.3,.1c.1,0,.2,0,.3,0c.1,0,.3,0,.4,-.1c.1,0,.2,-.1,.3,-.2c0,-.1,.1,-.2,.1,-.4c.1,-.1,.1,-.3,.1,-.5v-.2c-.1,.2,-.2,.4,-.4,.5c-.2,0,-.4,.1,-.6,.1c-.2,0,-.4,-.1,-.6,-.1c-.2,-.1,-.3,-.2,-.4,-.4c-.2,-.1,-.2,-.3,-.3,-.5c-.1,-.2,-.1,-.4,-.1,-.6c0,-.2,0,-.4,.1,-.6c0,-.1,.1,-.3,.2,-.5c.1,-.1,.3,-.3,.5,-.4c.2,-.1,.4,-.1,.7,-.1c.2,0,.3,0,.5,.1c.2,.1,.3,.2,.4,.4v-.5h.5v2.9c0,.5,-.1,.9,-.4,1.1m-.6,-1.4c.1,0,.2,-.1,.3,-.2c0,-.2,.1,-.3,.1,-.4c0,-.2,.1,-.3,.1,-.5c0,-.1,-.1,-.2,-.1,-.4c0,-.1,-.1,-.2,-.1,-.3c-.1,-.1,-.2,-.2,-.3,-.3c-.1,0,-.3,-.1,-.4,-.1c-.2,0,-.3,.1,-.4,.1c-.2,.1,-.3,.2,-.3,.3c-.1,.1,-.2,.2,-.2,.3c0,.2,0,.3,0,.5c0,.1,0,.2,0,.4c0,.1,.1,.2,.1,.4c.1,.1,.2,.2,.3,.2c.1,.1,.3,.1,.4,.1c.2,0,.3,0,.5,-.1Z" class="g6_3"/>
<path d="M291.4,936.2c.1,0,.1,.1,.2,.1c.1,.1,.2,.1,.3,.1c.1,.1,.2,.1,.3,.1c.1,0,.2,0,.2,0c.1,-.1,.2,-.1,.3,-.1c.1,0,.1,-.1,.2,-.1c0,-.1,0,-.2,0,-.3c0,-.1,0,-.2,-.1,-.3c-.1,-.1,-.2,-.1,-.4,-.2c-.1,0,-.3,0,-.5,-.1c-.2,0,-.3,-.1,-.5,-.1c-.1,-.1,-.2,-.2,-.3,-.3c-.1,-.1,-.2,-.2,-.2,-.4c0,-.2,0,-.3,.1,-.4c.1,-.2,.2,-.3,.3,-.3c.1,-.1,.2,-.1,.4,-.2c.1,0,.2,0,.4,0c.1,0,.3,0,.5,0c.1,0,.2,.1,.4,.2c.1,0,.2,.1,.2,.3c.1,.1,.1,.3,.1,.4h-.5q0,-.1,0,-.2q-.1,-.1,-.2,-.2c-.1,0,-.2,0,-.2,0c-.1,-.1,-.2,-.1,-.3,-.1q-.1,0,-.2,0c-.1,.1,-.2,.1,-.2,.1c-.1,0,-.2,.1,-.2,.1c0,.1,-.1,.1,-.1,.2c0,.1,.1,.2,.1,.2c.1,.1,.2,.1,.3,.2c.1,0,.2,.1,.3,.1c.1,0,.2,0,.4,.1c.1,0,.2,0,.3,.1c.2,0,.3,.1,.4,.1c.1,.1,.1,.2,.2,.3c.1,.1,.1,.2,.1,.3c0,.2,-.1,.4,-.1,.5c-.1,.1,-.2,.2,-.3,.3c-.2,.1,-.3,.1,-.5,.2c-.1,0,-.3,0,-.4,0c-.2,0,-.4,0,-.5,0c-.2,-.1,-.3,-.1,-.5,-.2c-.1,-.1,-.2,-.2,-.2,-.3c-.1,-.2,-.2,-.3,-.2,-.5h.6c0,.1,0,.2,0,.3Z" class="g6_3"/>
<path d="M294,934.7c.1,-.2,.2,-.4,.3,-.6c.2,-.1,.3,-.2,.5,-.3c.2,-.1,.4,-.1,.7,-.1c.2,0,.4,0,.6,.1c.2,.1,.4,.2,.5,.3c.1,.2,.2,.4,.3,.6c0,.2,.1,.4,.1,.6c0,.2,-.1,.4,-.1,.6c-.1,.2,-.2,.4,-.3,.6c-.1,.1,-.3,.2,-.5,.3c-.2,.1,-.4,.1,-.6,.1c-.3,0,-.5,0,-.7,-.1c-.2,-.1,-.3,-.2,-.5,-.3c-.1,-.2,-.2,-.4,-.3,-.6c0,-.2,-.1,-.4,-.1,-.6c0,-.2,.1,-.4,.1,-.6m.6,1.1c0,.2,.1,.3,.2,.4c.1,.1,.2,.1,.3,.2c.1,.1,.2,.1,.4,.1c.1,0,.2,0,.3,-.1c.1,-.1,.3,-.1,.3,-.2c.1,-.1,.2,-.2,.2,-.4c.1,-.1,.1,-.3,.1,-.5c0,-.2,0,-.4,-.1,-.5c0,-.1,-.1,-.3,-.2,-.4c0,-.1,-.2,-.1,-.3,-.2c-.1,-.1,-.2,-.1,-.3,-.1c-.2,0,-.3,0,-.4,.1c-.1,.1,-.2,.1,-.3,.2c-.1,.1,-.2,.3,-.2,.4c-.1,.1,-.1,.3,-.1,.5c0,.2,0,.4,.1,.5Z" class="g6_3"/>
<path d="M299.7,936.9v-.5c-.1,.2,-.2,.3,-.4,.4c-.2,.1,-.4,.1,-.6,.1c-.2,0,-.4,0,-.5,-.1c-.1,0,-.3,-.1,-.3,-.2c-.1,-.1,-.2,-.2,-.2,-.3c-.1,-.2,-.1,-.3,-.1,-.5v-2.1h.5v2.2c0,.1,.1,.3,.2,.4c.1,.1,.3,.2,.5,.2c.1,0,.3,0,.4,-.1c.1,0,.2,-.1,.3,-.2c0,-.1,.1,-.2,.1,-.3c.1,-.1,.1,-.3,.1,-.4v-1.8h.5v3.2Z" class="g6_3"/>
<path d="M301.5,933.7v.7c.1,-.3,.3,-.4,.5,-.6c.2,-.1,.4,-.1,.7,-.1v.5c-.2,0,-.4,0,-.6,.1c-.1,.1,-.2,.1,-.3,.2c-.1,.2,-.2,.3,-.2,.4c0,.2,-.1,.4,-.1,.6v1.4H301v-3.2Z" class="g6_3"/>
<path d="M304.9,934.3c-.2,-.1,-.3,-.2,-.6,-.2c-.1,0,-.3,.1,-.4,.1c-.1,.1,-.2,.2,-.3,.3c-.1,.1,-.1,.2,-.2,.4c0,.1,0,.3,0,.4c0,.2,0,.3,0,.5c.1,.1,.1,.2,.2,.3c.1,.1,.1,.2,.3,.3c.1,0,.2,.1,.4,.1c.2,0,.4,-.1,.6,-.2c.1,-.2,.2,-.3,.2,-.6h.6c-.1,.4,-.2,.7,-.5,.9c-.2,.2,-.5,.3,-.9,.3c-.2,0,-.5,0,-.6,-.1c-.2,-.1,-.4,-.2,-.5,-.3c-.1,-.2,-.2,-.3,-.3,-.5c0,-.2,-.1,-.4,-.1,-.7c0,-.2,.1,-.4,.1,-.6c.1,-.2,.2,-.4,.3,-.5c.1,-.2,.3,-.3,.5,-.4c.1,-.1,.4,-.1,.6,-.1c.2,0,.3,0,.5,0c.2,.1,.3,.1,.4,.2c.1,.1,.2,.2,.3,.4c.1,.1,.1,.3,.1,.4h-.5c0,-.2,-.1,-.3,-.2,-.4Z" class="g6_3"/>
<path d="M308.5,936.7c-.2,.1,-.5,.2,-.9,.2c-.2,0,-.4,0,-.6,-.1c-.2,-.1,-.4,-.2,-.5,-.3c-.1,-.2,-.2,-.4,-.3,-.6c0,-.2,-.1,-.4,-.1,-.6c0,-.2,.1,-.5,.1,-.7c.1,-.2,.2,-.3,.3,-.5c.2,-.1,.3,-.2,.5,-.3c.2,-.1,.4,-.1,.6,-.1c.3,0,.5,0,.7,.1c.2,.2,.3,.3,.4,.5c.1,.2,.2,.3,.2,.6c.1,.2,.1,.4,.1,.6h-2.3c0,.1,0,.2,0,.3c.1,.2,.1,.3,.2,.4c.1,.1,.2,.1,.3,.2c.1,.1,.3,.1,.4,.1c.3,0,.4,-.1,.6,-.2c.1,-.1,.2,-.2,.2,-.4h.5c0,.3,-.2,.6,-.4,.8m-.1,-2q-.1,-.2,-.2,-.3c-.1,-.1,-.2,-.2,-.3,-.2c-.1,-.1,-.2,-.1,-.3,-.1c-.2,0,-.3,0,-.4,.1c-.1,0,-.2,.1,-.3,.2c-.1,.1,-.1,.2,-.2,.3c0,.1,0,.2,0,.3h1.8c-.1,-.1,-.1,-.2,-.1,-.3Z" class="g6_3"/>
<path d="M378.8,925h-6.4l3.2,-5.6Z" class="g7_3"/>
<path d="M374.8,926.1l-3.2,5.6l-3.2,-5.5Z" class="g7_3"/>
<path d="M382.5,926.1l-3.2,5.6l-3.2,-5.5Z" class="g7_3"/>
<path d="M391.3,927.1h-3.8l2,-4.4Zm.2,.6l.6,1.4c.2,.4,.4,.9,.4,1.3c0,.6,-.4,.7,-1.1,.7v.3h4.4v-.3c-1.3,0,-1.6,-.9,-2,-1.9l-3.8,-9h-.2l-4,9.3c-.5,1.1,-.9,1.6,-1.7,1.6v.3h3.4v-.3c-.6,0,-1.2,-.1,-1.2,-.7c0,-.3,.2,-.8,.3,-1.1l.7,-1.6Z" class="g4_3"/>
<path d="M401.7,930c-.4,.4,-.8,.8,-1.4,.8c-1.3,0,-2.3,-1.4,-2.3,-3.4c0,-2.6,1.4,-3.1,2,-3.1c1.1,0,1.7,1.1,1.7,2.1Zm0,-5.6c-.4,-.4,-1,-.6,-1.6,-.6c-2.2,0,-3.6,2.2,-3.6,4.2c0,1.7,1,3.7,3,3.7c.9,0,1.6,-.4,2.2,-1.1v1.1h.4l2.2,-.9l-.1,-.3c-.2,0,-.4,.1,-.6,.1c-.2,0,-.6,0,-.6,-1.1v-9.6h-.3l-2.3,.9l.2,.3c.1,-.1,.3,-.1,.5,-.1c.2,0,.6,0,.6,1.1Z" class="g4_3"/>
<path d="M410,930c-.4,.4,-.8,.8,-1.4,.8c-1.3,0,-2.3,-1.4,-2.3,-3.4c0,-2.6,1.4,-3.1,2,-3.1c1.1,0,1.7,1.1,1.7,2.1Zm0,-5.6c-.4,-.4,-1,-.6,-1.6,-.6c-2.2,0,-3.6,2.2,-3.6,4.2c0,1.7,1.1,3.7,3,3.7c.9,0,1.6,-.4,2.2,-1.1v1.1h.4l2.2,-.9l-.1,-.3c-.2,0,-.4,.1,-.6,.1c-.2,0,-.5,0,-.5,-1.1v-9.6H411l-2.3,.9l.2,.3c.1,-.1,.3,-.1,.5,-.1c.3,0,.6,0,.6,1.1Z" class="g4_3"/>
<path d="M415.6,930c0,1,.4,1.1,1.1,1.1v.3h-3.6v-.3c.8,0,1.1,-.1,1.1,-1.1v-4c0,-1.2,-.3,-1.2,-.5,-1.2c-.2,0,-.4,.1,-.6,.2l-.1,-.3l2.2,-.9h.4Zm-.7,-10.1c.5,0,.8,.4,.8,.8c0,.5,-.3,.8,-.8,.8c-.4,0,-.8,-.3,-.8,-.8c0,-.4,.4,-.8,.8,-.8Z" class="g4_3"/>
<path d="M422.5,926.3h-.3c-.2,-1.1,-.7,-2,-2,-2c-.6,0,-1.2,.3,-1.2,1c0,1.8,4.1,1.6,4.1,4.1c0,1.4,-1.3,2.3,-2.6,2.3c-.5,0,-1,-.2,-1.5,-.3c-.1,0,-.3,-.1,-.4,-.1c-.1,0,-.3,.1,-.3,.2H418v-2.6h.3c.2,1.2,1,2.3,2.3,2.3c.7,0,1.3,-.4,1.3,-1.2c0,-1.9,-3.9,-1.6,-3.9,-4c0,-1.4,1,-2.2,2.3,-2.2c.4,0,.6,.1,1,.2c.2,0,.4,.1,.6,.1c.2,0,.3,-.1,.3,-.3h.3Z" class="g4_3"/>
<path d="M427.5,924.3c1.8,0,2.3,2.5,2.3,3.9c0,1.2,-.2,2.9,-1.7,2.9c-1.9,0,-2.4,-2.6,-2.4,-4c0,-2.1,1,-2.8,1.8,-2.8m.3,-.5c-2.2,0,-3.6,2,-3.6,4c0,2,1.4,3.9,3.5,3.9c2.6,0,3.7,-2.4,3.7,-4.2c0,-2,-1.5,-3.7,-3.6,-3.7Z" class="g4_3"/>
<path d="M434.6,925.3c.9,-1,1.6,-1.5,2.5,-1.5c1.4,0,1.9,1.2,1.9,2.5V930c0,1,.4,1.1,1.2,1.1v.3h-3.7v-.3c.8,0,1.2,-.1,1.2,-1.1v-3.4c0,-1.7,-.7,-1.8,-1.2,-1.8c-.8,0,-1.3,.5,-1.9,1V930c0,1,.4,1.1,1.2,1.1v.3h-3.7v-.3c.8,0,1.2,-.1,1.2,-1.1v-4c0,-1.2,-.4,-1.2,-.6,-1.2c-.2,0,-.4,.1,-.6,.2l-.1,-.3l2.3,-.9h.3Z" class="g4_3"/>
<path d="M440.9,928.3h4.2v-1.2h-4.2v1.2Z" class="g4_3"/>
<path d="M457.5,923c.1,-.4,.4,-1.1,.4,-1.5c0,-.6,-.5,-.8,-1.2,-.8v-.3H460v.3c-1.1,0,-1.4,.9,-1.7,1.8l-3.1,9.2h-.3l-2.5,-7h-.1l-2.4,7h-.3l-3.4,-9.5c-.4,-1.1,-.6,-1.5,-1.6,-1.5v-.3h4.1v.3c-.6,0,-1.1,.2,-1.1,.7c0,.3,.2,.7,.3,1l2.2,6.4h.1l1.8,-5.2l-.5,-1.2c-.3,-.9,-.6,-1.7,-1.7,-1.7v-.3h4.3v.3c-.7,0,-1.1,.1,-1.1,.8c0,.5,.2,1.1,.4,1.6l2,5.7h.1Z" class="g4_3"/>
<path d="M460.5,926.3c.1,-.9,.8,-1.9,1.8,-1.9c1.1,0,1.6,.9,1.6,1.9Zm5.1,.5c0,-1.8,-1.1,-3,-2.8,-3c-2.4,0,-3.4,1.9,-3.4,4c0,2.3,1.4,3.9,3.2,3.9c1.7,0,2.8,-1.4,3,-3l-.2,-.1c-.4,1,-1,1.7,-2.2,1.7c-1.8,0,-2.7,-1.8,-2.7,-3.5Z" class="g4_3"/>
<path d="M471.5,926.3h-.3c-.2,-1.1,-.7,-2,-2,-2c-.6,0,-1.2,.3,-1.2,1c0,1.8,4.1,1.6,4.1,4.1c0,1.4,-1.3,2.3,-2.6,2.3c-.4,0,-1,-.2,-1.4,-.3c-.1,0,-.3,-.1,-.5,-.1c-.1,0,-.2,.1,-.3,.2H467v-2.6h.3c.2,1.2,1.1,2.3,2.3,2.3c.7,0,1.3,-.4,1.3,-1.2c0,-1.9,-3.9,-1.6,-3.9,-4c0,-1.4,1,-2.2,2.3,-2.2c.4,0,.6,.1,1,.2c.2,0,.4,.1,.6,.1c.2,0,.3,-.1,.3,-.3h.3Z" class="g4_3"/>
<path d="M475.7,930c0,1,.4,1.1,1.1,1.1v.3h-3.6v-.3c.8,0,1.1,-.1,1.1,-1.1v-7.9c0,-1.1,-.3,-1.1,-.5,-1.1c-.2,0,-.4,0,-.6,.1l-.1,-.3l2.2,-.9h.4Z" class="g4_3"/>
<path d="M479,926.3c0,-.9,.7,-1.9,1.7,-1.9c1.2,0,1.7,.9,1.7,1.9Zm5.1,.5c0,-1.8,-1.1,-3,-2.8,-3c-2.4,0,-3.5,1.9,-3.5,4c0,2.3,1.5,3.9,3.3,3.9c1.6,0,2.7,-1.4,3,-3l-.2,-.1c-.4,1,-1.1,1.7,-2.3,1.7c-1.8,0,-2.6,-1.8,-2.6,-3.5Z" class="g4_3"/>
<path d="M485.9,925.7c-.3,-.6,-.7,-1.3,-1.4,-1.4V924h3.4v.3c-.5,0,-.9,.1,-.9,.6c0,.3,.3,.8,.4,1l1.7,3.6l1.6,-3.9c.1,-.3,.2,-.6,.2,-.9c0,-.4,-.3,-.4,-.7,-.4V924h2.4v.3c-.5,0,-.8,.4,-1,.9l-3.2,7.7c-.6,1.6,-1.8,2.1,-2.4,2.1c-.6,0,-1.1,-.3,-1.1,-.9c0,-.5,.4,-.7,.8,-.7c.6,0,.8,.3,1.1,.3c.7,0,1,-1,1.2,-1.5l.5,-1.1Z" class="g4_3"/>
<path d="M586.1,921.9c0,-.5,.3,-.9,.7,-.9c.5,0,.7,.4,.7,.9v4.2c0,.6,-.2,.9,-.7,.9c-.2,0,-.5,-.1,-.6,-.3q-.1,-.2,-.2,-1.4c-.4,-2,-2.1,-3.3,-4.4,-3.3c-2.4,0,-4,1.4,-4,3.3c0,1.6,.8,2.3,3.4,3.2l2.7,.9c3,1,4.2,2.3,4.2,4.6c0,3,-2.3,4.9,-5.6,4.9c-2.5,0,-4.2,-.9,-5,-2.8v1.7c0,.5,-.3,.9,-.7,.9c-.4,0,-.7,-.4,-.7,-.9v-4.5c0,-.5,.3,-.8,.7,-.8c.5,0,.7,.2,.8,1c0,.8,.6,2.2,1.2,2.8c.8,.9,2,1.4,3.4,1.4c2.6,0,4.3,-1.4,4.3,-3.6c0,-1,-.5,-1.8,-1.3,-2.4c-.5,-.3,-1,-.5,-2,-.9l-2.3,-.8c-1.8,-.6,-2.7,-1,-3.3,-1.5c-1,-.8,-1.4,-1.8,-1.4,-3.1c0,-2.7,2.2,-4.6,5.4,-4.6c2.3,0,3.9,.9,4.7,2.6Z" class="g8_3"/>
<path d="M590.7,935.3c0,1.6,1.1,2.6,3.2,2.6c1.6,0,2.9,-.6,3.6,-1.8c.4,-.6,.8,-2.2,.8,-3.2c0,-.2,-.1,-.4,-.3,-.4c-.1,-.1,-1.2,-.2,-2.3,-.2c-3.4,0,-5,1,-5,3m7.6,.8c-.9,2.1,-2.3,2.9,-4.7,2.9c-2.8,0,-4.4,-1.4,-4.4,-3.7c0,-1.6,.7,-2.7,2.1,-3.4c1,-.4,2.4,-.6,4.6,-.6c.5,0,1,0,1.4,0c.2,.1,.4,.1,.5,.1c.3,0,.5,-.2,.5,-.5v-.1c0,-1.7,-.1,-2.2,-.9,-2.9c-.6,-.5,-1.4,-.8,-2.6,-.8c-2.1,0,-3.4,.9,-3.6,2.5c-.1,.4,-.4,.7,-.8,.7c-.4,0,-.7,-.3,-.7,-.8c0,-1,.9,-2.3,2.1,-2.9c.8,-.4,1.8,-.6,3,-.6c1.9,0,3.2,.5,4,1.4c.7,.8,.9,1.6,.9,3.4v6.3c0,.3,.2,.5,.6,.5h.9c.4,0,.6,.2,.6,.5c0,.4,-.2,.6,-.6,.6H599c-.5,0,-.7,-.2,-.7,-.7Z" class="g8_3"/>
<path d="M606.5,937.1c0,.3,.2,.5,.5,.5h1.5c.4,0,.7,.2,.7,.5c0,.3,-.3,.6,-.7,.6h-5c-.4,0,-.7,-.3,-.7,-.6c0,-.3,.3,-.5,.7,-.5h1.1c.3,0,.5,-.2,.5,-.5V928c0,-.4,-.2,-.5,-.5,-.5h-1.3c-.4,0,-.6,-.2,-.6,-.6c0,-.3,.2,-.5,.6,-.5h1.3c.3,0,.5,-.2,.5,-.5v-.8c0,-1.6,.4,-2.8,1.2,-3.5c.6,-.5,1.7,-.9,2.6,-.9c.6,0,1.6,.2,1.9,.3c.1,.1,.2,.4,.2,.5c0,.2,-.2,.6,-.4,.6q-.1,0,-.4,-.1c-.3,-.1,-.9,-.2,-1.1,-.2c-.8,0,-1.6,.5,-2.1,1.1c-.4,.5,-.5,1.1,-.5,2.3v.7c0,.3,.2,.5,.5,.5h1.9c.4,0,.7,.2,.7,.6c0,.3,-.3,.5,-.7,.5H607c-.3,0,-.5,.1,-.5,.5Z" class="g8_3"/>
<path d="M612,935.3c0,1.6,1.2,2.6,3.2,2.6c1.7,0,2.9,-.6,3.6,-1.8c.4,-.6,.8,-2.2,.8,-3.2c0,-.2,-.1,-.4,-.3,-.4c-.1,-.1,-1.2,-.2,-2.3,-.2c-3.4,0,-5,1,-5,3m7.6,.8c-.9,2.1,-2.3,2.9,-4.7,2.9c-2.7,0,-4.4,-1.4,-4.4,-3.7c0,-1.6,.7,-2.7,2.2,-3.4c.9,-.4,2.3,-.6,4.5,-.6c.5,0,1,0,1.4,0c.2,.1,.4,.1,.5,.1c.3,0,.5,-.2,.5,-.5v-.1c0,-1.7,-.1,-2.2,-.8,-2.9c-.6,-.5,-1.5,-.8,-2.7,-.8c-2.1,0,-3.4,.9,-3.6,2.5c-.1,.4,-.4,.7,-.8,.7c-.4,0,-.7,-.3,-.7,-.8c0,-1,.9,-2.3,2.1,-2.9c.8,-.4,1.8,-.6,3,-.6c1.9,0,3.2,.5,4,1.4c.8,.8,1,1.6,1,3.4v6.3c0,.3,.1,.5,.5,.5h.9c.4,0,.6,.2,.6,.5c0,.4,-.2,.6,-.6,.6h-2.2c-.5,0,-.7,-.2,-.7,-.7Z" class="g8_3"/>
<path d="M627.7,928.9c.2,-.9,.5,-1.3,1,-1.8c.7,-.6,1.8,-1.1,2.9,-1.1c.7,0,1.1,.3,1.1,.7c0,.3,-.2,.5,-.4,.5c-.1,0,-.2,0,-.4,0c-.1,-.1,-.3,-.1,-.4,-.1c-.4,0,-1.3,.3,-1.8,.5c-1.3,.6,-2,2.1,-2,4.2v5.3c0,.3,.1,.5,.5,.5h1.5c.4,0,.7,.2,.7,.5c0,.3,-.3,.6,-.7,.6h-5.1c-.4,0,-.7,-.3,-.7,-.6c0,-.3,.3,-.5,.7,-.5h1.1c.4,0,.5,-.2,.5,-.5V928c0,-.4,-.1,-.5,-.5,-.5h-1.1c-.4,0,-.7,-.2,-.7,-.6c0,-.3,.3,-.5,.7,-.5H627c.5,0,.7,.2,.7,.6Z" class="g8_3"/>
<path d="M637.9,922.5c0,.6,-.5,1.1,-1.1,1.1c-.5,0,-1,-.5,-1,-1.1c0,-.6,.4,-1.1,1,-1.1c.6,0,1.1,.5,1.1,1.1m-.2,14.6c0,.3,.1,.5,.5,.5h.9c.4,0,.7,.2,.7,.5c0,.4,-.3,.6,-.7,.6h-4.5c-.4,0,-.7,-.2,-.7,-.6c0,-.3,.3,-.5,.7,-.5h1.1c.4,0,.5,-.2,.5,-.5V928c0,-.4,-.1,-.5,-.5,-.5h-1.1c-.4,0,-.7,-.2,-.7,-.6c0,-.3,.3,-.5,.7,-.5H637c.5,0,.7,.2,.7,.6Z" class="g8_3"/>
<path d="M575.8,917.9H640v-7H575.8v7Z" class="g8_3"/>
<path d="M588.5,913.2v-.6H586v3.5h2.5v-.5h-1.9v-.9h1.8v-.6h-1.8v-.9Z" class="g0_3"/>
<path d="M590.4,916.1v-3.5h.6v3h1.7v.5Z" class="g0_3"/>
<path d="M593.2,916.1v-3.5h.6v3h1.7v.5Z" class="g0_3"/>
<path d="M589.2,912.6h.6v3.6h-.6v-3.6Z" class="g0_3"/>
<path d="M578.6,913.5c-.2,.2,-.4,.5,-.4,.9c0,.3,.2,.6,.4,.9c.2,.2,.5,.3,.9,.3c.3,0,.7,-.1,.9,-.3c.2,-.3,.4,-.6,.4,-.9c0,-.4,-.2,-.7,-.4,-.9c-.2,-.3,-.6,-.4,-.9,-.4c-.4,0,-.7,.1,-.9,.4m-1,.9c0,-1.1,.9,-1.9,1.9,-1.9c1,0,1.9,.8,1.9,1.9c0,1,-.9,1.8,-1.9,1.8c-1,0,-1.9,-.8,-1.9,-1.8Z" class="g0_3"/>
<path d="M583.2,914.1v-.9h1.2c.2,0,.4,.2,.4,.4c0,.3,-.2,.5,-.4,.5Zm1.5,.5c.4,-.1,.7,-.5,.7,-1c0,-.6,-.4,-1,-1,-1h-1.8v3.5h.6v-1.4h.8l.9,1.4h.7Z" class="g0_3"/>
<path d="M582.2,912.9c0,.3,-.2,.5,-.5,.5c-.2,0,-.4,-.2,-.4,-.5c0,-.2,.2,-.4,.4,-.4c.3,0,.5,.2,.5,.4Z" class="g0_3"/>
<path d="M598.2,912.6h-.8l-.9,1.3l-.9,-1.3h-.7l1.3,1.9v1.6h.6v-1.6Z" class="g0_3"/>
<path d="M599.7,914.1c-.5,0,-.8,-.3,-.8,-.8c0,-.4,.3,-.7,.8,-.7c.4,0,.7,.3,.7,.7c0,.5,-.3,.8,-.7,.8m0,-1.7c-.6,0,-1,.4,-1,.9c0,.6,.4,1,1,1c.5,0,.9,-.4,.9,-1c0,-.5,-.4,-.9,-.9,-.9Z" class="g0_3"/>
<path d="M599.4,913h.4c.1,0,.1,.1,.1,.1c0,.1,0,.2,-.1,.2h-.4Zm.7,.1c0,-.1,-.2,-.2,-.3,-.2h-.5v.9h.1v-.4h.3l.2,.4h.2l-.2,-.4c.1,0,.2,-.1,.2,-.3Z" class="g0_3"/>
<path d="M80.6,936.3c-.2,.2,-.7,.9,-1.4,.9c-.9,0,-1,-.6,-1,-1.1c0,-.9,.6,-1.3,2.4,-1.7Zm2.1,1.1c0,-.1,-.1,-.2,-.1,-.1c-.2,0,-.4,0,-.5,-.1c-.2,-.1,-.2,-.3,-.2,-.7v-3.4c0,-1.3,-.8,-2,-2.4,-2c-1.4,0,-2.5,.6,-2.5,1.5c0,.4,.3,.8,.6,.8c.3,0,.5,-.1,.7,-.3c.4,-.3,.3,-.8,-.1,-1.2c.3,-.3,.7,-.5,1.2,-.5c.8,0,1.2,.5,1.2,1.7v.8c-.2,.1,-.4,.1,-.7,.2c-.7,.2,-1.6,.4,-2.3,.8c-.6,.3,-.8,.8,-.8,1.4c0,.7,.4,1.6,1.7,1.6c.8,0,1.4,-.4,2.1,-1.1c.1,.7,.4,1,1.1,1c.3,0,.6,-.1,.9,-.2c.1,-.1,.2,-.2,.1,-.2Z" class="g9_3"/>
<path d="M97.4,931.4c-.8,0,-1.8,.4,-1.8,3.1c0,2,.7,3,1.9,3c1.2,0,1.7,-.9,1.7,-3c0,-2.1,-.6,-3.1,-1.8,-3.1m0,6.5c-1.8,0,-3.2,-1.5,-3.2,-3.4c0,-1.9,1.4,-3.5,3.2,-3.5c1.9,0,3.3,1.5,3.3,3.4c0,2.2,-1.7,3.5,-3.3,3.5Z" class="g9_3"/>
<g clip-path="url(#c0_3)">
<path d="M65.2,936.5V934h.9c1.4,0,2.5,-.3,3.2,-.9c.8,-.6,.9,-1.4,.9,-1.9c0,-2.3,-2.2,-2.7,-4,-2.7H62.5q-.1,0,-.1,.1c0,.1,0,.2,.1,.2c.3,.1,1.2,-.1,1.2,.9v6.8c0,.5,-.2,.9,-1.2,1c-.1,0,-.2,0,-.2,.1c0,.1,.1,.2,.2,.2h4c0,0,.1,-.1,.1,-.2q0,-.1,-.1,-.1c-1.1,-.1,-1.3,-.5,-1.3,-1V934m3.4,-2.8c0,1.5,-.4,2.4,-2.4,2.4h-1v-4.8h1.1c2,0,2.3,1.2,2.3,2.4Z" class="g9_3"/>
</g>
<path d="M71.6,933.6c.1,-1.4,.7,-2.2,1.5,-2.2c.5,0,.8,.1,1,.4c.3,.3,.5,.9,.4,1.8ZM73.2,931c-1.7,0,-3.1,1.6,-3.1,3.5c0,2,1.3,3.4,3.1,3.4c1.6,0,2.3,-.9,2.7,-1.6c.1,-.1,0,-.2,0,-.2c-.1,-.1,-.2,-.1,-.2,0c-.6,.7,-1.1,1.1,-1.9,1.1c-1.1,0,-2.3,-.7,-2.3,-2.8c0,-.1,0,-.2,0,-.4H76c0,-.9,-.2,-1.6,-.7,-2.2c-.5,-.5,-1.2,-.8,-2.1,-.8Z" class="g9_3"/>
<path d="M91.4,933.7v0c-1.2,-.4,-1.7,-.7,-1.7,-1.2c0,-.6,.5,-1.1,1.2,-1.1c.8,0,1.1,.4,2,1.8H93c.1,0,.1,-.1,.1,-.1v-2q0,-.1,0,-.1H93c-.1,0,-.1,.1,-.1,.1l-.3,.3c-.3,-.2,-.9,-.4,-1.4,-.4c-1.4,0,-2.4,.9,-2.4,2.1c0,1.1,.8,1.6,2.1,1.9c1.3,.4,1.7,.7,1.7,1.4c0,.8,-.7,1.1,-1.2,1.1c-1,0,-1.4,-.4,-2.3,-2h-.2c0,0,-.1,0,-.1,.1v2.3H89c0,0,.1,0,.1,-.1l.4,-.4c.5,.3,1.2,.5,1.7,.5c.7,0,1.3,-.2,1.7,-.7c.4,-.4,.6,-.9,.6,-1.5c0,-1,-.6,-1.6,-2.1,-2Z" class="g9_3"/>
<path d="M84.1,937c0,.3,0,.4,-.6,.5q-.1,0,-.1,.1c0,.1,0,.2,.1,.2h2.7c.1,0,.2,-.1,.2,-.2c0,-.1,-.1,-.1,-.2,-.1c-.6,-.1,-.7,-.2,-.7,-.5v-4c.4,-.7,.7,-1.1,1.3,-1.3c-.1,.1,-.1,.3,-.1,.3c0,.5,.4,.9,.8,.9c.5,0,.8,-.4,.8,-.9c0,-.4,-.2,-.9,-1,-.9c-.7,0,-1.3,.3,-1.9,1.2v-1c0,-.1,-.1,-.2,-.2,-.2l-1.7,.1q-.1,0,-.1,.1c0,.1,0,.2,.1,.2c.6,.1,.6,.4,.6,.6Z" class="g9_3"/>
<g clip-path="url(#c0_3)">
<path d="M102.9,931.1q.1,0,.1,.1q.1,0,.1,.1v1.1c0,0,.5,-1.3,2.3,-1.3h.1c1.1,0,1.7,.7,1.7,2V937c0,.3,.1,.4,.7,.5c0,0,.1,0,.1,.1c0,.1,-.1,.2,-.1,.2h-2.5c-.1,0,-.1,-.1,-.1,-.2q0,-.1,.1,-.1c.4,-.1,.5,-.2,.5,-.5v-3.6c0,-1.1,-.3,-1.6,-1.2,-1.6c-.5,0,-1,.5,-1.3,.9c0,0,-.2,.2,-.3,.6V937c0,.3,.1,.4,.5,.5q.1,0,.1,.1c0,.1,0,.2,-.1,.2h-2.4c-.1,0,-.2,-.1,-.2,-.2c0,-.1,.1,-.1,.1,-.1c.6,-.1,.7,-.2,.7,-.5v-4.9c0,-.2,-.1,-.5,-.7,-.6c0,0,-.1,-.1,-.1,-.2c0,-.1,.1,-.1,.2,-.1Z" class="g9_3"/>
</g>
<path d="M90.3,907c4.3,2.5,5.3,8,2.3,13.5c-2.6,4.9,-8.3,7,-12.6,4.5c-4.3,-2.5,-5.1,-9.4,-3.3,-13.4c2.7,-5.8,8.9,-7.3,13.6,-4.6Z" class="ga_3"/>
<path d="M84.8,921.5c-.1,-.1,-.3,-.2,-.4,-.2q-.1,0,-.2,0c-.3,0,-.5,.1,-.7,.4c-.2,.2,-.2,.5,-.2,.7c0,.2,.1,.3,.2,.4c.1,.1,.2,.2,.4,.3c.1,0,.2,0,.4,0c.2,0,.4,-.1,.6,-.2c.2,-.2,.3,-.4,.3,-.6c0,-.3,-.2,-.6,-.4,-.8m5.4,-10.3c.9,.9,1.1,2.3,1,3.4c-.2,1.3,-1,2.5,-2.2,3.2c-1.1,.7,-2.4,.9,-3.7,.9c0,.2,-.1,1,-.1,1.1c0,.1,-.1,.2,-.1,.3c-.2,.2,-.4,.3,-.7,.4c-.2,0,-.4,.1,-.5,.1h-.1c-.1,0,-.3,-.1,-.4,-.2c-.1,-.1,-.1,-.3,-.1,-.4v-.2c-.1,-.1,-.2,-6.3,-.2,-6.2c0,-.7,1.2,-.8,1.9,-.7c.6,.1,.5,.9,.4,1.9c0,0,0,1.3,0,2.6c.8,0,1.4,-.3,2.1,-.6c1.2,-.6,1.9,-1.5,1.9,-2.9c0,-1.4,-1.4,-3,-3.9,-3c-2.5,0,-3.6,.7,-4.8,1.7c-.3,.2,-.5,.4,-.7,.6c-.2,.1,-.7,.1,-.8,-.2c-.2,-.4,.1,-.9,.3,-1.1c.3,-.4,1,-1.1,1.8,-1.5c.9,-.5,2.1,-1,3.6,-1.1c1.5,0,3.7,.1,5.3,1.9Z" class="g0_3"/>
</svg>