<?xml version="1.0" encoding="UTF-8" standalone="no"?>
<!DOCTYPE svg PUBLIC "-//W3C//DTD SVG 1.1//EN"
"http://www.w3.org/Graphics/SVG/1.1/DTD/svg11.dtd">
<svg viewBox="0 0 742 976" version="1.1" xmlns="http://www.w3.org/2000/svg" xmlns:xlink="http://www.w3.org/1999/xlink">
<defs>
<style type="text/css"><![CDATA[
.g0_236{
fill: #FFFFFF;
}
.g1_236{
}
.g2_236{
fill: #C72828;
}
.g3_236{
fill: #454546;
}
.g4_236{
fill: #1E1B1D;
}
.g5_236{
fill: #008FB4;
}
.g6_236{
fill: #2D4245;
}
.g7_236{
fill: #F36F21;
}
.g8_236{
fill: none;
stroke: #002A4E;
stroke-width: 1.527;
stroke-linecap: butt;
stroke-linejoin: miter;
}
.g9_236{
fill: none;
stroke: #2D4245;
stroke-width: 1.527;
stroke-linecap: butt;
stroke-linejoin: miter;
}
.ga_236{
fill: none;
stroke: #FFFFFF;
stroke-width: 1.527;
stroke-linecap: butt;
stroke-linejoin: miter;
}
]]></style>
</defs>
<image preserveAspectRatio="none" x="-41" y="-39" width="825" height="191" xlink:href="img/1.png"/>
<image preserveAspectRatio="none" x="-41" y="-21" width="303" height="225" xlink:href="img/2.png"/>
<path d="M716.4,936.5c-3.9,0,-7.3,3.4,-7.3,7.4c0,4.6,3.1,7.9,7.4,7.9c4,0,7.3,-3.5,7.3,-7.9c0,-4.1,-3.3,-7.4,-7.4,-7.4m.1,13.4c-3.4,0,-4.7,-3.5,-4.7,-5.9c0,-2.2,1.3,-5.6,4.6,-5.6c3.2,0,4.7,3.2,4.7,5.5c0,3,-1.6,6,-4.6,6M647,936.5c2.6,0,5.4,1.2,5.4,4.4c0,3.1,-3.1,5,-6.2,5c0,-.5,0,-1.1,0,-1.6c2.4,-.2,3.6,-1.4,3.6,-3.3c0,-1.6,-1.3,-2.8,-3.2,-2.8H645c0,4.8,.1,11.7,.3,13.4c-1,-.2,-1.9,-.2,-2.9,0c.2,-2.1,.4,-13.1,0,-15.1c0,0,1.9,.1,2.3,.1c.6,-.1,1.8,-.1,2.3,-.1m24.8,.1c-.7,3,-3.9,11.4,-5.4,15c1,-.1,2.1,-.1,2.5,0c.5,-1.6,1.1,-3.5,1.3,-4.2c1.6,-.2,3.4,-.2,5.3,0c.6,1.5,.9,2.5,1.4,4.2c1,-.1,1.9,-.1,3,0c-1.5,-3.6,-5,-12.8,-5.5,-15c-.8,.1,-1.8,.1,-2.6,0m-1,8.7c0,0,1.5,-4.2,1.9,-5.7c0,0,1.5,4.2,2.1,5.7c-1.6,.2,-2.4,.2,-4,0m-12.5,4.4c1.6,.1,5.4,-.1,5.4,-.1c0,1.6,-.1,2.1,-.1,2.1c-1.4,-.2,-5.7,-.3,-8,0c.4,-3.7,.3,-11.2,.1,-15.1c2.1,.1,6.1,.1,7.8,0v2.1c-1.4,-.2,-3.8,-.3,-5.1,-.3c0,0,-.1,3.5,0,4.4c2.4,.2,4.1,-.1,4.9,-.1v2.1c0,0,-2.8,-.3,-4.9,-.1c-.1,1.4,-.1,3.5,-.1,5m81.1,1.6c0,0,0,.3,0,.3c-.6,-.1,-1.6,-.1,-2.2,0c-1.2,-1.8,-5.9,-8.2,-7.8,-10.6c-.1,3.5,-.1,8.8,.1,10.6c-.3,0,-.7,0,-.9,0c-.6,0,-.9,-.1,-1.5,0c.3,-1.8,.4,-13,0,-15c.9,.1,1.7,.1,1.9,.1c.2,-.1,.4,-.1,.4,-.1c0,0,5,6.8,7.7,10.4c0,-1.4,.1,-8.1,-.2,-10.4c.4,0,.8,.2,1.3,.2c.4,0,.8,-.1,1.2,-.2c-.4,2.8,-.5,12.6,0,14.7M692.5,940.6c0,2.4,-1.6,3.8,-3.2,4.1c1.1,1.5,5.3,6.9,5.3,6.9c-1.1,-.1,-2.6,-.1,-3.4,0c-1.3,-2.1,-3.5,-5.2,-4.4,-6.3c0,-.6,0,-1,0,-1.6c2.6,.1,3.1,-1.7,3.1,-2.9c0,-1.6,-1.5,-2.4,-2.9,-2.4h-1.3c-.1,2.9,.1,9.9,.3,13.2c-1,-.1,-2.1,-.1,-2.9,0c.3,-2.4,.2,-13.4,0,-15c0,0,1.5,.1,2.2,0c.6,0,1.2,0,2,0c1.5,0,5.2,.4,5.2,4m10.6,2.5c1.7,1,2.9,2,2.9,4.2c0,3.3,-2.5,4.4,-4.7,4.4c-1.7,0,-3.6,-.9,-4.5,-1.6c.3,-.7,.7,-1.3,.9,-2.2c1,1,2.5,1.8,3.5,1.8c1.4,0,2.2,-.7,2.2,-2c0,-.9,-.6,-1.6,-1.5,-2.3c-.6,-.5,-2.1,-1.5,-2.5,-1.8c-1.2,-1,-2,-1.8,-2,-3.4c0,-2.1,1.9,-3.7,4.4,-3.7c1.3,0,2.5,.4,3.9,1.4c-.3,.5,-.8,1.3,-1.1,2.1c-.6,-.8,-1.5,-1.6,-2.7,-1.6c-1.2,0,-1.9,.7,-1.9,1.8c0,.3,.2,.7,.8,1.2c.5,.5,1.2,1,2.3,1.7Z" class="g0_236"/>
<path d="M408.3,911.7c-.4,-1,-1.1,-1.8,-2.2,-2.5c-1.1,-.6,-2.4,-1,-3.9,-1c-1.5,0,-2.8,.4,-3.9,1c-1,.7,-1.7,1.4,-2.1,2.2c-.3,.9,-.5,2.1,-.5,3.7v5.5c0,1.8,.2,3.3,.6,4.3c.4,1,1.1,1.8,2.1,2.3c.9,.6,2.3,.9,3.9,.9c1.3,0,2.4,-.2,3.2,-.6c.9,-.4,1.6,-1,2.2,-1.8c.5,-.9,.8,-1.6,.9,-2.4c.1,-.8,.2,-1.9,.2,-3.4h-5.2v2.2c0,1,-.1,1.7,-.2,2.1c-.1,.3,-.4,.5,-.8,.5c-.3,0,-.6,-.2,-.8,-.5c-.1,-.4,-.2,-.9,-.2,-1.6v-9c0,-.8,0,-1.4,.1,-1.6c.2,-.2,.4,-.4,.7,-.4c.4,0,.6,.2,.7,.4c.1,.3,.2,.8,.2,1.6v2.2h5.5c0,-1.8,-.2,-3.2,-.5,-4.1m15.1,.6c-.2,-.7,-.6,-1.3,-1.1,-1.9c-.5,-.7,-1.2,-1.2,-2.2,-1.6c-.9,-.4,-2,-.6,-3.3,-.6c-1.6,0,-2.9,.4,-3.9,1c-1,.6,-1.6,1.4,-2,2.4c-.4,1,-.6,2.4,-.6,4.1v4.9c0,1.7,.1,2.9,.3,3.7c.2,.8,.6,1.5,1.1,2.1c.5,.5,1.2,1,2.1,1.3c.8,.2,1.9,.4,3.2,.4c1.2,0,2.2,-.2,3.1,-.5c.9,-.3,1.6,-.9,2.2,-1.6c.5,-.7,.9,-1.4,1.1,-2.2c.2,-.8,.2,-2.1,.2,-3.8v-4.7c0,-1.3,0,-2.3,-.2,-3m-5.6,10.4c0,.8,0,1.4,-.1,1.6c-.2,.3,-.4,.4,-.7,.4c-.4,0,-.6,-.1,-.7,-.4c-.1,-.3,-.2,-.9,-.2,-1.8v-8.6c0,-1,.1,-1.6,.2,-1.9c.1,-.2,.3,-.4,.7,-.4c.3,0,.6,.2,.7,.4c.1,.3,.1,.9,.1,1.9Zm7.6,-14.1v19.1h5.7V914.5c0,-1,0,-1.6,0,-1.8c0,-.3,.1,-.6,.3,-.8c.2,-.2,.4,-.3,.7,-.3c.4,0,.6,.2,.7,.6c.1,.4,.2,1.5,.2,3.4v12.1h5.6V915.3c0,-1.7,.1,-2.7,.2,-3.1c.1,-.4,.4,-.6,.8,-.6c.4,0,.7,.2,.8,.6c.1,.4,.1,1.4,.1,3.1v12.4h5.7V914.1c0,-1.5,-.1,-2.7,-.3,-3.4c-.2,-.7,-.6,-1.2,-1.2,-1.7c-.7,-.5,-1.5,-.8,-2.5,-.8c-.7,0,-1.4,.2,-2,.6c-.6,.4,-1.2,.9,-1.7,1.6c-.9,-1.4,-2.1,-2.2,-3.7,-2.2c-.8,0,-1.5,.2,-2.1,.6c-.6,.4,-1.2,.9,-1.6,1.6l.1,-1.8Z" class="g1_236"/>
<path d="M372,927.7h5.1V908.1H372v19.6Zm6.5,-19.6V912h3.1v15.7h5.1V912h3v-3.9Zm10.9,19.6h4.4V923h-4.4v4.7Z" class="g2_236"/>
<path d="M289,907.4h6v-3h-6v3Zm0,20.3h6V908.6h-6v19.1Zm8.4,-19.1v19.1h5.8V914.8c0,-1.4,.1,-2.3,.2,-2.7c.1,-.3,.3,-.5,.7,-.5c.4,0,.7,.2,.8,.5c.1,.3,.1,1.1,.1,2.4v13.2h5.8V914.3c0,-1.7,-.1,-2.8,-.2,-3.6c-.2,-.7,-.6,-1.3,-1.3,-1.7c-.6,-.5,-1.4,-.8,-2.4,-.8c-.8,0,-1.5,.2,-2.1,.6c-.7,.3,-1.2,.9,-1.6,1.6l.1,-1.8Zm21,-4.2c-1.3,0,-2.2,.1,-2.9,.2c-.6,.2,-1,.5,-1.4,.8c-.3,.3,-.5,.7,-.6,1.1c-.1,.5,-.2,1.3,-.2,2.6h-1.2v3h1.2v15.6h5.9V912.1h1.4v-3h-2.5v-.6c0,-.6,.1,-.9,.3,-1c.2,-.1,1,-.2,2.2,-.2v-2.9Zm16.5,7.9c-.2,-.7,-.6,-1.3,-1.1,-1.9c-.5,-.7,-1.2,-1.2,-2.2,-1.6c-.9,-.4,-2,-.6,-3.3,-.6c-1.6,0,-2.9,.4,-3.9,1c-1,.6,-1.7,1.4,-2,2.4c-.4,1,-.6,2.4,-.6,4.1v4.9c0,1.7,.1,2.9,.3,3.7c.2,.8,.6,1.5,1.1,2.1c.5,.5,1.2,1,2,1.3c.9,.2,2,.4,3.3,.4c1.2,0,2.2,-.2,3.1,-.5c.9,-.3,1.6,-.9,2.2,-1.6c.5,-.7,.9,-1.4,1.1,-2.2c.2,-.8,.2,-2.1,.2,-3.8v-4.7c0,-1.3,-.1,-2.3,-.2,-3m-5.6,10.4c0,.8,0,1.4,-.1,1.6c-.2,.3,-.4,.4,-.7,.4c-.4,0,-.6,-.1,-.7,-.4c-.1,-.3,-.2,-.9,-.2,-1.8v-8.6c0,-1,.1,-1.6,.2,-1.9c.1,-.2,.3,-.4,.7,-.4c.3,0,.6,.2,.7,.4c.1,.3,.1,.9,.1,1.9Zm8.1,-14.1v19.1h5.8v-7.5c0,-1.9,0,-3.1,.2,-3.6c.1,-.5,.4,-.9,.9,-1.2c.5,-.3,1.3,-.4,2.3,-.4v-6.8c-1.6,.2,-2.8,1.1,-3.6,2.9l.2,-2.5Zm10.8,0v19.1h5.7V914.5c0,-1,0,-1.6,0,-1.8c0,-.3,.1,-.6,.3,-.8c.2,-.2,.4,-.3,.7,-.3c.4,0,.6,.2,.7,.6c.1,.4,.2,1.5,.2,3.4v12.1h5.6V915.3c0,-1.7,.1,-2.7,.2,-3.1c.1,-.4,.4,-.6,.8,-.6c.4,0,.7,.2,.8,.6c.1,.4,.1,1.4,.1,3.1v12.4H369V914.1c0,-1.5,-.1,-2.7,-.3,-3.4c-.2,-.7,-.6,-1.2,-1.2,-1.7c-.7,-.5,-1.5,-.8,-2.5,-.8c-.7,0,-1.4,.2,-2,.6c-.6,.4,-1.2,.9,-1.7,1.6c-.9,-1.4,-2.1,-2.2,-3.7,-2.2c-.8,0,-1.5,.2,-2.1,.6c-.6,.4,-1.2,.9,-1.6,1.6l.1,-1.8Z" class="g1_236"/>
<path d="M290.4,935v.7h-.9v2.9q0,.1,0,.2c.1,0,.1,.1,.1,.1c.1,0,.1,.1,.2,.1c.1,0,.2,0,.3,0h.3v.7h-.5c-.2,0,-.4,0,-.5,-.1c-.2,0,-.3,0,-.4,-.1c-.1,-.1,-.1,-.2,-.2,-.3c0,-.2,0,-.3,0,-.6v-2.9H288V935h.8v-1.4h.7V935Z" class="g3_236"/>
<path d="M292.2,933.2v2.5c0,-.2,.1,-.3,.2,-.4c.1,-.1,.3,-.2,.4,-.2c.1,-.1,.3,-.1,.4,-.2c.2,0,.3,0,.4,0c.4,0,.6,0,.8,.1c.2,.1,.4,.2,.5,.4c.1,.1,.2,.3,.3,.5c0,.2,.1,.4,.1,.7v3.1h-.8v-3.2c0,-.3,-.1,-.5,-.3,-.7c-.1,-.1,-.4,-.2,-.7,-.2c-.2,0,-.4,0,-.6,.1c-.1,0,-.3,.1,-.4,.3c-.1,.1,-.2,.3,-.3,.4c0,.2,0,.4,0,.6v2.7h-.8v-6.5Z" class="g3_236"/>
<path d="M299.8,939.4c-.3,.2,-.8,.4,-1.3,.4c-.4,0,-.7,-.1,-1,-.2c-.3,-.1,-.5,-.3,-.7,-.5c-.2,-.2,-.3,-.5,-.4,-.8c-.1,-.3,-.1,-.6,-.1,-1c0,-.3,0,-.7,.1,-1c.1,-.3,.3,-.5,.5,-.7c.2,-.2,.4,-.4,.7,-.5c.2,-.2,.5,-.2,.8,-.2c.5,0,.8,.1,1.1,.2c.3,.2,.5,.4,.6,.7c.2,.3,.3,.6,.4,.9c0,.3,.1,.6,.1,.9h-3.5c0,.2,0,.4,0,.5c.1,.2,.2,.4,.3,.5c.1,.2,.3,.3,.5,.4c.1,.1,.4,.1,.6,.1c.3,0,.6,-.1,.8,-.2c.2,-.2,.4,-.4,.4,-.7h.8c-.1,.5,-.3,.9,-.7,1.2m-.2,-3c0,-.2,-.1,-.3,-.3,-.5c-.1,-.1,-.2,-.2,-.4,-.2c-.1,-.1,-.3,-.1,-.5,-.1c-.2,0,-.4,0,-.5,.1c-.2,0,-.3,.1,-.4,.3c-.2,.1,-.3,.2,-.3,.4c-.1,.1,-.1,.3,-.1,.5h2.7c-.1,-.2,-.1,-.4,-.2,-.5Z" class="g3_236"/>
<path d="M306,935v.7h-.9v2.9q0,.1,0,.2c.1,0,.1,.1,.1,.1c.1,0,.1,.1,.2,.1c.1,0,.2,0,.3,0h.3v.7h-.5c-.2,0,-.4,0,-.5,-.1c-.2,0,-.3,0,-.4,-.1c-.1,-.1,-.1,-.2,-.2,-.3c0,-.2,0,-.3,0,-.6v-2.9h-.8V935h.8v-1.4h.7V935Z" class="g3_236"/>
<path d="M307.7,935v1c.2,-.4,.4,-.7,.7,-.9c.3,-.1,.6,-.2,1,-.2v.8c-.3,0,-.5,0,-.8,.1c-.2,.1,-.4,.2,-.5,.4c-.1,.2,-.2,.4,-.3,.6c0,.2,-.1,.5,-.1,.8v2.1H307V935Z" class="g3_236"/>
<path d="M313.2,939.7v-.8c-.1,.3,-.4,.5,-.6,.7c-.3,.1,-.6,.2,-.9,.2c-.3,0,-.6,-.1,-.8,-.2c-.2,0,-.3,-.2,-.5,-.3c-.1,-.2,-.2,-.3,-.2,-.5c-.1,-.2,-.1,-.5,-.1,-.7V935h.8v3.2c0,.2,0,.5,.2,.6c.2,.2,.4,.3,.7,.3c.2,0,.4,0,.6,-.1c.2,-.1,.3,-.2,.4,-.3c.2,-.1,.2,-.3,.3,-.5c.1,-.2,.1,-.4,.1,-.6V935h.8v4.7Z" class="g3_236"/>
<path d="M315.8,938.6c.1,.1,.2,.2,.3,.3c.1,.1,.2,.1,.4,.2c.1,0,.3,0,.4,0c.2,0,.3,0,.4,0c.1,0,.3,-.1,.4,-.1c.1,-.1,.2,-.1,.3,-.2c0,-.1,.1,-.3,.1,-.4c0,-.2,-.1,-.3,-.3,-.4c-.1,-.2,-.3,-.2,-.5,-.3c-.3,-.1,-.5,-.1,-.8,-.2c-.2,0,-.5,-.1,-.7,-.2c-.2,-.1,-.4,-.2,-.6,-.4c-.1,-.1,-.2,-.4,-.2,-.7c0,-.2,.1,-.4,.2,-.6c.1,-.2,.2,-.3,.4,-.4c.1,-.1,.3,-.2,.5,-.2c.2,-.1,.4,-.1,.6,-.1c.3,0,.6,0,.8,.1c.2,0,.4,.1,.6,.2c.1,.1,.3,.3,.4,.4c.1,.2,.1,.5,.2,.8h-.8c0,-.2,-.1,-.3,-.1,-.4c-.1,-.1,-.2,-.2,-.3,-.3c-.1,0,-.2,-.1,-.3,-.1c-.1,0,-.3,0,-.4,0c-.1,0,-.2,0,-.3,0c-.2,0,-.3,0,-.4,.1c-.1,0,-.1,.1,-.2,.2c-.1,0,-.1,.1,-.1,.3c0,.1,.1,.2,.2,.3c.1,.1,.2,.2,.3,.2c.2,.1,.3,.1,.5,.2c.2,0,.4,0,.5,.1c.2,0,.4,.1,.6,.1c.2,.1,.4,.2,.5,.3c.1,.1,.3,.2,.3,.3c.1,.2,.2,.4,.2,.6c0,.3,-.1,.5,-.2,.7c-.1,.2,-.3,.3,-.5,.5c-.2,.1,-.4,.2,-.6,.2c-.2,0,-.5,.1,-.7,.1c-.3,0,-.5,-.1,-.8,-.1c-.2,-.1,-.4,-.2,-.6,-.3c-.2,-.1,-.3,-.3,-.4,-.5c-.1,-.2,-.2,-.4,-.2,-.7h.8c0,.2,0,.3,.1,.4Z" class="g3_236"/>
<path d="M321.8,935v.7h-.9v2.9q0,.1,0,.2c0,0,0,.1,.1,.1c0,0,.1,.1,.2,.1c0,0,.1,0,.3,0h.3v.7h-.6c-.2,0,-.3,0,-.5,-.1c-.1,0,-.2,0,-.3,-.1c-.1,-.1,-.2,-.2,-.2,-.3c-.1,-.2,-.1,-.3,-.1,-.6v-2.9h-.8V935h.8v-1.4h.8V935Z" class="g3_236"/>
<path d="M326.1,939.4c-.4,.2,-.8,.4,-1.4,.4c-.3,0,-.7,-.1,-.9,-.2c-.3,-.1,-.5,-.3,-.7,-.5c-.2,-.2,-.4,-.5,-.4,-.8c-.1,-.3,-.2,-.6,-.2,-1c0,-.3,.1,-.7,.2,-1c.1,-.3,.2,-.5,.4,-.7c.2,-.2,.4,-.4,.7,-.5c.3,-.2,.6,-.2,.9,-.2c.4,0,.8,.1,1,.2c.3,.2,.5,.4,.7,.7c.2,.3,.3,.6,.3,.9c.1,.3,.1,.6,.1,.9h-3.5c0,.2,0,.4,.1,.5c0,.2,.1,.4,.2,.5c.2,.2,.3,.3,.5,.4c.2,.1,.4,.1,.7,.1c.3,0,.6,-.1,.8,-.2c.2,-.2,.3,-.4,.4,-.7h.7c-.1,.5,-.3,.9,-.6,1.2m-.2,-3c-.1,-.2,-.2,-.3,-.3,-.5c-.1,-.1,-.3,-.2,-.4,-.2c-.2,-.1,-.4,-.1,-.6,-.1c-.2,0,-.3,0,-.5,.1c-.1,0,-.3,.1,-.4,.3c-.1,.1,-.2,.2,-.3,.4c0,.1,-.1,.3,-.1,.5H326c0,-.2,-.1,-.4,-.1,-.5Z" class="g3_236"/>
<path d="M331.1,939.7V939c-.1,.3,-.3,.5,-.6,.6c-.3,.1,-.6,.2,-.9,.2c-.4,0,-.7,-.1,-1,-.2c-.2,-.2,-.4,-.3,-.6,-.6c-.2,-.2,-.3,-.4,-.4,-.7c-.1,-.3,-.2,-.6,-.2,-1c0,-.3,.1,-.6,.2,-.9c.1,-.3,.2,-.6,.4,-.8c.1,-.2,.4,-.4,.6,-.5c.3,-.1,.6,-.2,1,-.2c.1,0,.2,0,.4,0c.1,0,.2,.1,.4,.1c.1,.1,.2,.2,.4,.3c.1,.1,.2,.2,.3,.3v-2.4h.8v6.5ZM328.3,938c.1,.2,.2,.4,.3,.6c.1,.1,.3,.3,.5,.4c.1,.1,.4,.1,.6,.1c.3,0,.5,-.1,.7,-.2c.1,-.1,.3,-.2,.4,-.4c.1,-.1,.2,-.3,.3,-.5c0,-.2,0,-.4,0,-.7c0,-.2,0,-.4,-.1,-.6c0,-.2,-.1,-.4,-.2,-.6c-.1,-.2,-.3,-.3,-.5,-.4c-.2,-.1,-.4,-.1,-.6,-.1c-.3,0,-.5,0,-.7,.1c-.2,.1,-.3,.3,-.4,.4c-.1,.2,-.2,.4,-.3,.6c0,.2,0,.4,0,.7c0,.2,0,.4,0,.6Z" class="g3_236"/>
<path d="M337.7,935v.7h-.9v2.9q0,.1,0,.2c.1,0,.1,.1,.1,.1c.1,0,.1,.1,.2,.1c.1,0,.2,0,.3,0h.3v.7h-.5c-.2,0,-.4,0,-.6,-.1c-.1,0,-.2,0,-.3,-.1c-.1,-.1,-.1,-.2,-.2,-.3c0,-.2,-.1,-.3,-.1,-.6v-2.9h-.8V935h.8v-1.4h.8V935Z" class="g3_236"/>
<path d="M342,939.4c-.4,.2,-.8,.4,-1.3,.4c-.4,0,-.7,-.1,-1,-.2c-.3,-.1,-.5,-.3,-.7,-.5c-.2,-.2,-.3,-.5,-.4,-.8c-.1,-.3,-.2,-.6,-.2,-1c0,-.3,.1,-.7,.2,-1c.1,-.3,.3,-.5,.4,-.7c.2,-.2,.5,-.4,.7,-.5c.3,-.2,.6,-.2,.9,-.2c.4,0,.8,.1,1.1,.2c.2,.2,.5,.4,.6,.7c.2,.3,.3,.6,.4,.9c0,.3,.1,.6,0,.9h-3.5c0,.2,.1,.4,.1,.5c.1,.2,.2,.4,.3,.5c.1,.2,.3,.3,.4,.4c.2,.1,.4,.1,.7,.1c.3,0,.6,-.1,.8,-.2c.2,-.2,.3,-.4,.4,-.7h.8c-.1,.5,-.4,.9,-.7,1.2m-.2,-3c-.1,-.2,-.2,-.3,-.3,-.5c-.1,-.1,-.2,-.2,-.4,-.2c-.1,-.1,-.3,-.1,-.5,-.1c-.2,0,-.4,0,-.6,.1c-.1,0,-.3,.1,-.4,.3c-.1,.1,-.2,.2,-.2,.4c-.1,.1,-.1,.3,-.2,.5h2.7c0,-.2,0,-.4,-.1,-.5Z" class="g3_236"/>
<path d="M346.4,935.8c-.2,-.2,-.4,-.2,-.8,-.2c-.2,0,-.5,0,-.7,.1c-.1,.1,-.3,.3,-.4,.4c-.1,.2,-.2,.4,-.2,.6c-.1,.2,-.1,.5,-.1,.7c0,.2,0,.4,.1,.6c0,.2,.1,.4,.2,.6c.1,.1,.3,.3,.4,.4c.2,.1,.4,.1,.7,.1c.3,0,.6,-.1,.8,-.3c.3,-.2,.4,-.5,.4,-.8h.8c-.1,.5,-.3,1,-.6,1.3c-.4,.3,-.8,.5,-1.4,.5c-.4,0,-.7,-.1,-1,-.2c-.3,-.1,-.5,-.3,-.7,-.5c-.2,-.2,-.3,-.5,-.4,-.7c-.1,-.3,-.1,-.7,-.1,-1c0,-.4,0,-.7,.1,-1c.1,-.3,.2,-.6,.4,-.8c.2,-.2,.4,-.4,.7,-.5c.3,-.1,.6,-.2,1,-.2c.2,0,.5,0,.7,.1c.3,0,.5,.1,.6,.3c.2,.1,.4,.3,.5,.5c.1,.2,.2,.4,.2,.7h-.8c-.1,-.3,-.2,-.5,-.4,-.7Z" class="g3_236"/>
<path d="M349.3,933.2v2.5h.1c0,-.2,.1,-.3,.2,-.4c.1,-.1,.2,-.2,.4,-.2c.1,-.1,.3,-.1,.4,-.2c.1,0,.3,0,.4,0c.3,0,.6,0,.8,.1c.2,.1,.4,.2,.5,.4c.1,.1,.2,.3,.3,.5c0,.2,0,.4,0,.7v3.1h-.7v-3.2c0,-.3,-.1,-.5,-.3,-.7c-.2,-.1,-.4,-.2,-.7,-.2c-.2,0,-.4,0,-.6,.1c-.2,0,-.3,.1,-.4,.3c-.1,.1,-.2,.3,-.3,.4c0,.2,-.1,.4,-.1,.6v2.7h-.7v-6.5Z" class="g3_236"/>
<path d="M354.4,935v.7c.3,-.5,.9,-.8,1.5,-.8c.4,0,.6,0,.8,.1c.2,.1,.4,.2,.5,.4c.1,.1,.2,.3,.3,.5c0,.2,.1,.4,.1,.7v3.1h-.8v-3.2c0,-.3,-.1,-.5,-.3,-.7c-.1,-.1,-.4,-.2,-.7,-.2c-.2,0,-.4,0,-.6,.1c-.1,0,-.3,.1,-.4,.3c-.1,.1,-.2,.3,-.3,.4c0,.2,0,.4,0,.6v2.7h-.8V935Z" class="g3_236"/>
<path d="M358.7,936.4c.1,-.3,.2,-.6,.4,-.8c.2,-.2,.5,-.4,.7,-.5c.3,-.1,.7,-.2,1,-.2c.4,0,.7,.1,1,.2c.3,.1,.5,.3,.7,.5c.2,.2,.3,.5,.4,.8c.1,.3,.2,.6,.2,.9c0,.4,-.1,.7,-.2,1c-.1,.3,-.2,.5,-.4,.8c-.2,.2,-.4,.4,-.7,.5c-.3,.1,-.6,.2,-1,.2c-.3,0,-.7,-.1,-1,-.2c-.2,-.1,-.5,-.3,-.7,-.5c-.2,-.3,-.3,-.5,-.4,-.8c-.1,-.3,-.2,-.6,-.2,-1c0,-.3,.1,-.6,.2,-.9m.8,1.7c.1,.2,.2,.4,.3,.5c.1,.2,.3,.3,.5,.4c.1,.1,.3,.1,.5,.1c.2,0,.4,0,.6,-.1c.2,-.1,.3,-.2,.4,-.4c.2,-.1,.3,-.3,.4,-.5c0,-.2,.1,-.5,.1,-.8c0,-.2,-.1,-.5,-.1,-.7c-.1,-.2,-.2,-.4,-.4,-.6c-.1,-.1,-.2,-.2,-.4,-.3c-.2,-.1,-.4,-.1,-.6,-.1c-.2,0,-.4,0,-.5,.1c-.2,.1,-.4,.2,-.5,.3c-.1,.2,-.2,.4,-.3,.6c-.1,.2,-.1,.5,-.1,.7c0,.3,0,.6,.1,.8Z" class="g3_236"/>
<path d="M364.1,939.7h.8v-6.5h-.8v6.5Z" class="g3_236"/>
<path d="M366.1,936.4c.1,-.3,.2,-.6,.4,-.8c.2,-.2,.4,-.4,.7,-.5c.3,-.1,.6,-.2,1,-.2c.4,0,.7,.1,1,.2c.3,.1,.5,.3,.7,.5c.2,.2,.3,.5,.4,.8c.1,.3,.2,.6,.2,.9c0,.4,-.1,.7,-.2,1c-.1,.3,-.2,.5,-.4,.8c-.2,.2,-.4,.4,-.7,.5c-.3,.1,-.6,.2,-1,.2c-.4,0,-.7,-.1,-1,-.2c-.3,-.1,-.5,-.3,-.7,-.5c-.2,-.3,-.3,-.5,-.4,-.8c-.1,-.3,-.2,-.6,-.2,-1c0,-.3,.1,-.6,.2,-.9m.8,1.7c0,.2,.1,.4,.3,.5c.1,.2,.2,.3,.4,.4c.2,.1,.4,.1,.6,.1c.2,0,.4,0,.6,-.1c.1,-.1,.3,-.2,.4,-.4c.2,-.1,.3,-.3,.3,-.5c.1,-.2,.1,-.5,.1,-.8c0,-.2,0,-.5,-.1,-.7c0,-.2,-.1,-.4,-.3,-.6c-.1,-.1,-.3,-.2,-.4,-.3c-.2,-.1,-.4,-.1,-.6,-.1c-.2,0,-.4,0,-.6,.1c-.2,.1,-.3,.2,-.4,.3c-.2,.2,-.3,.4,-.3,.6c-.1,.2,-.2,.5,-.2,.7c0,.3,.1,.6,.2,.8Z" class="g3_236"/>
<path d="M375,941c-.4,.4,-.9,.6,-1.7,.6c-.2,0,-.4,-.1,-.6,-.1c-.3,-.1,-.5,-.1,-.7,-.3c-.1,-.1,-.3,-.2,-.4,-.4c-.1,-.1,-.2,-.4,-.2,-.6h.8c0,.1,0,.2,.1,.3c.1,.1,.2,.2,.3,.3c.1,0,.2,.1,.4,.1c.1,0,.2,0,.4,0c.2,0,.4,0,.6,-.1c.2,-.1,.3,-.2,.4,-.3c.2,-.2,.2,-.4,.3,-.6c0,-.2,.1,-.5,.1,-.7v-.3h-.1c-.1,.3,-.3,.5,-.6,.6c-.2,.1,-.5,.2,-.8,.2c-.4,0,-.7,0,-.9,-.2c-.3,-.1,-.5,-.3,-.7,-.5c-.1,-.2,-.3,-.4,-.4,-.7c-.1,-.3,-.1,-.6,-.1,-.9c0,-.3,0,-.6,.1,-.9c.1,-.3,.2,-.6,.4,-.8c.1,-.2,.4,-.4,.6,-.6c.3,-.1,.7,-.2,1.1,-.2c.3,0,.5,.1,.8,.2c.2,.1,.4,.3,.6,.6V935h.7v4.3c0,.7,-.2,1.3,-.5,1.7m-1,-2.1c.2,-.1,.3,-.3,.4,-.4c.1,-.2,.2,-.4,.2,-.6c.1,-.2,.1,-.4,.1,-.7c0,-.2,0,-.4,0,-.6c-.1,-.2,-.2,-.3,-.3,-.5c-.1,-.2,-.2,-.3,-.4,-.4c-.2,-.1,-.4,-.1,-.6,-.1c-.2,0,-.5,0,-.6,.1c-.2,.1,-.4,.2,-.5,.4c-.1,.1,-.2,.3,-.2,.5c-.1,.2,-.1,.4,-.1,.7c0,.2,0,.4,.1,.6c0,.2,.1,.4,.2,.6c.1,.1,.2,.3,.4,.4c.2,.1,.4,.1,.6,.1c.3,0,.5,0,.7,-.1Z" class="g3_236"/>
<path d="M378.3,940.9c-.1,.1,-.2,.2,-.3,.3c-.1,.1,-.2,.2,-.3,.3c-.2,0,-.3,0,-.5,0c-.1,0,-.2,0,-.3,0c0,0,-.1,0,-.2,0v-.8q.1,.1,.2,.1c.1,0,.2,.1,.2,.1c.2,0,.3,-.1,.4,-.2c.1,0,.2,-.1,.3,-.3l.3,-.8L376.2,935h.9l1.4,3.8l1.3,-3.8h.8l-2,5.3c-.1,.2,-.2,.4,-.3,.6Z" class="g3_236"/>
<path d="M384,939.7h.8v-6.5H384v6.5Z" class="g3_236"/>
<path d="M389.3,939.4c-.3,.2,-.7,.4,-1.3,.4c-.3,0,-.7,-.1,-.9,-.2c-.3,-.1,-.5,-.3,-.7,-.5c-.2,-.2,-.4,-.5,-.5,-.8c0,-.3,-.1,-.6,-.1,-1c0,-.3,0,-.7,.2,-1c.1,-.3,.2,-.5,.4,-.7c.2,-.2,.4,-.4,.7,-.5c.3,-.2,.6,-.2,.9,-.2c.4,0,.7,.1,1,.2c.3,.2,.5,.4,.7,.7c.1,.3,.3,.6,.3,.9c.1,.3,.1,.6,.1,.9h-3.5c0,.2,0,.4,.1,.5c0,.2,.1,.4,.2,.5c.2,.2,.3,.3,.5,.4c.2,.1,.4,.1,.7,.1c.3,0,.5,-.1,.8,-.2c.2,-.2,.3,-.4,.4,-.7h.7c-.1,.5,-.3,.9,-.7,1.2m-.1,-3c-.1,-.2,-.2,-.3,-.3,-.5c-.1,-.1,-.3,-.2,-.4,-.2c-.2,-.1,-.4,-.1,-.6,-.1c-.2,0,-.3,0,-.5,.1c-.2,0,-.3,.1,-.4,.3c-.1,.1,-.2,.2,-.3,.4c0,.1,-.1,.3,-.1,.5h2.7c0,-.2,-.1,-.4,-.1,-.5Z" class="g3_236"/>
<path d="M394.6,939.8c-.2,0,-.4,-.1,-.5,-.2c-.1,-.1,-.2,-.3,-.2,-.5c-.2,.2,-.4,.4,-.7,.5c-.3,.1,-.6,.2,-.9,.2c-.2,0,-.4,-.1,-.6,-.1c-.2,0,-.4,-.1,-.5,-.2c-.2,-.1,-.3,-.3,-.3,-.4c-.1,-.2,-.2,-.4,-.2,-.6c0,-.3,.1,-.5,.2,-.7c.1,-.2,.2,-.3,.3,-.4c.2,-.1,.3,-.2,.5,-.2c.2,-.1,.4,-.1,.6,-.2c.2,0,.4,0,.6,-.1c.2,0,.4,0,.5,-.1c.2,0,.3,-.1,.4,-.1c0,-.1,.1,-.2,.1,-.4c0,-.1,0,-.3,-.1,-.4c-.1,-.1,-.2,-.1,-.3,-.2c-.1,-.1,-.2,-.1,-.3,-.1c-.1,0,-.2,0,-.4,0c-.3,0,-.5,0,-.8,.2c-.2,.1,-.3,.3,-.3,.7h-.8c0,-.3,.1,-.6,.2,-.8c.1,-.2,.2,-.3,.4,-.5c.2,-.1,.4,-.2,.7,-.2c.2,-.1,.4,-.1,.7,-.1c.2,0,.4,0,.6,0c.2,.1,.4,.1,.6,.2c.2,.1,.3,.2,.4,.4c.1,.2,.1,.4,.1,.7v2.4c0,.2,.1,.3,.1,.4c0,.1,.1,.1,.2,.1q.1,0,.2,0v.6c-.1,0,-.3,.1,-.5,.1m-1.1,-2.4c-.2,0,-.3,.1,-.5,.1c-.2,0,-.3,0,-.5,.1c-.2,0,-.3,0,-.5,.1c-.1,.1,-.2,.1,-.3,.3c-.1,.1,-.2,.2,-.2,.4c0,.1,.1,.2,.1,.3c.1,.1,.1,.2,.2,.2c.1,.1,.2,.1,.3,.2c.1,0,.2,0,.3,0c.3,0,.5,0,.7,-.1c.2,-.1,.3,-.2,.4,-.3c.2,-.1,.2,-.2,.3,-.3c0,-.1,.1,-.2,.1,-.4v-.7c-.1,0,-.2,.1,-.4,.1Z" class="g3_236"/>
<path d="M396.6,935v1c.2,-.4,.5,-.7,.7,-.9c.3,-.1,.6,-.2,1.1,-.2v.8c-.3,0,-.6,0,-.8,.1c-.2,.1,-.4,.2,-.6,.4c-.1,.2,-.2,.4,-.2,.6c-.1,.2,-.1,.5,-.1,.8v2.1h-.8V935Z" class="g3_236"/>
<path d="M399.9,935v.7c.4,-.5,.9,-.8,1.6,-.8c.3,0,.5,0,.7,.1c.2,.1,.4,.2,.5,.4c.1,.1,.2,.3,.3,.5c0,.2,.1,.4,.1,.7v3.1h-.8v-3.2c0,-.3,-.1,-.5,-.3,-.7c-.1,-.1,-.4,-.2,-.7,-.2c-.2,0,-.4,0,-.6,.1c-.1,0,-.3,.1,-.4,.3c-.1,.1,-.2,.3,-.3,.4c0,.2,0,.4,0,.6v2.7h-.8V935Z" class="g3_236"/>
<path d="M404.4,934.2h.7v-1h-.7v1Zm0,5.5h.7V935h-.7v4.7Z" class="g3_236"/>
<path d="M407.1,935v.7c.4,-.5,.9,-.8,1.6,-.8c.3,0,.5,0,.7,.1c.2,.1,.4,.2,.5,.4c.2,.1,.2,.3,.3,.5c0,.2,.1,.4,.1,.7v3.1h-.8v-3.2c0,-.3,-.1,-.5,-.3,-.7c-.1,-.1,-.4,-.2,-.6,-.2c-.3,0,-.5,0,-.7,.1c-.1,0,-.3,.1,-.4,.3c-.1,.1,-.2,.3,-.2,.4c-.1,.2,-.1,.4,-.1,.6v2.7h-.8V935Z" class="g3_236"/>
<path d="M415,941c-.3,.4,-.9,.6,-1.6,.6c-.2,0,-.5,-.1,-.7,-.1c-.2,-.1,-.4,-.1,-.6,-.3c-.2,-.1,-.3,-.2,-.5,-.4c-.1,-.1,-.1,-.4,-.2,-.6h.8c0,.1,.1,.2,.1,.3c.1,.1,.2,.2,.3,.3c.2,0,.3,.1,.4,.1c.2,0,.3,0,.4,0c.3,0,.5,0,.7,-.1c.1,-.1,.3,-.2,.4,-.3c.1,-.2,.2,-.4,.2,-.6c.1,-.2,.1,-.5,.1,-.7v-.3c-.1,.3,-.3,.5,-.6,.6c-.3,.1,-.5,.2,-.8,.2c-.4,0,-.7,0,-1,-.2c-.2,-.1,-.4,-.3,-.6,-.5c-.2,-.2,-.3,-.4,-.4,-.7c-.1,-.3,-.1,-.6,-.1,-.9c0,-.3,0,-.6,.1,-.9c0,-.3,.2,-.6,.3,-.8c.2,-.2,.4,-.4,.7,-.6c.3,-.1,.6,-.2,1,-.2c.3,0,.6,.1,.8,.2c.3,.1,.5,.3,.6,.6V935h.7v4.3c0,.7,-.1,1.3,-.5,1.7m-1,-2.1c.2,-.1,.4,-.3,.5,-.4c.1,-.2,.2,-.4,.2,-.6c.1,-.2,.1,-.4,.1,-.7c0,-.2,0,-.4,-.1,-.6c0,-.2,-.1,-.3,-.2,-.5c-.1,-.2,-.3,-.3,-.4,-.4c-.2,-.1,-.4,-.1,-.6,-.1c-.3,0,-.5,0,-.7,.1c-.1,.1,-.3,.2,-.4,.4c-.1,.1,-.2,.3,-.2,.5c-.1,.2,-.1,.4,-.1,.7c0,.2,0,.4,0,.6c.1,.2,.2,.4,.3,.6c.1,.1,.2,.3,.4,.4c.1,.1,.3,.1,.6,.1c.3,0,.5,0,.6,-.1Z" class="g3_236"/>
<path d="M420,938.6c.1,.1,.2,.2,.3,.3c.1,.1,.2,.1,.4,.2c.1,0,.3,0,.4,0c.1,0,.3,0,.4,0c.1,0,.3,-.1,.4,-.1c.1,-.1,.2,-.1,.2,-.2c.1,-.1,.2,-.3,.2,-.4c0,-.2,-.1,-.3,-.3,-.4c-.1,-.2,-.3,-.2,-.5,-.3c-.3,-.1,-.5,-.1,-.8,-.2c-.2,0,-.5,-.1,-.7,-.2c-.2,-.1,-.4,-.2,-.6,-.4c-.1,-.1,-.2,-.4,-.2,-.7c0,-.2,.1,-.4,.2,-.6c.1,-.2,.2,-.3,.4,-.4c.1,-.1,.3,-.2,.5,-.2c.2,-.1,.4,-.1,.6,-.1c.3,0,.6,0,.8,.1c.2,0,.4,.1,.6,.2c.1,.1,.3,.3,.4,.4c.1,.2,.1,.5,.2,.8h-.8c0,-.2,-.1,-.3,-.1,-.4c-.1,-.1,-.2,-.2,-.3,-.3c-.1,0,-.2,-.1,-.3,-.1c-.1,0,-.3,0,-.4,0c-.1,0,-.2,0,-.3,0c-.2,0,-.3,0,-.4,.1c-.1,0,-.1,.1,-.2,.2c-.1,0,-.1,.1,-.1,.3c0,.1,.1,.2,.2,.3c0,.1,.2,.2,.3,.2c.2,.1,.3,.1,.5,.2c.2,0,.4,0,.5,.1c.2,0,.4,.1,.6,.1c.2,.1,.4,.2,.5,.3c.1,.1,.3,.2,.3,.3c.1,.2,.2,.4,.2,.6c0,.3,-.1,.5,-.2,.7c-.1,.2,-.3,.3,-.5,.5c-.2,.1,-.4,.2,-.6,.2c-.2,0,-.5,.1,-.7,.1c-.3,0,-.5,-.1,-.8,-.1c-.2,-.1,-.4,-.2,-.6,-.3c-.2,-.1,-.3,-.3,-.4,-.5c-.1,-.2,-.2,-.4,-.2,-.7h.8c0,.2,0,.3,.1,.4Z" class="g3_236"/>
<path d="M423.9,936.4c.1,-.3,.2,-.6,.4,-.8c.2,-.2,.5,-.4,.7,-.5c.3,-.1,.7,-.2,1,-.2c.4,0,.7,.1,1,.2c.3,.1,.5,.3,.7,.5c.2,.2,.4,.5,.4,.8c.1,.3,.2,.6,.2,.9c0,.4,-.1,.7,-.2,1c0,.3,-.2,.5,-.4,.8c-.2,.2,-.4,.4,-.7,.5c-.3,.1,-.6,.2,-1,.2c-.3,0,-.7,-.1,-1,-.2c-.2,-.1,-.5,-.3,-.7,-.5c-.2,-.3,-.3,-.5,-.4,-.8c-.1,-.3,-.1,-.6,-.1,-1c0,-.3,0,-.6,.1,-.9m.8,1.7c.1,.2,.2,.4,.3,.5c.1,.2,.3,.3,.5,.4c.1,.1,.3,.1,.5,.1c.2,0,.4,0,.6,-.1c.2,-.1,.3,-.2,.5,-.4c.1,-.1,.2,-.3,.3,-.5c0,-.2,.1,-.5,.1,-.8c0,-.2,-.1,-.5,-.1,-.7c-.1,-.2,-.2,-.4,-.3,-.6c-.2,-.1,-.3,-.2,-.5,-.3c-.2,-.1,-.4,-.1,-.6,-.1c-.2,0,-.4,0,-.5,.1c-.2,.1,-.4,.2,-.5,.3c-.1,.2,-.2,.4,-.3,.6c-.1,.2,-.1,.5,-.1,.7c0,.3,0,.6,.1,.8Z" class="g3_236"/>
<path d="M432.4,939.7v-.8c-.1,.3,-.4,.5,-.6,.7c-.3,.1,-.6,.2,-.9,.2c-.3,0,-.6,-.1,-.8,-.2c-.2,0,-.3,-.2,-.5,-.3c-.1,-.2,-.2,-.3,-.2,-.5c-.1,-.2,-.1,-.5,-.1,-.7V935h.8v3.2c0,.2,0,.5,.2,.6c.2,.2,.4,.3,.7,.3c.2,0,.4,0,.6,-.1c.2,-.1,.3,-.2,.4,-.3c.2,-.1,.2,-.3,.3,-.5c.1,-.2,.1,-.4,.1,-.6V935h.8v4.7Z" class="g3_236"/>
<path d="M435.1,935v1c.2,-.4,.4,-.7,.7,-.9c.3,-.1,.6,-.2,1,-.2v.8c-.3,0,-.5,0,-.8,.1c-.2,.1,-.3,.2,-.5,.4c-.1,.2,-.2,.4,-.3,.6c0,.2,-.1,.5,-.1,.8v2.1h-.7V935Z" class="g3_236"/>
<path d="M440.1,935.8c-.2,-.2,-.4,-.2,-.7,-.2c-.3,0,-.6,0,-.7,.1c-.2,.1,-.4,.3,-.5,.4c-.1,.2,-.2,.4,-.2,.6c-.1,.2,-.1,.5,-.1,.7c0,.2,0,.4,.1,.6c0,.2,.1,.4,.2,.6c.1,.1,.3,.3,.4,.4c.2,.1,.4,.1,.7,.1c.3,0,.6,-.1,.9,-.3c.2,-.2,.3,-.5,.3,-.8h.8c0,.5,-.3,1,-.6,1.3c-.4,.3,-.8,.5,-1.4,.5c-.4,0,-.7,-.1,-1,-.2c-.2,-.1,-.5,-.3,-.7,-.5c-.1,-.2,-.3,-.5,-.4,-.7c-.1,-.3,-.1,-.7,-.1,-1c0,-.4,0,-.7,.1,-1c.1,-.3,.2,-.6,.4,-.8c.2,-.2,.4,-.4,.7,-.5c.3,-.1,.6,-.2,1,-.2c.3,0,.5,0,.7,.1c.3,0,.5,.1,.7,.3c.1,.1,.3,.3,.4,.5c.1,.2,.2,.4,.2,.7h-.8c0,-.3,-.2,-.5,-.4,-.7Z" class="g3_236"/>
<path d="M445.6,939.4c-.4,.2,-.8,.4,-1.3,.4c-.4,0,-.7,-.1,-1,-.2c-.3,-.1,-.5,-.3,-.7,-.5c-.2,-.2,-.3,-.5,-.4,-.8c-.1,-.3,-.2,-.6,-.2,-1c0,-.3,.1,-.7,.2,-1c.1,-.3,.3,-.5,.4,-.7c.2,-.2,.5,-.4,.7,-.5c.3,-.2,.6,-.2,.9,-.2c.4,0,.8,.1,1.1,.2c.2,.2,.5,.4,.6,.7c.2,.3,.3,.6,.4,.9c0,.3,.1,.6,0,.9h-3.5c0,.2,.1,.4,.1,.5c.1,.2,.2,.4,.3,.5c.1,.2,.3,.3,.4,.4c.2,.1,.4,.1,.7,.1c.3,0,.6,-.1,.8,-.2c.2,-.2,.3,-.4,.4,-.7h.8c-.1,.5,-.4,.9,-.7,1.2m-.2,-3c-.1,-.2,-.2,-.3,-.3,-.5c-.1,-.1,-.2,-.2,-.4,-.2c-.2,-.1,-.3,-.1,-.5,-.1c-.2,0,-.4,0,-.6,.1c-.1,0,-.3,.1,-.4,.3c-.1,.1,-.2,.2,-.2,.4c-.1,.1,-.1,.3,-.2,.5h2.7c0,-.2,0,-.4,-.1,-.5Z" class="g3_236"/>
<image preserveAspectRatio="none" x="625" y="897" width="96" height="42" xlink:href="img/3.png"/>
<path d="M63.9,936.7c-.3,.3,-1.1,1.3,-2,1.3c-1.4,0,-1.6,-.9,-1.6,-1.7c0,-1.3,1,-1.9,3.6,-2.5Zm3.2,1.5c0,-.1,-.1,-.1,-.2,-.1c-.3,.1,-.6,0,-.7,-.1c-.3,-.1,-.4,-.5,-.4,-1v-5.2c0,-2,-1.2,-3,-3.5,-3c-2.1,0,-3.8,1,-3.8,2.3c0,.6,.4,1.1,1,1.2c.4,0,.8,-.1,1,-.4c.5,-.6,.5,-1.2,-.2,-1.9c.4,-.4,1.1,-.6,1.8,-.6c1.3,0,1.8,.7,1.8,2.4v1.3c-.3,.1,-.6,.2,-1.1,.3c-1,.2,-2.3,.5,-3.4,1.1c-.8,.5,-1.2,1.2,-1.2,2.2c0,1,.7,2.3,2.6,2.3c1.2,0,2.1,-.5,3.2,-1.7c.1,1.2,.5,1.6,1.6,1.6c.5,0,.9,-.1,1.4,-.3c.1,-.1,.2,-.2,.1,-.4Z" class="g4_236"/>
<path d="M89.1,929.3c-1.2,0,-2.6,.5,-2.6,4.6c0,3.1,.9,4.6,2.8,4.6c1.8,0,2.6,-1.4,2.6,-4.6c0,-3.1,-.9,-4.6,-2.8,-4.6m.1,9.7c-2.8,0,-4.9,-2.2,-4.9,-5.1c0,-2.8,2.2,-5.1,4.9,-5.1c2.7,0,4.9,2.2,4.9,5c0,3.2,-2.5,5.2,-4.9,5.2Z" class="g4_236"/>
<path d="M40.8,937v-3.7h1.4c2.1,0,3.8,-.5,4.8,-1.4c1.1,-.9,1.4,-2.1,1.4,-2.9c0,-3.4,-3.3,-4.1,-6,-4.1H36.8c-.1,0,-.2,.1,-.2,.2c0,.1,0,.2,.1,.3c.5,.2,1.9,-.1,1.9,1.3V937c0,.7,-.3,1.2,-1.8,1.4c-.2,0,-.3,.1,-.3,.2c0,.2,.1,.3,.3,.3h5.9c.2,0,.3,-.1,.3,-.3c0,-.1,-.1,-.2,-.3,-.2c-1.6,-.2,-1.9,-.7,-1.9,-1.4v-3.7m5.1,-4.4c0,2.4,-.6,3.7,-3.5,3.7H40.8v-7.1h1.6c3.1,0,3.5,1.7,3.5,3.4Z" class="g4_236"/>
<path d="M50.4,932.6c.2,-2.1,1,-3.3,2.3,-3.3c.7,0,1.2,.2,1.5,.6c.5,.5,.7,1.4,.6,2.7Zm2.5,-3.8c-2.6,0,-4.7,2.3,-4.7,5.2c0,2.9,2,5,4.7,5c2.3,0,3.4,-1.4,4,-2.4c.1,-.1,0,-.2,0,-.3h-.1c-.1,-.1,-.2,-.1,-.3,0c-.8,1.1,-1.6,1.7,-2.8,1.7c-1.6,0,-3.4,-1.1,-3.4,-4.2c0,-.2,0,-.4,0,-.5h6.6c0,0,.1,-.1,.1,-.1c.1,-1.3,-.3,-2.4,-1.1,-3.2c-.7,-.8,-1.7,-1.2,-3,-1.2Z" class="g4_236"/>
<path d="M80.1,932.7c-1.8,-.5,-2.5,-1,-2.5,-1.8c0,-.9,.8,-1.6,1.8,-1.6c1.2,0,1.7,.6,2.9,2.7h.2c.1,0,.3,-.1,.3,-.2v-3c0,0,-.1,0,-.1,0h-.2q-.1,0,-.2,0l-.4,.5c-.5,-.3,-1.3,-.5,-2.1,-.5c-2.1,0,-3.5,1.2,-3.5,3.1c0,1.7,1.1,2.3,3.1,2.8c1.9,.6,2.6,1.1,2.6,2.1c0,1.1,-1.1,1.6,-1.9,1.6c-1.4,0,-2.1,-.5,-3.4,-3q-.1,0,-.1,0h-.1c-.2,0,-.3,.1,-.3,.2V939h.3q.1,0,.2,-.1l.6,-.6c.7,.5,1.8,.7,2.5,.7c1.1,0,2,-.3,2.6,-1c.5,-.5,.8,-1.4,.8,-2.3c0,-1.5,-.8,-2.3,-3.1,-3Z" class="g4_236"/>
<path d="M69.3,937.7c0,.5,-.2,.6,-1,.7c-.1,0,-.2,.1,-.2,.2c0,.2,.1,.3,.2,.3h4.1c.1,0,.2,-.1,.2,-.3c0,-.1,-.1,-.2,-.2,-.2c-1,0,-1.2,-.2,-1.2,-.7v-6c.7,-1.1,1.2,-1.7,2,-1.9c-.1,.2,-.1,.3,-.1,.5c0,.7,.5,1.2,1.2,1.2c.7,0,1.2,-.5,1.2,-1.2c0,-.7,-.4,-1.5,-1.6,-1.5c-1,0,-1.9,.5,-2.7,1.9v-1.5c0,-.2,-.2,-.3,-.3,-.3l-2.6,.1c-.1,0,-.2,.1,-.2,.2c0,.1,.1,.2,.2,.2c.8,.2,1,.6,1,1Z" class="g4_236"/>
<path d="M97.4,928.9q.1,0,.2,0q0,.1,0,.2v1.7c0,0,.9,-2,3.6,-2c1.7,0,2.7,1.1,2.7,3v5.8c0,.6,.1,.7,.9,.8c.1,0,.2,.1,.2,.2c0,.1,-.1,.2,-.2,.2h-3.6c-.2,0,-.3,-.1,-.3,-.2c0,-.1,.1,-.2,.2,-.2c.7,-.1,.8,-.2,.8,-.8v-5.3c0,-1.7,-.5,-2.4,-1.8,-2.4c-.8,0,-1.5,.8,-2,1.4c0,0,-.2,.3,-.5,.8l.1,5.5c0,.6,.1,.7,.7,.8c.1,0,.2,.1,.2,.2c0,.1,-.1,.2,-.2,.2H94.8c-.2,0,-.3,-.1,-.3,-.2c0,-.1,.1,-.2,.3,-.2c.8,-.1,.9,-.2,.9,-.8v-7.2c0,-.4,-.1,-.8,-1,-1c-.1,0,-.2,-.1,-.2,-.2c0,-.1,.1,-.2,.3,-.2Z" class="g4_236"/>
<path d="M78.5,892.7c6.5,3.7,8,11.9,3.5,20.3c-4,7.3,-12.6,10.4,-19,6.7C56.6,916,55.4,905.6,58.1,899.6c4,-8.7,13.3,-10.9,20.4,-6.9Z" class="g5_236"/>
<path d="M70.2,914.4c-.2,-.1,-.4,-.2,-.6,-.3c-.1,0,-.2,0,-.2,0c-.5,0,-.9,.2,-1.1,.6c-.3,.3,-.4,.7,-.3,1.1c0,.2,.1,.4,.3,.6c.1,.2,.3,.3,.6,.4c.2,0,.3,.1,.5,.1c.4,0,.7,-.2,.9,-.4c.3,-.2,.5,-.5,.5,-.9c0,-.5,-.2,-.9,-.6,-1.2M78.4,899c1.2,1.4,1.6,3.4,1.4,5.1c-.2,1.9,-1.4,3.7,-3.3,4.9c-1.6,.9,-3.6,1.3,-5.5,1.3c-.1,.3,-.1,1.4,-.2,1.5c0,.3,-.1,.4,-.2,.6c-.2,.3,-.6,.4,-.9,.5c-.3,.1,-.6,.2,-.8,.2q-.1,0,-.1,-.1c-.2,0,-.5,-.1,-.6,-.2c-.2,-.2,-.3,-.4,-.3,-.7v-.2c0,-.1,-.3,-9.4,-.2,-9.3c0,-1.1,1.8,-1.3,2.8,-1.1c1,.2,.7,1.4,.7,2.9c0,0,-.1,1.9,-.1,3.9c1.2,0,2.2,-.4,3.1,-.9c1.9,-.9,2.9,-2.3,2.9,-4.4c0,-2.1,-2.1,-4.4,-5.8,-4.4c-3.8,0,-5.4,.9,-7.2,2.4c-.4,.4,-.7,.7,-1,.9c-.3,.3,-1.1,.3,-1.3,-.2c-.3,-.7,.2,-1.4,.5,-1.7c.4,-.6,1.5,-1.6,2.7,-2.3c1.4,-.7,3.1,-1.5,5.4,-1.5c2.2,-.1,5.5,.1,8,2.8Z" class="g0_236"/>
<path d="M-40.6,199.9v88.2H784.3V83.1Z" class="g6_236"/>
<path d="M727.8,269.8c-4.9,0,-9,-4.1,-9,-9c0,-4.9,4.1,-9,9,-9c4.9,0,9,4.1,9,9c0,4.9,-4.1,9,-9,9m0,-16.2c-4,0,-7.2,3.2,-7.2,7.2c0,4,3.2,7.2,7.2,7.2c4,0,7.2,-3.2,7.2,-7.2c0,-4,-3.2,-7.2,-7.2,-7.2Z" class="g0_236"/>
<path d="M569.9,246.1v17.8c0,1.7,.9,2.3,1.7,2.3h.8v2.5h-1.1c-2.4,0,-4.1,-1.4,-4.1,-4.6v-18Z" class="g0_236"/>
<path d="M576.4,246.4c1.1,0,1.9,.8,1.9,1.9c0,1,-.8,1.8,-1.9,1.8c-1,0,-1.8,-.8,-1.8,-1.8c0,-1.1,.8,-1.9,1.8,-1.9m-1.3,6.8h2.7v15.5h-2.7V253.2Z" class="g0_236"/>
<path d="M593.5,253.2h3.1l-6.7,15.5h-2.5l-6.8,-15.5h3.1l4.9,11.9Z" class="g0_236"/>
<path d="M612.8,265.7c-2.1,2.3,-4.3,3.4,-7,3.4c-5.5,0,-8.4,-4,-8.4,-8.2c0,-4.4,3.1,-8.1,8,-8.1c4.8,0,8.1,3.7,8.1,9.2H600.2c.4,2.6,2.6,4.6,5.6,4.6c1.9,0,3.6,-.9,5,-2.5Zm-2.3,-5.9c-.3,-2.6,-2.4,-4.5,-5.1,-4.5c-3.3,0,-4.9,2.4,-5.2,4.5Z" class="g0_236"/>
<path d="M619,246.1v17.8c0,1.7,.8,2.3,1.7,2.3h.8v2.5h-1.1c-2.5,0,-4.1,-1.4,-4.1,-4.6v-18Z" class="g7_236"/>
<path d="M638.4,265.7c-2.1,2.3,-4.3,3.4,-7,3.4c-5.5,0,-8.4,-4,-8.4,-8.2c0,-4.4,3.1,-8.1,8,-8.1c4.8,0,8.1,3.7,8.1,9.2H625.8c.4,2.6,2.6,4.6,5.6,4.6c1.9,0,3.6,-.9,5,-2.5Zm-2.3,-5.9c-.3,-2.6,-2.4,-4.5,-5.2,-4.5c-3.2,0,-4.8,2.4,-5.1,4.5Z" class="g7_236"/>
<path d="M644.1,264.2c.2,1.6,1.6,2.5,3.2,2.5c2.4,0,3.1,-1.3,3.1,-2.2c0,-1,-.7,-1.7,-2.7,-2.2l-2.8,-.8c-2.2,-.6,-3.1,-2.1,-3.1,-4c0,-2.5,1.9,-4.7,5.5,-4.7c4,0,5.4,2.5,5.4,4.9h-2.5c-.2,-1.8,-1.1,-2.7,-2.9,-2.7c-1.7,0,-2.8,1,-2.8,2.3c0,.8,.4,1.5,1.7,1.8l3.6,1.1c2.5,.7,3.3,2,3.3,4c0,3.2,-2.8,4.9,-5.7,4.9c-3.6,0,-5.7,-2,-5.8,-4.9Z" class="g7_236"/>
<path d="M658.1,264.2c.2,1.6,1.6,2.5,3.3,2.5c2.4,0,3,-1.3,3,-2.2c0,-1,-.6,-1.7,-2.7,-2.2l-2.7,-.8c-2.3,-.6,-3.2,-2.1,-3.2,-4c0,-2.5,2,-4.7,5.6,-4.7c3.9,0,5.3,2.5,5.3,4.9h-2.5c-.2,-1.8,-1.1,-2.7,-2.9,-2.7c-1.7,0,-2.8,1,-2.8,2.3c0,.8,.5,1.5,1.7,1.8l3.7,1.1c2.4,.7,3.2,2,3.2,4c0,3.2,-2.8,4.9,-5.6,4.9c-3.7,0,-5.8,-2,-5.9,-4.9Z" class="g7_236"/>
<path d="M678.1,252.8c4.9,0,8.4,3.8,8.4,8.2c0,4.4,-3.3,8.1,-8.4,8.1c-5.1,0,-8.4,-3.7,-8.4,-8.1c0,-4.4,3.5,-8.2,8.4,-8.2m-5.5,8.2c0,2.9,2.5,5.6,5.5,5.6c3,0,5.5,-2.7,5.5,-5.6c0,-3.3,-2.5,-5.7,-5.5,-5.7c-3,0,-5.5,2.4,-5.5,5.7Z" class="g7_236"/>
<path d="M699.9,259.7c0,-2.3,-1,-4.4,-3.7,-4.4c-2.5,0,-4,1.7,-4,4.7v8.7h-2.7V253.2h2.7V255h.1c.8,-1.4,2.5,-2.2,4.2,-2.2c3.1,0,6,1.7,6,5.9v10h-2.6Z" class="g7_236"/>
<path d="M707.4,264.2c.2,1.6,1.6,2.5,3.3,2.5c2.4,0,3,-1.3,3,-2.2c0,-1,-.6,-1.7,-2.7,-2.2l-2.7,-.8c-2.3,-.6,-3.2,-2.1,-3.2,-4c0,-2.5,2,-4.7,5.6,-4.7c3.9,0,5.3,2.5,5.3,4.9h-2.5c-.2,-1.8,-1.1,-2.7,-2.9,-2.7c-1.7,0,-2.8,1,-2.8,2.3c0,.8,.5,1.5,1.7,1.8l3.7,1.1c2.4,.7,3.2,2,3.2,4c0,3.2,-2.8,4.9,-5.6,4.9c-3.7,0,-5.8,-2,-5.9,-4.9Z" class="g7_236"/>
<path d="M570.9,276.7h.8l-1.9,4.5h-.7l-2,-4.5h.9l1.4,3.5Z" class="g0_236"/>
<path d="M572.8,274.8c.3,0,.5,.2,.5,.5c0,.3,-.2,.6,-.5,.6c-.3,0,-.5,-.3,-.5,-.6c0,-.3,.2,-.5,.5,-.5m-.4,1.9h.8v4.5h-.8v-4.5Z" class="g0_236"/>
<path d="M578.1,274.7h.8v6.5h-.8v-.7c-.3,.5,-.9,.8,-1.6,.8c-1.3,0,-2.4,-1,-2.4,-2.4c0,-1.2,1.1,-2.3,2.3,-2.3c.7,0,1.4,.3,1.7,.9Zm-1.5,2.7c-1.1,0,-1.7,.8,-1.7,1.5c0,1.1,.8,1.7,1.6,1.7c.9,0,1.6,-.7,1.6,-1.6c0,-.9,-.7,-1.6,-1.5,-1.6Z" class="g0_236"/>
<path d="M584.3,280.4c-.6,.6,-1.3,.9,-2,.9c-1.6,0,-2.5,-1.1,-2.5,-2.3c0,-1.3,.9,-2.4,2.3,-2.4c1.4,0,2.4,1.1,2.4,2.7h-3.9c.2,.7,.8,1.3,1.6,1.3c.6,0,1.1,-.3,1.5,-.7Zm-.7,-1.8c-.1,-.7,-.7,-1.2,-1.5,-1.2c-.9,0,-1.4,.6,-1.5,1.2Z" class="g0_236"/>
<path d="M587.6,276.6c1.5,0,2.5,1.1,2.5,2.4c0,1.3,-1,2.3,-2.5,2.3c-1.4,0,-2.4,-1,-2.4,-2.3c0,-1.3,1,-2.4,2.4,-2.4M586,279c0,.8,.8,1.6,1.6,1.6c.9,0,1.6,-.8,1.6,-1.6c0,-.9,-.7,-1.6,-1.6,-1.6c-.8,0,-1.6,.7,-1.6,1.6Z" class="g0_236"/>
<path d="M593.6,274.8c.3,0,.5,.2,.5,.5c0,.3,-.2,.6,-.5,.6c-.3,0,-.6,-.3,-.6,-.6c0,-.3,.3,-.5,.6,-.5m-.4,1.9h.8v4.5h-.8v-4.5Z" class="g0_236"/>
<path d="M598,278.6c0,-.6,-.2,-1.2,-1,-1.2c-.7,0,-1.2,.5,-1.2,1.3v2.5h-.7v-4.5h.7v.6c.3,-.4,.8,-.7,1.3,-.7c.8,0,1.7,.5,1.7,1.7v2.9H598Z" class="g0_236"/>
<path d="M600.3,279.9c.1,.5,.5,.7,.9,.7c.7,0,.9,-.3,.9,-.6c0,-.3,-.2,-.5,-.8,-.6l-.7,-.2c-.7,-.2,-1,-.7,-1,-1.2c0,-.7,.6,-1.4,1.6,-1.4c1.2,0,1.6,.8,1.6,1.4h-.7c-.1,-.5,-.4,-.7,-.9,-.7c-.5,0,-.8,.3,-.8,.6c0,.3,.2,.5,.5,.6l1.1,.3c.7,.2,.9,.6,.9,1.1c0,.9,-.8,1.4,-1.6,1.4c-1.1,0,-1.7,-.5,-1.7,-1.4Z" class="g0_236"/>
<path d="M603.9,275.7h.8v1h.7v.7h-.7v2.8c0,.2,0,.3,.3,.3h.4v.7c-.1,0,-.3,0,-.5,0c-.8,0,-1,-.3,-1,-.9v-2.9h-.6v-.7h.6Z" class="g0_236"/>
<path d="M606.2,276.7h.7v.7c.4,-.7,.8,-.8,1.5,-.8v.9c-.2,-.1,-.3,-.1,-.4,-.1c-.6,0,-1.1,.5,-1.1,1.3v2.5h-.7Z" class="g0_236"/>
<path d="M612,280.7h-.1c-.2,.4,-.7,.6,-1.2,.6c-.9,0,-1.7,-.4,-1.7,-1.7v-2.9h.8v2.7c0,.6,.2,1.2,1,1.2c.7,0,1.2,-.5,1.2,-1.3v-2.6h.7v4.5H612Z" class="g0_236"/>
<path d="M616.9,277.8c-.3,-.3,-.6,-.4,-1,-.4c-.8,0,-1.5,.5,-1.5,1.6c0,.9,.7,1.6,1.6,1.6c.3,0,.7,-.2,1,-.4l.4,.5c-.4,.4,-1,.6,-1.5,.6c-1.4,0,-2.3,-1.1,-2.3,-2.3c0,-1.3,1,-2.4,2.3,-2.4c.7,0,1.2,.3,1.5,.6Z" class="g0_236"/>
<path d="M618.3,275.7h.8v1h.7v.7h-.7v2.8c0,.2,0,.3,.3,.3h.4v.7c-.1,0,-.3,0,-.5,0c-.8,0,-1,-.3,-1,-.9v-2.9h-.6v-.7h.6Z" class="g0_236"/>
<path d="M621,274.8c.3,0,.5,.2,.5,.5c0,.3,-.2,.6,-.5,.6c-.3,0,-.6,-.3,-.6,-.6c0,-.3,.3,-.5,.6,-.5m-.4,1.9h.7v4.5h-.7v-4.5Z" class="g0_236"/>
<path d="M624.8,276.6c1.4,0,2.4,1.1,2.4,2.4c0,1.3,-1,2.3,-2.4,2.3c-1.5,0,-2.4,-1,-2.4,-2.3c0,-1.3,1,-2.4,2.4,-2.4m-1.6,2.4c0,.8,.7,1.6,1.6,1.6c.8,0,1.6,-.8,1.6,-1.6c0,-.9,-.8,-1.6,-1.6,-1.6c-.9,0,-1.6,.7,-1.6,1.6Z" class="g0_236"/>
<path d="M631.2,278.6c0,-.6,-.3,-1.2,-1.1,-1.2c-.7,0,-1.1,.5,-1.1,1.3v2.5h-.8v-4.5h.8v.6c.2,-.4,.7,-.7,1.2,-.7c.9,0,1.7,.5,1.7,1.7v2.9h-.7Z" class="g0_236"/>
<path d="M635.3,276.1c0,-1,.7,-1.4,1.6,-1.5v.8h-.2c-.4,0,-.6,.3,-.6,.7v.6h.7v.7h-.7v3.8h-.8v-3.8h-.7v-.7h.7Z" class="g0_236"/>
<path d="M637.5,276.7h.8v.7c.4,-.7,.8,-.8,1.4,-.8v.9c-.1,-.1,-.2,-.1,-.3,-.1c-.7,0,-1.1,.5,-1.1,1.3v2.5h-.8Z" class="g0_236"/>
<path d="M642.6,276.6c1.4,0,2.4,1.1,2.4,2.4c0,1.3,-1,2.3,-2.4,2.3c-1.5,0,-2.5,-1,-2.5,-2.3c0,-1.3,1,-2.4,2.5,-2.4M641,279c0,.8,.7,1.6,1.6,1.6c.8,0,1.6,-.8,1.6,-1.6c0,-.9,-.8,-1.6,-1.6,-1.6c-.9,0,-1.6,.7,-1.6,1.6Z" class="g0_236"/>
<path d="M651.7,278.5c0,-.8,-.4,-1.1,-.9,-1.1c-.7,0,-1.2,.4,-1.2,1.1v2.7h-.7v-2.7c0,-.8,-.5,-1.1,-1,-1.1c-.7,0,-1.1,.4,-1.1,1.1v2.7H646v-4.5h.8v.6c.2,-.5,.7,-.7,1.2,-.7c.5,0,1,.2,1.3,.8c.3,-.5,.9,-.8,1.5,-.8c1,0,1.7,.6,1.7,1.8v2.8h-.8Z" class="g0_236"/>
<path d="M655.9,275.7h.8v1h.7v.7h-.7v2.8c0,.2,0,.3,.3,.3h.4v.7c-.1,0,-.3,0,-.5,0c-.8,0,-1,-.3,-1,-.9v-2.9h-.6v-.7h.6Z" class="g0_236"/>
<path d="M662.4,280.4c-.6,.6,-1.3,.9,-2.1,.9c-1.6,0,-2.4,-1.1,-2.4,-2.3c0,-1.3,.9,-2.4,2.3,-2.4c1.4,0,2.4,1.1,2.4,2.7h-3.9c.1,.7,.8,1.3,1.6,1.3c.6,0,1.1,-.3,1.5,-.7Zm-.7,-1.8c-.1,-.7,-.7,-1.2,-1.5,-1.2c-.9,0,-1.4,.6,-1.5,1.2Z" class="g0_236"/>
<path d="M666.5,277.8c-.3,-.3,-.6,-.4,-1,-.4c-.8,0,-1.5,.5,-1.5,1.6c0,.9,.7,1.6,1.6,1.6c.3,0,.7,-.2,1,-.4l.4,.5c-.4,.4,-1,.6,-1.5,.6c-1.4,0,-2.3,-1.1,-2.3,-2.3c0,-1.3,1,-2.4,2.3,-2.4c.6,0,1.2,.3,1.5,.6Z" class="g0_236"/>
<path d="M670.7,278.6c0,-.6,-.3,-1.2,-1.1,-1.2c-.7,0,-1.1,.5,-1.1,1.3v2.5h-.8v-6.5h.8v2.6c.2,-.4,.7,-.7,1.2,-.7c.9,0,1.7,.5,1.7,1.7v2.9h-.7Z" class="g0_236"/>
<path d="M675.5,278.6c0,-.6,-.3,-1.2,-1.1,-1.2c-.7,0,-1.1,.5,-1.1,1.3v2.5h-.8v-4.5h.8v.6c.2,-.4,.7,-.7,1.2,-.7c.9,0,1.7,.5,1.7,1.7v2.9h-.7Z" class="g0_236"/>
<path d="M679.6,276.6c1.4,0,2.5,1.1,2.5,2.4c0,1.3,-1,2.3,-2.5,2.3c-1.4,0,-2.4,-1,-2.4,-2.3c0,-1.3,1,-2.4,2.4,-2.4M678,279c0,.8,.8,1.6,1.6,1.6c.9,0,1.6,-.8,1.6,-1.6c0,-.9,-.7,-1.6,-1.6,-1.6c-.8,0,-1.6,.7,-1.6,1.6Z" class="g0_236"/>
<path d="M683.8,274.7v5.1c0,.5,.2,.7,.5,.7h.2v.7h-.3c-.7,0,-1.2,-.4,-1.2,-1.3v-5.2Z" class="g0_236"/>
<path d="M687.3,276.6c1.4,0,2.4,1.1,2.4,2.4c0,1.3,-.9,2.3,-2.4,2.3c-1.5,0,-2.4,-1,-2.4,-2.3c0,-1.3,1,-2.4,2.4,-2.4m-1.6,2.4c0,.8,.7,1.6,1.6,1.6c.9,0,1.6,-.8,1.6,-1.6c0,-.9,-.7,-1.6,-1.6,-1.6c-.9,0,-1.6,.7,-1.6,1.6Z" class="g0_236"/>
<path d="M694.5,276.7h.8v3.9c0,1.7,-.8,2.5,-2.5,2.5c-.8,0,-1.5,-.3,-2.1,-.9l.6,-.5c.5,.6,1,.7,1.5,.7c1.2,0,1.7,-.6,1.7,-1.6v-.3c-.4,.5,-.9,.8,-1.7,.8c-1.5,0,-2.3,-1.3,-2.3,-2.4c0,-1.2,1,-2.3,2.3,-2.3c.6,0,1.3,.3,1.7,.9Zm-1.6,.7c-1,0,-1.6,.8,-1.6,1.5c0,1.1,.8,1.7,1.6,1.7c.9,0,1.6,-.7,1.6,-1.6c0,-.9,-.7,-1.6,-1.6,-1.6Z" class="g0_236"/>
<path d="M697.7,281.2l-1.9,-4.5h.9l1.4,3.5l1.5,-3.5h.8l-2.7,6.4h-.8Z" class="g0_236"/>
<path d="M707.5,280.4c-.6,.6,-1.2,.9,-2,.9c-1.6,0,-2.5,-1.1,-2.5,-2.3c0,-1.3,1,-2.4,2.4,-2.4c1.3,0,2.3,1.1,2.3,2.7h-3.8c.1,.7,.7,1.3,1.6,1.3c.5,0,1,-.3,1.4,-.7Zm-.7,-1.8c-.1,-.7,-.7,-1.2,-1.5,-1.2c-.9,0,-1.4,.6,-1.4,1.2Z" class="g0_236"/>
<path d="M711.5,276.7h1l-1.7,2.2l1.8,2.3h-1.1l-1.3,-1.6l-1.3,1.6h-1l1.8,-2.3L708,276.7h1l1.2,1.7Z" class="g0_236"/>
<path d="M713.2,276.7h.8v.8c.4,-.6,1,-.9,1.7,-.9c1.3,0,2.3,1.1,2.3,2.3c0,1.4,-1.1,2.4,-2.3,2.4c-.8,0,-1.4,-.3,-1.7,-.8v2.6h-.8Zm2.4,.7c-.9,0,-1.6,.7,-1.6,1.6c0,.9,.7,1.6,1.6,1.6c.8,0,1.6,-.6,1.6,-1.7c0,-.7,-.6,-1.5,-1.6,-1.5Z" class="g0_236"/>
<path d="M723.2,280.4c-.6,.6,-1.3,.9,-2.1,.9c-1.5,0,-2.4,-1.1,-2.4,-2.3c0,-1.3,.9,-2.4,2.3,-2.4c1.4,0,2.4,1.1,2.4,2.7h-3.9c.1,.7,.8,1.3,1.6,1.3c.6,0,1.1,-.3,1.5,-.7Zm-.7,-1.8c-.1,-.7,-.7,-1.2,-1.5,-1.2c-.9,0,-1.4,.6,-1.5,1.2Z" class="g0_236"/>
<path d="M724.2,276.7h.8v.7c.4,-.7,.8,-.8,1.4,-.8v.9c-.1,-.1,-.2,-.1,-.3,-.1c-.7,0,-1.1,.5,-1.1,1.3v2.5h-.8Z" class="g0_236"/>
<path d="M727.3,275.7h.7v1h.7v.7H728v2.8c0,.2,.1,.3,.4,.3h.4v.7c-.1,0,-.3,0,-.5,0c-.8,0,-1,-.3,-1,-.9v-2.9h-.7v-.7h.7Z" class="g0_236"/>
<path d="M729.9,279.9c.1,.5,.5,.7,1,.7c.7,0,.9,-.3,.9,-.6c0,-.3,-.2,-.5,-.8,-.6l-.8,-.2c-.7,-.2,-.9,-.7,-.9,-1.2c0,-.7,.5,-1.4,1.6,-1.4c1.1,0,1.5,.8,1.5,1.4h-.7c-.1,-.5,-.3,-.7,-.8,-.7c-.5,0,-.9,.3,-.9,.6c0,.3,.2,.5,.5,.6l1.1,.3c.7,.2,.9,.6,.9,1.1c0,.9,-.8,1.4,-1.6,1.4c-1,0,-1.7,-.5,-1.7,-1.4Z" class="g0_236"/>
<path d="M724.8,265.5V256l8.2,4.8Z" class="g0_236"/>
<path d="M716.4,252.7h-.5v-.2h1.3v.2h-.5v1.4h-.3Zm2.6,0h-.1l-.5,1.4h-.2l-.5,-1.4v1.4h-.3v-1.6h.4l.5,1.2l.5,-1.2h.4v1.6H719Z" class="g7_236"/>
<path d="M-40.6,288.1H784.3" class="g8_236"/>
<path d="M-40.6,1000H784.3V953.6H-40.6V1000Z" class="g6_236"/>
<image preserveAspectRatio="none" x="68" y="309" width="155" height="185" xlink:href="img/4.png"/>
<path d="M67.9,494.2H222.6V308.5H67.9V494.2Z" class="g9_236"/>
<image preserveAspectRatio="none" x="456" y="309" width="155" height="185" xlink:href="img/5.png"/>
<path d="M456.5,494.2H611.2V308.5H456.5V494.2Z" class="g9_236"/>
<image preserveAspectRatio="none" x="587" y="102" width="158" height="157" xlink:href="img/6.png"/>
<path d="M663.2,240.9c36.2,0,65.5,-29.1,65.5,-65C728.7,140,699.4,111,663.2,111c-36.2,0,-65.5,29,-65.5,64.9c0,35.9,29.3,65,65.5,65Z" class="g7_236"/>
<path d="M663.2,240.9c36.2,0,65.5,-29.1,65.5,-65C728.7,140,699.4,111,663.2,111c-36.2,0,-65.5,29,-65.5,64.9c0,35.9,29.3,65,65.5,65Z" class="ga_236"/>
<path d="M119,894.2H624.7v-29H119v29Z" class="g0_236"/>
</svg>