<?xml version="1.0" encoding="UTF-8" standalone="no"?>
<!DOCTYPE svg PUBLIC "-//W3C//DTD SVG 1.1//EN"
"http://www.w3.org/Graphics/SVG/1.1/DTD/svg11.dtd">
<svg viewBox="0 0 742 976" version="1.1" xmlns="http://www.w3.org/2000/svg" xmlns:xlink="http://www.w3.org/1999/xlink">
<defs>
<clipPath id="c0"><path d="M84.6,885.7V838H217.7v47.7Z"/></clipPath>
<clipPath id="c1"><path d="M83.9,957V919.1h67.3V957Z"/></clipPath>
<style type="text/css"><![CDATA[
.g0{
fill: #FFFFFF;
}
.g1{
fill: none;
stroke: #000000;
stroke-width: 1.527;
stroke-linecap: butt;
stroke-linejoin: miter;
}
.g2{
fill: #221F20;
}
.g3{
fill: #C82628;
}
.g4{
fill: #454445;
}
.g5{
fill: #008FB4;
}
.g6{
fill: #1E1B1D;
}
]]></style>
</defs>
<path d="M695.8,942.1c-3.9,0,-7.2,3.3,-7.2,7.2c0,4.5,3,7.7,7.2,7.7c4,0,7.2,-3.4,7.2,-7.7c0,-4,-3.3,-7.2,-7.2,-7.2m0,13.1c-3.3,0,-4.5,-3.5,-4.5,-5.8c0,-2.1,1.2,-5.5,4.5,-5.5c3.1,0,4.5,3.2,4.5,5.4c0,2.9,-1.5,5.9,-4.5,5.9M627.7,942.1c2.6,0,5.3,1.1,5.3,4.2c0,3.1,-3,4.9,-6.1,4.9c0,-.5,0,-1,0,-1.5c2.3,-.2,3.6,-1.3,3.6,-3.2c0,-1.6,-1.3,-2.8,-3.2,-2.8h-1.5c0,4.7,.1,11.5,.3,13.2c-1,-.2,-1.9,-.2,-2.9,0c.2,-2.1,.4,-12.9,0,-14.8c0,0,1.9,0,2.3,0c.5,0,1.7,0,2.2,0m24.3,.1c-.7,2.8,-3.8,11.2,-5.3,14.7c1,-.2,2,-.1,2.5,-.1c.5,-1.5,1,-3.4,1.3,-4.1c1.5,-.1,3.3,-.1,5.1,0c.6,1.5,.9,2.5,1.4,4.1c1,0,1.9,0,2.9,.1c-1.4,-3.6,-4.8,-12.6,-5.4,-14.7c-.7,.1,-1.7,.1,-2.5,0m-.9,8.5c0,0,1.4,-4.2,1.8,-5.6c0,0,1.5,4.1,2,5.6c-1.5,.2,-2.3,.2,-3.8,0M638.8,955c1.6,.1,5.3,-.1,5.3,-.1c0,1.5,-.1,2,-.1,2c-1.4,-.2,-5.6,-.3,-7.8,0c.3,-3.6,.2,-11,0,-14.8c2.1,.2,6,.1,7.7,0v2.1c-1.4,-.2,-3.7,-.3,-5,-.3c0,0,-.1,3.5,0,4.4c2.3,.1,4,-.2,4.8,-.2v2.1c0,0,-2.7,-.3,-4.8,-.2c-.1,1.4,-.1,3.5,-.1,5m79.4,1.6c.1,0,.1,.3,.1,.3c-.6,-.1,-1.6,-.2,-2.2,-.1c-1.2,-1.7,-5.8,-8,-7.6,-10.3c-.1,3.4,-.1,8.6,.1,10.3c-.3,0,-.7,0,-.9,0c-.6,0,-.9,0,-1.5,.1c.3,-1.8,.4,-12.8,0,-14.7c.9,0,1.6,0,1.9,0c.2,0,.3,0,.3,0c0,0,5,6.6,7.6,10.1c0,-1.3,.1,-7.9,-.1,-10.2c.3,.1,.7,.2,1.2,.2c.4,0,.8,-.1,1.2,-.2c-.4,2.8,-.5,12.4,-.1,14.5M672.3,946c0,2.4,-1.6,3.8,-3.1,4.1c1.1,1.4,5.1,6.8,5.1,6.8c-1,-.2,-2.5,-.1,-3.2,-.1c-1.3,-2,-3.5,-5.1,-4.4,-6.1c0,-.6,0,-1,0,-1.6c2.5,0,3.1,-1.6,3.1,-2.8c0,-1.6,-1.5,-2.4,-2.9,-2.4h-1.2c-.1,2.8,.1,9.7,.2,12.9c-1,-.1,-2.1,0,-2.8,0c.3,-2.3,.2,-13,0,-14.7c0,0,1.5,.1,2.2,.1c.6,0,1.2,-.1,1.9,-.1c1.5,0,5.1,.4,5.1,3.9m10.4,2.5c1.7,1,2.9,2,2.9,4.2c0,3.1,-2.5,4.3,-4.6,4.3c-1.8,0,-3.6,-1,-4.5,-1.6c.3,-.7,.7,-1.3,.9,-2.2c1,1,2.4,1.8,3.5,1.8c1.3,0,2.1,-.7,2.1,-1.9c0,-1,-.6,-1.6,-1.4,-2.3c-.6,-.5,-2.2,-1.5,-2.5,-1.8c-1.2,-.9,-2,-1.8,-2,-3.3c0,-2.1,1.9,-3.6,4.3,-3.6c1.3,0,2.4,.3,3.9,1.3c-.4,.5,-.9,1.3,-1.1,2.1c-.6,-.8,-1.5,-1.6,-2.7,-1.6c-1.2,0,-1.9,.7,-1.9,1.7c0,.4,.3,.8,.8,1.3c.5,.4,1.2,.9,2.3,1.6Z" class="g0"/>
<path d="M24.3,945.9H25l3.1,7h-1l-1,-2.1H23.2l-.9,2.1h-1Zm1.4,4.1l-1.1,-2.6l-1,2.6Zm4.8,-4.1h1V952h3.1v.9H30.5Zm14.8,0h1l-2.8,7h-.2L41,947.3l-2.3,5.6h-.2l-2.8,-7h1l1.9,4.8l1.9,-4.8h1l1.9,4.8Zm5.2,0h.7l3.1,7h-1l-.9,-2.1h-3l-.9,2.1h-1ZM52,950l-1.2,-2.6l-1,2.6Zm8.2,-4.1h1.2l-2.6,3.3v3.7h-1v-3.7l-2.6,-3.3h1.2l1.9,2.4Zm5.5,4.1l-.8,-.5c-.4,-.3,-.8,-.6,-1,-.8c-.2,-.3,-.3,-.6,-.3,-1c0,-.5,.2,-1,.6,-1.3c.4,-.4,.9,-.5,1.5,-.5c.5,0,1.1,.1,1.6,.4v1.2c-.5,-.5,-1.1,-.7,-1.7,-.7c-.3,0,-.5,0,-.8,.2c-.2,.1,-.3,.3,-.3,.5c0,.3,.1,.5,.3,.6c.1,.2,.4,.4,.7,.6l.8,.5c.8,.5,1.2,1.1,1.2,1.9c0,.5,-.2,1,-.5,1.3c-.4,.4,-.9,.6,-1.5,.6c-.7,0,-1.3,-.2,-1.9,-.7v-1.2c.6,.7,1.2,1,1.9,1c.3,0,.6,-.1,.8,-.3c.2,-.1,.3,-.4,.3,-.6c0,-.4,-.3,-.8,-.9,-1.2m9.8,-4.1h1V952h3.1v.9H75.5Zm7,0h4v.9h-3v2.1h2.9v.9H83.5V952h3.1v.9H82.5Zm9.6,0h.7l3.1,7h-1L94,950.8H91l-.9,2.1h-1Zm1.4,4.1l-1.1,-2.6l-1,2.6Zm5.2,2.9v-7h1.8c.7,0,1.2,.2,1.6,.6c.4,.3,.6,.8,.6,1.4c0,.4,-.1,.7,-.3,1c-.2,.3,-.4,.5,-.8,.7c.2,.1,.4,.3,.6,.6c.2,.2,.5,.7,.9,1.3c.3,.4,.5,.7,.6,.9l.4,.5h-1.2l-.3,-.5l-.1,-.1l-.2,-.2l-.3,-.5l-.3,-.6c-.2,-.3,-.4,-.5,-.6,-.7c-.1,-.1,-.3,-.2,-.4,-.3c-.2,-.1,-.4,-.1,-.7,-.1h-.3v3Zm1.3,-6.1h-.3V949h.4c.5,0,.8,-.1,1,-.1c.2,-.1,.4,-.3,.5,-.4c.1,-.2,.1,-.4,.1,-.6c0,-.2,0,-.4,-.2,-.6c-.1,-.2,-.2,-.3,-.4,-.4c-.3,-.1,-.6,-.1,-1.1,-.1m12.4,-.9h.9v7h-.8l-4.7,-5.4v5.4h-.9v-7h.8l4.7,5.4Zm4.5,0h.9v7h-.9v-7Zm10,0h1v7H127l-4.6,-5.4v5.4h-.9v-7h.8l4.6,5.4Zm7.6,3.6h2.4v2.9c-.9,.4,-1.7,.6,-2.6,.6c-1.1,0,-2,-.4,-2.7,-1c-.7,-.7,-1.1,-1.5,-1.1,-2.5c0,-1.1,.4,-1.9,1.1,-2.6c.7,-.7,1.6,-1,2.7,-1c.4,0,.8,0,1.1,.1c.4,.1,.8,.2,1.3,.5v1c-.8,-.5,-1.6,-.8,-2.4,-.8c-.8,0,-1.4,.3,-1.9,.8c-.6,.5,-.8,1.2,-.8,1.9c0,.8,.2,1.5,.8,1.9c.5,.6,1.1,.8,2,.8c.4,0,.8,-.1,1.4,-.3h.1v-1.4h-1.4Z" class="g0"/>
<image preserveAspectRatio="none" x="89" y="769" width="24" height="23" xlink:href="img/1.png"/>
<image preserveAspectRatio="none" x="128" y="769" width="23" height="23" xlink:href="img/2.png"/>
<image preserveAspectRatio="none" x="166" y="769" width="23" height="23" xlink:href="img/3.png"/>
<image preserveAspectRatio="none" x="206" y="769" width="24" height="23" xlink:href="img/4.png"/>
<image preserveAspectRatio="none" x="68" y="-42" width="611" height="303" xlink:href="img/5.png"/>
<path d="M84.6,558.2h575" class="g1"/>
<path d="M85.2,843.6h6.6v-3.3H85.2v3.3Zm0,22.1h6.6V844.9H85.2v20.8Z" class="g2"/>
<path d="M100.5,844.9l-.1,1.9c.5,-.8,1,-1.4,1.7,-1.7c.7,-.4,1.4,-.6,2.3,-.6c1.1,0,2,.2,2.7,.8c.7,.5,1.1,1.1,1.3,1.9c.2,.8,.3,2.1,.3,3.9v14.6h-6.3V851.3c0,-1.5,-.1,-2.3,-.2,-2.7c-.1,-.3,-.3,-.4,-.8,-.4c-.4,0,-.7,.2,-.8,.5c-.1,.4,-.2,1.3,-.2,2.9v14.1H94.1V844.9Z" class="g2"/>
<path d="M119,840.3v3.2c-1.3,0,-2.1,.1,-2.3,.2c-.3,.1,-.4,.4,-.4,1v.7H119v3.3h-1.5v17h-6.4v-17h-1.3v-3.3h1.3c0,-1.4,.1,-2.3,.2,-2.8c.1,-.4,.3,-.9,.7,-1.2c.3,-.4,.8,-.7,1.5,-.8c.7,-.2,1.7,-.3,3.1,-.3Z" class="g2"/>
<path d="M128.2,850.6c0,-1.1,-.1,-1.7,-.2,-2c-.1,-.3,-.3,-.4,-.7,-.4c-.4,0,-.6,.1,-.8,.4c-.1,.3,-.2,.9,-.2,2V860c0,1,.1,1.6,.2,1.9c.2,.3,.4,.5,.8,.5c.3,0,.6,-.1,.7,-.4c.1,-.3,.2,-.9,.2,-1.8Zm6.3,1.6v5.1c0,1.9,-.1,3.2,-.2,4.1c-.2,.9,-.6,1.7,-1.3,2.5c-.6,.7,-1.4,1.3,-2.3,1.6c-1,.4,-2.1,.6,-3.4,.6c-1.4,0,-2.6,-.2,-3.5,-.5c-1,-.3,-1.8,-.8,-2.3,-1.4c-.5,-.6,-.9,-1.4,-1.2,-2.2c-.2,-.9,-.3,-2.3,-.3,-4v-5.4c0,-1.9,.2,-3.4,.6,-4.5c.4,-1.1,1.2,-2,2.3,-2.6c1.1,-.7,2.5,-1,4.2,-1c1.4,0,2.6,.2,3.6,.6c1,.4,1.8,1,2.4,1.7c.5,.7,.9,1.4,1.1,2.1c.2,.7,.3,1.8,.3,3.3Z" class="g2"/>
<path d="M143,844.9l-.3,2.7c.9,-2,2.3,-3,4,-3.1v7.3c-1.1,0,-2,.2,-2.5,.5c-.6,.3,-.9,.7,-1,1.3c-.2,.6,-.2,1.9,-.2,3.9v8.2h-6.4V844.9Z" class="g2"/>
<path d="M154.4,844.9l-.1,1.9c.5,-.7,1.1,-1.3,1.8,-1.7c.6,-.4,1.4,-.6,2.3,-.6c1.7,0,3,.8,4,2.3c.5,-.7,1.1,-1.3,1.8,-1.7c.7,-.4,1.4,-.6,2.2,-.6c1.1,0,2,.2,2.7,.8c.7,.5,1.2,1.1,1.4,1.9c.2,.8,.3,2,.3,3.7v14.8h-6.2V852.1c0,-1.8,-.1,-2.9,-.2,-3.3c-.1,-.4,-.4,-.6,-.8,-.6c-.5,0,-.8,.2,-.9,.6c-.1,.4,-.2,1.5,-.2,3.3v13.6h-6.1V852.5c0,-2.1,-.1,-3.3,-.2,-3.7c-.1,-.4,-.4,-.6,-.8,-.6c-.3,0,-.5,.1,-.7,.3c-.2,.2,-.4,.5,-.4,.8c0,.3,0,.9,0,2v14.4h-6.2V844.9Z" class="g2"/>
<path d="M179.5,865.7H174V844.6h5.5v21.1Z" class="g3"/>
<path d="M192.7,844.6v4.2h-3.3v16.9H184V848.8h-3.3v-4.2Z" class="g3"/>
<g clip-path="url(#c0)">
<path d="M86.3,870.6v.4h-.6v1.9q0,.1,0,.2v.1q.1,0,.1,0c.1,0,.2,0,.2,0h.3v.5h-.4c-.1,0,-.3,0,-.4,-.1c0,0,-.1,0,-.2,-.1c0,0,-.1,-.1,-.1,-.2c0,-.1,-.1,-.2,-.1,-.3v-2h-.5v-.4h.5v-1h.6v1Z" class="g4"/>
</g>
<path d="M87.4,869.4V871c.1,-.1,.1,-.2,.2,-.2c.1,-.1,.2,-.2,.2,-.2c.1,0,.2,-.1,.3,-.1c.1,0,.2,0,.3,0c.2,0,.4,0,.5,.1c.2,0,.3,.1,.4,.2c0,.1,.1,.2,.1,.4c.1,.1,.1,.2,.1,.4v2.1H89v-2.1c0,-.2,-.1,-.4,-.2,-.5c-.1,-.1,-.3,-.2,-.5,-.2c-.1,0,-.3,.1,-.4,.1c-.1,.1,-.2,.1,-.3,.2c0,.1,-.1,.2,-.1,.3c-.1,.1,-.1,.3,-.1,.4v1.8h-.5v-4.3Z" class="g4"/>
<path d="M92.4,871.5c0,-.1,-.1,-.2,-.2,-.3c-.1,-.1,-.2,-.2,-.3,-.2c-.1,0,-.2,-.1,-.3,-.1c-.1,0,-.3,.1,-.4,.1c-.1,0,-.2,.1,-.2,.2c-.1,.1,-.2,.2,-.2,.3c-.1,.1,-.1,.2,-.1,.3h1.8c0,-.1,-.1,-.2,-.1,-.3m.1,2c-.2,.1,-.5,.2,-.9,.2c-.2,0,-.4,0,-.6,-.1c-.2,-.1,-.3,-.2,-.5,-.3c-.1,-.2,-.2,-.3,-.2,-.5c-.1,-.2,-.1,-.5,-.1,-.7c0,-.2,0,-.5,.1,-.7c0,-.1,.1,-.3,.3,-.5c.1,-.1,.2,-.2,.4,-.3c.2,-.1,.4,-.1,.6,-.1c.3,0,.5,0,.7,.2c.2,.1,.3,.2,.4,.4c.2,.2,.2,.4,.3,.6c0,.2,0,.4,0,.6H90.7c0,.1,0,.2,0,.4c.1,.1,.1,.2,.2,.3c.1,.1,.2,.1,.3,.2c.1,.1,.3,.1,.5,.1c.2,0,.4,-.1,.5,-.2c.1,-.1,.2,-.2,.3,-.4H93c-.1,.3,-.2,.6,-.5,.8Z" class="g4"/>
<path d="M96.7,870.6v.4h-.6v1.9q0,.1,0,.2v.1q.1,0,.2,0c0,0,.1,0,.2,0h.2v.5h-.4c-.1,0,-.3,0,-.3,-.1c-.1,0,-.2,0,-.3,-.1c0,0,-.1,-.1,-.1,-.2c0,-.1,0,-.2,0,-.3v-2H95v-.4h.6v-1h.5v1Z" class="g4"/>
<path d="M97.8,870.6v.6c.1,-.2,.3,-.4,.5,-.6c.1,-.1,.4,-.1,.6,-.1v.5c-.2,0,-.3,0,-.5,.1c-.1,.1,-.2,.1,-.3,.3c-.1,.1,-.2,.2,-.2,.3c-.1,.2,-.1,.4,-.1,.6v1.4h-.5v-3.1Z" class="g4"/>
<path d="M101.5,873.7v-.5c-.1,.2,-.3,.3,-.4,.4c-.2,.1,-.4,.1,-.6,.1c-.2,0,-.4,0,-.6,0c-.1,-.1,-.2,-.2,-.3,-.3c-.1,-.1,-.1,-.2,-.2,-.3c0,-.2,0,-.3,0,-.5v-2h.5v2.1c0,.2,.1,.3,.2,.4c.1,.1,.2,.2,.4,.2c.2,0,.3,0,.4,-.1c.2,0,.2,-.1,.3,-.2c.1,-.1,.2,-.2,.2,-.3c0,-.1,.1,-.2,.1,-.4v-1.7h.5v3.1Z" class="g4"/>
<path d="M103.2,873c0,.1,.1,.1,.2,.2q.1,0,.2,.1c.1,0,.2,0,.3,0c.1,0,.2,0,.3,0c.1,0,.2,-.1,.2,-.1c.1,0,.2,-.1,.2,-.1c.1,-.1,.1,-.2,.1,-.3c0,-.1,0,-.2,-.1,-.3c-.1,0,-.3,-.1,-.4,-.1c-.2,-.1,-.3,-.1,-.5,-.2c-.2,0,-.4,0,-.5,-.1c-.2,-.1,-.3,-.2,-.4,-.3c-.1,-.1,-.1,-.2,-.1,-.4c0,-.2,0,-.3,.1,-.4c0,-.2,.1,-.2,.2,-.3c.2,-.1,.3,-.1,.4,-.2c.2,0,.3,0,.4,0c.2,0,.4,0,.5,0c.2,.1,.3,.1,.4,.2c.1,.1,.2,.2,.3,.3c.1,.1,.1,.3,.1,.5h-.5c0,-.1,0,-.2,-.1,-.3c0,-.1,-.1,-.1,-.2,-.2c0,0,-.1,0,-.2,0q-.1,-.1,-.2,-.1c-.1,0,-.2,0,-.3,0c0,.1,-.1,.1,-.2,.1c0,0,-.1,.1,-.1,.1q-.1,.1,-.1,.2c0,.1,0,.2,.1,.2c.1,.1,.1,.2,.2,.2c.1,0,.2,.1,.4,.1c.1,0,.2,0,.3,.1c.2,0,.3,0,.4,.1c.1,0,.2,.1,.3,.1c.1,.1,.2,.2,.3,.3c0,.1,0,.2,0,.4c0,.1,0,.3,-.1,.4c0,.2,-.2,.3,-.3,.3c-.1,.1,-.2,.2,-.4,.2c-.2,0,-.3,0,-.5,0c-.2,0,-.3,0,-.5,0c-.1,-.1,-.3,-.1,-.4,-.2c-.1,-.1,-.2,-.2,-.3,-.3c-.1,-.2,-.1,-.3,-.1,-.5h.5c0,.1,0,.2,.1,.3Z" class="g4"/>
<path d="M107.2,870.6v.4h-.6v1.9q0,.1,0,.2l.1,.1h.1c0,0,.1,0,.2,0h.2v.5h-.4c-.1,0,-.2,0,-.3,-.1c-.1,0,-.2,0,-.3,-.1c0,0,-.1,-.1,-.1,-.2c0,-.1,0,-.2,0,-.3v-2h-.6v-.4h.6v-1h.5v1Z" class="g4"/>
<path d="M109.9,871.5c0,-.1,-.1,-.2,-.2,-.3c0,-.1,-.1,-.2,-.2,-.2c-.2,0,-.3,-.1,-.4,-.1c-.1,0,-.3,.1,-.4,.1c-.1,0,-.2,.1,-.2,.2c-.1,.1,-.2,.2,-.2,.3c-.1,.1,-.1,.2,-.1,.3H110c0,-.1,0,-.2,-.1,-.3m.1,2c-.2,.1,-.5,.2,-.8,.2c-.3,0,-.5,0,-.7,-.1c-.2,-.1,-.3,-.2,-.4,-.3c-.2,-.2,-.3,-.3,-.3,-.5c-.1,-.2,-.1,-.5,-.1,-.7c0,-.2,0,-.5,.1,-.7c0,-.1,.1,-.3,.3,-.5c.1,-.1,.3,-.2,.4,-.3c.2,-.1,.4,-.1,.6,-.1c.3,0,.5,0,.7,.2c.2,.1,.4,.2,.5,.4c.1,.2,.1,.4,.2,.6c0,.2,0,.4,0,.6h-2.3c0,.1,0,.2,.1,.4c0,.1,0,.2,.1,.3c.1,.1,.2,.1,.3,.2c.2,.1,.3,.1,.5,.1c.2,0,.4,-.1,.5,-.2c.2,-.1,.2,-.2,.3,-.4h.5c-.1,.3,-.2,.6,-.5,.8Z" class="g4"/>
<path d="M111.6,872.6c0,.1,.1,.2,.1,.3c.1,.1,.2,.2,.3,.3c.2,.1,.3,.1,.5,.1c.1,0,.3,0,.4,-.1c.1,-.1,.2,-.2,.3,-.3c.1,-.1,.1,-.2,.2,-.4c0,-.1,0,-.2,0,-.4c0,-.1,0,-.3,0,-.4c-.1,-.2,-.1,-.3,-.2,-.4c-.1,-.1,-.2,-.2,-.3,-.3c-.1,0,-.3,-.1,-.5,-.1c-.1,0,-.3,.1,-.4,.1c-.1,.1,-.2,.2,-.3,.3c-.1,.1,-.1,.2,-.1,.4c-.1,.1,-.1,.3,-.1,.4c0,.2,0,.3,.1,.5m1.8,1.1v-.5c-.1,.2,-.2,.3,-.4,.4c-.2,.1,-.4,.1,-.6,.1c-.2,0,-.5,0,-.6,-.1c-.2,-.1,-.4,-.2,-.5,-.4c-.1,-.1,-.2,-.3,-.2,-.5c-.1,-.2,-.1,-.4,-.1,-.6c0,-.2,0,-.4,.1,-.6c0,-.2,.1,-.4,.2,-.5c.1,-.2,.3,-.3,.5,-.4c.1,-.1,.4,-.1,.6,-.1c.1,0,.2,0,.2,0c.1,0,.2,0,.3,.1c.1,0,.2,.1,.3,.1c.1,.1,.1,.2,.2,.3v-1.6h.5v4.3Z" class="g4"/>
<path d="M117.8,870.6v.4h-.6v1.9q0,.1,0,.2c0,0,.1,0,.1,.1c0,0,.1,0,.1,0q.1,0,.2,0h.2v.5h-.4c-.1,0,-.2,0,-.3,-.1c-.1,0,-.2,0,-.2,-.1c-.1,0,-.1,-.1,-.2,-.2c0,-.1,0,-.2,0,-.3v-2h-.5v-.4h.5v-1h.5v1Z" class="g4"/>
<path d="M120.6,871.5c-.1,-.1,-.2,-.2,-.2,-.3c-.1,-.1,-.2,-.2,-.3,-.2c-.1,0,-.2,-.1,-.4,-.1c-.1,0,-.2,.1,-.3,.1c-.1,0,-.2,.1,-.3,.2c-.1,.1,-.1,.2,-.2,.3c0,.1,-.1,.2,-.1,.3h1.8c0,-.1,0,-.2,0,-.3m.1,2c-.3,.1,-.6,.2,-.9,.2c-.3,0,-.5,0,-.7,-.1c-.1,-.1,-.3,-.2,-.4,-.3c-.1,-.2,-.2,-.3,-.3,-.5c-.1,-.2,-.1,-.5,-.1,-.7c0,-.2,0,-.5,.1,-.7c.1,-.1,.2,-.3,.3,-.5c.1,-.1,.3,-.2,.5,-.3c.2,-.1,.3,-.1,.6,-.1c.2,0,.5,0,.7,.2c.1,.1,.3,.2,.4,.4c.1,.2,.2,.4,.2,.6c.1,.2,.1,.4,.1,.6h-2.4c0,.1,.1,.2,.1,.4c0,.1,.1,.2,.2,.3c0,.1,.1,.1,.3,.2c.1,.1,.2,.1,.4,.1c.2,0,.4,-.1,.5,-.2c.2,-.1,.3,-.2,.3,-.4h.5c0,.3,-.2,.6,-.4,.8Z" class="g4"/>
<path d="M123.6,871.1c-.1,-.1,-.3,-.2,-.5,-.2c-.2,0,-.3,.1,-.5,.1c-.1,.1,-.2,.2,-.3,.3c0,.1,-.1,.2,-.1,.4c0,.1,-.1,.3,-.1,.4c0,.2,.1,.3,.1,.5c0,.1,.1,.2,.2,.3c0,.1,.1,.2,.2,.3c.2,.1,.3,.1,.4,.1c.3,0,.5,-.1,.6,-.2c.2,-.1,.3,-.3,.3,-.6h.5c0,.4,-.2,.7,-.4,.9c-.2,.2,-.5,.3,-.9,.3c-.3,0,-.5,0,-.7,-.1c-.2,-.1,-.3,-.2,-.4,-.3c-.2,-.1,-.2,-.3,-.3,-.5c-.1,-.2,-.1,-.4,-.1,-.7c0,-.2,0,-.4,.1,-.6c0,-.2,.1,-.4,.3,-.5c.1,-.2,.2,-.3,.4,-.4c.2,-.1,.4,-.1,.7,-.1c.1,0,.3,0,.5,0c.1,.1,.3,.1,.4,.2c.1,.1,.2,.2,.3,.4c0,.1,.1,.3,.1,.5h-.5c-.1,-.2,-.1,-.4,-.3,-.5Z" class="g4"/>
<path d="M125.6,869.4V871c0,-.1,.1,-.2,.2,-.2c0,-.1,.1,-.2,.2,-.2c.1,0,.2,-.1,.3,-.1c.1,0,.2,0,.3,0c.2,0,.3,0,.5,.1c.1,0,.2,.1,.3,.2c.1,.1,.2,.2,.2,.4c0,.1,0,.2,0,.4v2.1h-.5v-2.1c0,-.2,0,-.4,-.1,-.5c-.1,-.1,-.3,-.2,-.5,-.2c-.2,0,-.3,.1,-.4,.1c-.1,.1,-.2,.1,-.3,.2c-.1,.1,-.1,.2,-.2,.3c0,.1,0,.3,0,.4v1.8h-.5v-4.3Z" class="g4"/>
<path d="M129,870.6v.4c.2,-.3,.5,-.5,1,-.5c.2,0,.4,0,.5,.1c.1,0,.2,.1,.3,.2c.1,.1,.2,.2,.2,.4c0,.1,.1,.2,.1,.4v2.1h-.6v-2.1c0,-.2,0,-.4,-.1,-.5c-.1,-.1,-.3,-.2,-.5,-.2c-.1,0,-.3,.1,-.4,.1c-.1,.1,-.2,.1,-.3,.2c-.1,.1,-.1,.2,-.2,.3c0,.1,0,.3,0,.4v1.8h-.5v-3.1Z" class="g4"/>
<path d="M132.3,872.6c.1,.2,.2,.3,.2,.4c.1,.1,.2,.2,.4,.2c.1,.1,.2,.1,.3,.1c.2,0,.3,0,.4,-.1c.1,0,.2,-.1,.3,-.2c.1,-.1,.2,-.2,.2,-.4c.1,-.1,.1,-.3,.1,-.5c0,-.2,0,-.3,-.1,-.5c0,-.1,-.1,-.3,-.2,-.4c-.1,-.1,-.2,-.1,-.3,-.2c-.1,0,-.2,-.1,-.4,-.1c-.1,0,-.2,.1,-.3,.1c-.2,.1,-.3,.1,-.4,.2c0,.1,-.1,.3,-.2,.4c0,.2,0,.3,0,.5c0,.2,0,.4,0,.5m-.5,-1.1c.1,-.2,.2,-.4,.3,-.5c.1,-.2,.3,-.3,.5,-.4c.2,-.1,.4,-.1,.6,-.1c.3,0,.5,0,.7,.1c.2,.1,.3,.2,.5,.4c.1,.1,.2,.3,.3,.5c0,.2,.1,.4,.1,.6c0,.2,-.1,.5,-.1,.7c-.1,.2,-.2,.3,-.3,.5c-.2,.1,-.3,.2,-.5,.3c-.2,.1,-.4,.1,-.7,.1c-.2,0,-.4,0,-.6,-.1c-.2,-.1,-.4,-.2,-.5,-.3c-.1,-.2,-.2,-.3,-.3,-.5c0,-.2,-.1,-.5,-.1,-.7c0,-.2,.1,-.4,.1,-.6Z" class="g4"/>
<path d="M136,873.7h-.6v-4.3h.6v4.3Z" class="g4"/>
<path d="M137.3,872.6c0,.2,.1,.3,.2,.4c.1,.1,.2,.2,.3,.2c.1,.1,.2,.1,.4,.1c.1,0,.2,0,.3,-.1c.2,0,.3,-.1,.3,-.2c.1,-.1,.2,-.2,.3,-.4c0,-.1,0,-.3,0,-.5c0,-.2,0,-.3,0,-.5c-.1,-.1,-.2,-.3,-.3,-.4c0,-.1,-.1,-.1,-.3,-.2c-.1,0,-.2,-.1,-.3,-.1c-.2,0,-.3,.1,-.4,.1c-.1,.1,-.2,.1,-.3,.2c-.1,.1,-.2,.3,-.2,.4c-.1,.2,-.1,.3,-.1,.5c0,.2,0,.4,.1,.5m-.6,-1.1c.1,-.2,.2,-.4,.3,-.5c.2,-.2,.3,-.3,.5,-.4c.2,-.1,.4,-.1,.7,-.1c.2,0,.4,0,.6,.1c.2,.1,.4,.2,.5,.4c.1,.1,.2,.3,.3,.5c0,.2,.1,.4,.1,.6c0,.2,-.1,.5,-.1,.7c-.1,.2,-.2,.3,-.3,.5c-.1,.1,-.3,.2,-.5,.3c-.2,.1,-.4,.1,-.6,.1c-.3,0,-.5,0,-.7,-.1c-.2,-.1,-.3,-.2,-.5,-.3c-.1,-.2,-.2,-.3,-.3,-.5c0,-.2,-.1,-.5,-.1,-.7c0,-.2,.1,-.4,.1,-.6Z" class="g4"/>
<path d="M142,873.1c.1,0,.2,-.1,.3,-.2c.1,-.1,.1,-.3,.2,-.4c0,-.2,0,-.3,0,-.5c0,-.1,0,-.2,0,-.4c-.1,-.1,-.1,-.2,-.2,-.3c-.1,-.1,-.1,-.2,-.3,-.3c-.1,0,-.2,-.1,-.4,-.1c-.1,0,-.3,.1,-.4,.1c-.1,.1,-.2,.2,-.3,.3c-.1,.1,-.1,.2,-.1,.3c-.1,.2,-.1,.3,-.1,.5c0,.1,0,.2,.1,.4c0,.1,0,.3,.1,.4c.1,.1,.2,.2,.3,.2c.1,.1,.2,.2,.4,.2c.2,0,.3,-.1,.4,-.2m.7,1.5c-.3,.2,-.6,.3,-1.1,.3c-.2,0,-.3,0,-.5,0c-.1,-.1,-.3,-.1,-.4,-.2c-.1,0,-.2,-.1,-.3,-.3c-.1,-.1,-.1,-.2,-.1,-.4h.5c0,.1,0,.2,.1,.2c0,.1,.1,.2,.2,.2c.1,0,.1,.1,.2,.1c.1,0,.2,0,.3,0c.2,0,.3,0,.4,-.1c.2,0,.2,-.1,.3,-.2c.1,-.1,.2,-.2,.2,-.4c0,-.1,0,-.3,0,-.5v-.2c-.1,.2,-.2,.4,-.4,.5c-.1,.1,-.3,.1,-.5,.1c-.3,0,-.5,0,-.6,-.1c-.2,-.1,-.4,-.2,-.5,-.4c-.1,-.1,-.2,-.3,-.2,-.5c-.1,-.2,-.1,-.4,-.1,-.6c0,-.2,0,-.4,0,-.5c.1,-.2,.2,-.4,.3,-.6c.1,-.1,.2,-.3,.4,-.4c.2,-.1,.4,-.1,.7,-.1c.2,0,.4,0,.6,.1c.1,.1,.2,.2,.3,.4v-.4h.5v2.8c0,.5,-.1,.9,-.3,1.2Z" class="g4"/>
<path d="M144.9,874.5c-.1,.1,-.1,.2,-.2,.2q-.1,.1,-.2,.2c-.1,0,-.2,0,-.3,0q-.1,0,-.2,0q-.1,0,-.2,0v-.5q.1,0,.2,0c0,.1,.1,.1,.1,.1c.1,0,.2,-.1,.3,-.1c0,-.1,.1,-.1,.1,-.2l.3,-.5l-1.3,-3.1h.6l.9,2.5l.9,-2.5h.5l-1.3,3.5c-.1,.1,-.1,.3,-.2,.4Z" class="g4"/>
<path d="M149.2,873.7h-.5v-4.3h.5v4.3Z" class="g4"/>
<path d="M152.2,871.5c-.1,-.1,-.2,-.2,-.2,-.3c-.1,-.1,-.2,-.2,-.3,-.2c-.1,0,-.2,-.1,-.4,-.1c-.1,0,-.2,.1,-.3,.1c-.1,0,-.2,.1,-.3,.2c-.1,.1,-.1,.2,-.2,.3c0,.1,0,.2,-.1,.3h1.8c0,-.1,0,-.2,0,-.3m.1,2c-.3,.1,-.5,.2,-.9,.2c-.3,0,-.5,0,-.7,-.1c-.1,-.1,-.3,-.2,-.4,-.3c-.1,-.2,-.2,-.3,-.3,-.5c-.1,-.2,-.1,-.5,-.1,-.7c0,-.2,0,-.5,.1,-.7c.1,-.1,.2,-.3,.3,-.5c.1,-.1,.3,-.2,.5,-.3c.2,-.1,.4,-.1,.6,-.1c.2,0,.5,0,.7,.2c.1,.1,.3,.2,.4,.4c.1,.2,.2,.4,.2,.6c.1,.2,.1,.4,.1,.6h-2.4c0,.1,.1,.2,.1,.4c0,.1,.1,.2,.2,.3c0,.1,.1,.1,.3,.2c.1,.1,.2,.1,.4,.1c.2,0,.4,-.1,.5,-.2c.2,-.1,.3,-.2,.3,-.4h.5c0,.3,-.2,.6,-.4,.8Z" class="g4"/>
<path d="M155,872.2c-.1,0,-.2,0,-.3,0c-.1,0,-.2,0,-.3,.1c-.1,0,-.3,0,-.3,.1c-.1,0,-.2,.1,-.3,.1c0,.1,-.1,.2,-.1,.3c0,.1,.1,.2,.1,.2c0,.1,.1,.1,.1,.2q.1,0,.2,.1c.1,0,.2,0,.2,0c.2,0,.4,0,.5,-.1c.1,0,.2,-.1,.3,-.2c0,0,.1,-.1,.1,-.2q.1,-.1,.1,-.2v-.5c-.1,0,-.2,0,-.3,.1m.8,1.5c-.2,0,-.3,0,-.4,-.1c0,0,-.1,-.2,-.1,-.3c-.1,.1,-.3,.3,-.5,.3c-.1,.1,-.4,.1,-.6,.1c-.1,0,-.2,0,-.4,0c-.1,0,-.2,-.1,-.3,-.2c-.1,0,-.2,-.1,-.2,-.2c-.1,-.1,-.1,-.3,-.1,-.4c0,-.2,0,-.4,.1,-.5c.1,-.1,.1,-.2,.2,-.2c.1,-.1,.2,-.2,.4,-.2c.1,0,.2,-.1,.4,-.1c.1,0,.2,0,.4,-.1c.1,0,.2,0,.3,0c.1,0,.2,-.1,.2,-.1c.1,-.1,.1,-.2,.1,-.3c0,-.1,0,-.2,-.1,-.2c0,-.1,-.1,-.1,-.1,-.2c-.1,0,-.2,0,-.2,-.1c-.1,0,-.2,0,-.3,0c-.2,0,-.4,.1,-.5,.2c-.2,0,-.3,.2,-.3,.4h-.5c0,-.2,.1,-.3,.1,-.5c.1,-.1,.2,-.2,.3,-.3c.1,-.1,.3,-.1,.4,-.2c.2,0,.4,0,.5,0c.2,0,.3,0,.5,0c.1,0,.2,.1,.3,.1c.1,.1,.2,.2,.3,.3c.1,.1,.1,.3,.1,.4v1.6q0,.2,0,.3c0,.1,.1,.1,.2,.1c0,0,.1,0,.1,0v.4c-.1,0,-.2,0,-.3,0Z" class="g4"/>
<path d="M157.1,870.6v.6c.2,-.2,.3,-.4,.5,-.6c.2,-.1,.4,-.1,.7,-.1v.5c-.2,0,-.4,0,-.5,.1c-.2,.1,-.3,.1,-.4,.3c-.1,.1,-.1,.2,-.2,.3c0,.2,0,.4,0,.6v1.4h-.5v-3.1Z" class="g4"/>
<path d="M159.3,870.6v.4c.3,-.3,.6,-.5,1.1,-.5c.2,0,.3,0,.5,.1c.1,0,.2,.1,.3,.2c.1,.1,.1,.2,.2,.4c0,.1,0,.2,0,.4v2.1h-.5v-2.1c0,-.2,0,-.4,-.2,-.5c-.1,-.1,-.2,-.2,-.4,-.2c-.2,0,-.3,.1,-.4,.1c-.1,.1,-.2,.1,-.3,.2c-.1,.1,-.1,.2,-.2,.3c0,.1,0,.3,0,.4v1.8h-.6v-3.1Z" class="g4"/>
<path d="M162.8,873.7h-.5v-3.1h.5v3.1Zm-.5,-4.3h.5v.6h-.5v-.6Z" class="g4"/>
<path d="M164.1,870.6v.4h.1c.2,-.3,.5,-.5,1,-.5c.2,0,.3,0,.5,.1c.1,0,.2,.1,.3,.2c.1,.1,.2,.2,.2,.4c0,.1,0,.2,0,.4v2.1h-.5v-2.1c0,-.2,0,-.4,-.1,-.5c-.2,-.1,-.3,-.2,-.5,-.2c-.2,0,-.3,.1,-.4,.1c-.1,.1,-.2,.1,-.3,.2c-.1,.1,-.1,.2,-.2,.3c0,.1,0,.3,0,.4v1.8h-.5v-3.1Z" class="g4"/>
<path d="M168.8,873.1c.1,0,.2,-.1,.2,-.2c.1,-.1,.2,-.3,.2,-.4c0,-.2,.1,-.3,.1,-.5c0,-.1,-.1,-.2,-.1,-.4c0,-.1,-.1,-.2,-.1,-.3c-.1,-.1,-.2,-.2,-.3,-.3c-.1,0,-.3,-.1,-.4,-.1c-.2,0,-.3,.1,-.5,.1c-.1,.1,-.2,.2,-.2,.3c-.1,.1,-.2,.2,-.2,.3c0,.2,-.1,.3,-.1,.5c0,.1,.1,.2,.1,.4c0,.1,.1,.3,.1,.4c.1,.1,.2,.2,.3,.2c.1,.1,.3,.2,.4,.2c.2,0,.3,-.1,.5,-.2m.6,1.5c-.2,.2,-.6,.3,-1.1,.3c-.1,0,-.3,0,-.4,0c-.2,-.1,-.3,-.1,-.4,-.2c-.2,0,-.3,-.1,-.3,-.3c-.1,-.1,-.2,-.2,-.2,-.4h.5c0,.1,.1,.2,.1,.2c.1,.1,.1,.2,.2,.2c.1,0,.2,.1,.3,.1c.1,0,.2,0,.2,0c.2,0,.4,0,.5,-.1c.1,0,.2,-.1,.3,-.2c0,-.1,.1,-.2,.1,-.4c.1,-.1,.1,-.3,.1,-.5v-.2c-.1,.2,-.3,.4,-.4,.5c-.2,.1,-.4,.1,-.6,.1c-.2,0,-.4,0,-.6,-.1c-.2,-.1,-.3,-.2,-.4,-.4c-.2,-.1,-.3,-.3,-.3,-.5c-.1,-.2,-.1,-.4,-.1,-.6c0,-.2,0,-.4,.1,-.5c0,-.2,.1,-.4,.2,-.6c.1,-.1,.3,-.3,.5,-.4c.1,-.1,.4,-.1,.6,-.1c.2,0,.4,0,.6,.1c.1,.1,.3,.2,.4,.4v-.4h.5v2.8c0,.5,-.2,.9,-.4,1.2Z" class="g4"/>
<path d="M172.7,873q.1,.1,.2,.2c.1,0,.2,0,.3,.1c.1,0,.2,0,.3,0q.1,0,.2,0c.1,0,.2,-.1,.3,-.1c.1,0,.1,-.1,.2,-.1c0,-.1,0,-.2,0,-.3c0,-.1,0,-.2,-.1,-.3c-.1,0,-.2,-.1,-.4,-.1c-.1,-.1,-.3,-.1,-.5,-.2c-.2,0,-.3,0,-.5,-.1c-.1,-.1,-.3,-.2,-.4,-.3c-.1,-.1,-.1,-.2,-.1,-.4c0,-.2,0,-.3,.1,-.4c.1,-.2,.2,-.2,.3,-.3c.1,-.1,.2,-.1,.3,-.2c.2,0,.3,0,.5,0c.1,0,.3,0,.4,0c.2,.1,.3,.1,.4,.2c.2,.1,.3,.2,.3,.3c.1,.1,.1,.3,.1,.5h-.5c0,-.1,0,-.2,-.1,-.3c0,-.1,-.1,-.1,-.1,-.2c-.1,0,-.2,0,-.2,0c-.1,-.1,-.2,-.1,-.3,-.1c-.1,0,-.2,0,-.2,0c-.1,.1,-.2,.1,-.2,.1c-.1,0,-.2,.1,-.2,.1c0,.1,-.1,.1,-.1,.2c0,.1,.1,.2,.1,.2c.1,.1,.2,.2,.3,.2c.1,0,.2,.1,.3,.1c.1,0,.2,0,.4,.1c.1,0,.2,0,.3,.1c.2,0,.3,.1,.4,.1c.1,.1,.1,.2,.2,.3c0,.1,.1,.2,.1,.4c0,.1,-.1,.3,-.1,.4c-.1,.2,-.2,.3,-.3,.3c-.2,.1,-.3,.2,-.5,.2c-.1,0,-.3,0,-.4,0c-.2,0,-.4,0,-.5,0c-.2,-.1,-.3,-.1,-.5,-.2c-.1,-.1,-.2,-.2,-.2,-.3c-.1,-.2,-.2,-.3,-.2,-.5h.5c0,.1,.1,.2,.1,.3Z" class="g4"/>
<path d="M175.9,872.6c0,.2,.1,.3,.2,.4c.1,.1,.2,.2,.3,.2c.1,.1,.2,.1,.4,.1c.1,0,.2,0,.3,-.1c.1,0,.2,-.1,.3,-.2c.1,-.1,.2,-.2,.2,-.4c.1,-.1,.1,-.3,.1,-.5c0,-.2,0,-.3,-.1,-.5c0,-.1,-.1,-.3,-.2,-.4c-.1,-.1,-.2,-.1,-.3,-.2c-.1,0,-.2,-.1,-.3,-.1c-.2,0,-.3,.1,-.4,.1c-.1,.1,-.2,.1,-.3,.2c-.1,.1,-.2,.3,-.2,.4c-.1,.2,-.1,.3,-.1,.5c0,.2,0,.4,.1,.5m-.6,-1.1c.1,-.2,.2,-.4,.3,-.5c.2,-.2,.3,-.3,.5,-.4c.2,-.1,.4,-.1,.7,-.1c.2,0,.4,0,.6,.1c.2,.1,.4,.2,.5,.4c.1,.1,.2,.3,.3,.5c0,.2,.1,.4,.1,.6c0,.2,-.1,.5,-.1,.7c-.1,.2,-.2,.3,-.3,.5c-.1,.1,-.3,.2,-.5,.3c-.2,.1,-.4,.1,-.6,.1c-.3,0,-.5,0,-.7,-.1c-.2,-.1,-.3,-.2,-.5,-.3c-.1,-.2,-.2,-.3,-.3,-.5c0,-.2,-.1,-.5,-.1,-.7c0,-.2,.1,-.4,.1,-.6Z" class="g4"/>
<path d="M181,873.7v-.5c-.1,.2,-.2,.3,-.4,.4c-.2,.1,-.4,.1,-.6,.1c-.2,0,-.4,0,-.5,0c-.1,-.1,-.3,-.2,-.3,-.3c-.1,-.1,-.2,-.2,-.2,-.3c-.1,-.2,-.1,-.3,-.1,-.5v-2h.5v2.1c0,.2,.1,.3,.2,.4c.1,.1,.3,.2,.5,.2c.1,0,.3,0,.4,-.1c.1,0,.2,-.1,.3,-.2c0,-.1,.1,-.2,.1,-.3c.1,-.1,.1,-.2,.1,-.4v-1.7h.5v3.1Z" class="g4"/>
<path d="M182.8,870.6v.6c.1,-.2,.3,-.4,.5,-.6c.2,-.1,.4,-.1,.7,-.1v.5c-.2,0,-.4,0,-.6,.1c-.1,.1,-.2,.1,-.3,.3c-.1,.1,-.2,.2,-.2,.3c0,.2,-.1,.4,-.1,.6v1.4h-.5v-3.1Z" class="g4"/>
<path d="M186.2,871.1c-.2,-.1,-.3,-.2,-.6,-.2c-.1,0,-.3,.1,-.4,.1c-.1,.1,-.2,.2,-.3,.3c-.1,.1,-.1,.2,-.2,.4c0,.1,0,.3,0,.4c0,.2,0,.3,0,.5c.1,.1,.1,.2,.2,.3c.1,.1,.2,.2,.3,.3c.1,.1,.2,.1,.4,.1c.2,0,.4,-.1,.6,-.2c.1,-.1,.2,-.3,.2,-.6h.6c-.1,.4,-.2,.7,-.5,.9c-.2,.2,-.5,.3,-.9,.3c-.2,0,-.5,0,-.6,-.1c-.2,-.1,-.4,-.2,-.5,-.3c-.1,-.1,-.2,-.3,-.3,-.5c0,-.2,-.1,-.4,-.1,-.7c0,-.2,.1,-.4,.1,-.6c.1,-.2,.2,-.4,.3,-.5c.1,-.2,.3,-.3,.5,-.4c.1,-.1,.4,-.1,.6,-.1c.2,0,.3,0,.5,0c.2,.1,.3,.1,.4,.2c.1,.1,.2,.2,.3,.4c.1,.1,.1,.3,.2,.5h-.6c0,-.2,-.1,-.4,-.2,-.5Z" class="g4"/>
<path d="M189.7,871.5c-.1,-.1,-.1,-.2,-.2,-.3c-.1,-.1,-.2,-.2,-.3,-.2c-.1,0,-.2,-.1,-.3,-.1c-.2,0,-.3,.1,-.4,.1c-.1,0,-.2,.1,-.3,.2c0,.1,-.1,.2,-.1,.3c-.1,.1,-.1,.2,-.1,.3h1.8c0,-.1,-.1,-.2,-.1,-.3m.1,2c-.2,.1,-.5,.2,-.9,.2c-.2,0,-.4,0,-.6,-.1c-.2,-.1,-.4,-.2,-.5,-.3c-.1,-.2,-.2,-.3,-.3,-.5c0,-.2,-.1,-.5,-.1,-.7c0,-.2,.1,-.5,.1,-.7c.1,-.1,.2,-.3,.3,-.5c.2,-.1,.3,-.2,.5,-.3c.2,-.1,.4,-.1,.6,-.1c.3,0,.5,0,.7,.2c.2,.1,.3,.2,.4,.4c.1,.2,.2,.4,.3,.6c0,.2,0,.4,0,.6H188c0,.1,0,.2,0,.4c.1,.1,.1,.2,.2,.3c.1,.1,.2,.1,.3,.2c.1,.1,.3,.1,.4,.1c.3,0,.4,-.1,.6,-.2c.1,-.1,.2,-.2,.3,-.4h.5c-.1,.3,-.3,.6,-.5,.8Z" class="g4"/>
<path d="M197.8,846.6c.1,0,.2,0,.2,0c.1,0,.2,0,.3,0c0,-.1,.1,-.1,.1,-.2c.1,0,.1,-.1,.1,-.2c0,-.1,0,-.2,-.1,-.2c0,-.1,-.1,-.1,-.1,-.1q-.1,-.1,-.2,-.1q-.1,0,-.2,0h-.6v.8Zm.2,-1.1c.3,0,.5,0,.7,.1c.1,.2,.2,.4,.2,.6c0,.3,-.1,.4,-.2,.5c-.2,.1,-.3,.2,-.5,.2l.7,1.2h-.4l-.7,-1.1h-.5v1.1h-.4v-2.6Zm-1.9,2c.1,.3,.2,.5,.4,.7c.2,.1,.4,.3,.6,.4c.2,.1,.5,.1,.7,.1c.3,0,.5,0,.7,-.1c.3,-.1,.5,-.3,.6,-.4c.2,-.2,.3,-.4,.4,-.7c.1,-.2,.2,-.5,.2,-.7c0,-.3,-.1,-.6,-.2,-.8c-.1,-.2,-.2,-.4,-.4,-.6c-.1,-.2,-.3,-.3,-.6,-.4c-.2,-.1,-.4,-.1,-.7,-.1c-.2,0,-.5,0,-.7,.1c-.2,.1,-.4,.2,-.6,.4c-.2,.2,-.3,.4,-.4,.6c-.1,.2,-.1,.5,-.1,.8c0,.2,0,.5,.1,.7m-.4,-1.6c.1,-.3,.3,-.5,.5,-.7c.2,-.2,.5,-.4,.7,-.5c.3,-.1,.6,-.2,.9,-.2c.3,0,.6,.1,.9,.2c.3,.1,.5,.3,.7,.5c.2,.2,.4,.4,.5,.7c.1,.3,.2,.6,.2,.9c0,.3,-.1,.6,-.2,.9c-.1,.2,-.3,.5,-.5,.7c-.2,.2,-.4,.3,-.7,.5c-.3,.1,-.6,.1,-.9,.1c-.3,0,-.6,0,-.9,-.1c-.2,-.2,-.5,-.3,-.7,-.5c-.2,-.2,-.4,-.5,-.5,-.7c-.1,-.3,-.2,-.6,-.2,-.9c0,-.3,.1,-.6,.2,-.9Z" class="g2"/>
<g clip-path="url(#c1)">
<path d="M98.9,931.5c4.4,2.5,5.4,8,2.4,13.6c-2.7,4.9,-8.5,7,-12.8,4.5c-4.3,-2.5,-5.1,-9.5,-3.2,-13.5c2.6,-5.8,8.9,-7.3,13.6,-4.6Z" class="g5"/>
</g>
<path d="M93.4,946.1c-.2,-.1,-.3,-.2,-.5,-.2c0,0,-.1,0,-.1,0c-.3,0,-.6,.1,-.7,.4c-.2,.2,-.3,.5,-.2,.7c0,.2,.1,.3,.2,.4c.1,.1,.2,.2,.4,.3c.1,0,.2,0,.3,0c.3,0,.5,-.1,.7,-.2c.2,-.2,.3,-.4,.3,-.6c0,-.3,-.2,-.6,-.4,-.8m5.4,-10.3c.9,.9,1.1,2.3,1,3.4c-.2,1.3,-.9,2.4,-2.2,3.2c-1.1,.7,-2.4,.9,-3.7,.9c0,.2,-.1,.9,-.1,1.1c0,.1,-.1,.2,-.2,.3c-.1,.2,-.4,.3,-.6,.4c-.2,0,-.4,.1,-.5,.1c0,0,-.1,0,-.1,0c-.1,-.1,-.3,-.1,-.4,-.2c-.1,-.1,-.2,-.3,-.2,-.4v-.2c0,-.1,-.2,-6.3,-.1,-6.2c0,-.8,1.2,-.9,1.9,-.8c.6,.2,.4,1,.4,1.9c0,0,0,1.3,-.1,2.7c.9,0,1.5,-.3,2.1,-.6c1.3,-.6,2,-1.6,2,-3c0,-1.4,-1.4,-2.9,-3.9,-2.9c-2.5,0,-3.6,.6,-4.8,1.6c-.3,.2,-.5,.5,-.7,.6c-.2,.2,-.8,.2,-.9,-.2c-.2,-.4,.2,-.9,.3,-1.1c.3,-.4,1.1,-1.1,1.9,-1.5c.9,-.5,2,-1,3.6,-1c1.4,-.1,3.7,0,5.3,1.9Z" class="g0"/>
<g clip-path="url(#c1)">
<path d="M137.6,943c0,1.3,-.9,2.2,-2.3,2.2c-.6,0,-1.2,-.2,-1.7,-.5l-.4,.4q-.1,.1,-.2,.1c-.1,0,-.1,-.1,-.1,-.2v-2q0,-.2,.1,-.2c.1,0,.2,0,.2,.1c.7,1.4,1.3,1.9,2.3,1.9c.5,0,1.2,-.3,1.2,-1.1c0,-.7,-.4,-1,-1.7,-1.4c-1.3,-.4,-2.1,-.8,-2.1,-1.9c0,-1.2,.9,-2.1,2.3,-2.1c.6,0,1.2,.2,1.5,.4l.3,-.3c0,-.1,.1,-.1,.1,-.1c.1,0,.2,.1,.2,.2v1.8c0,.1,-.1,.2,-.2,.2c-.1,0,-.1,-.1,-.2,-.2c-.6,-1.2,-1.1,-1.6,-1.9,-1.6c-.7,0,-1.2,.4,-1.2,1c0,.6,.5,.9,1.7,1.3c1.5,.4,2.1,.9,2.1,2m-22,-2.1c.1,-1.4,.7,-2.2,1.6,-2.2c1.1,0,1.3,1,1.3,1.8c0,.1,0,.2,0,.4Zm1.7,-2.6c-1.8,0,-3.2,1.6,-3.2,3.5c0,2,1.3,3.4,3.2,3.4c1.5,0,2.3,-.9,2.6,-1.6c.1,-.1,.1,-.2,0,-.3c-.1,0,-.2,0,-.2,.1c-.5,.6,-1.1,1.1,-1.9,1.1c-1.9,0,-2.3,-2,-2.2,-3.2h4.1c.3,0,.3,-.1,.3,-.3c0,-.9,-.5,-2.7,-2.7,-2.7m-8.1,-2.2h1c2,0,2.3,1.2,2.3,2.4c0,1.3,-.3,2.4,-2.3,2.4h-1Zm-2.7,-.1c1,.1,1.2,.5,1.2,1v6.8c0,.5,-.2,.8,-1.2,.9c-.1,.1,-.2,.1,-.2,.2c0,.1,.1,.2,.2,.2h4c.1,0,.1,-.1,.1,-.2q0,-.1,-.1,-.2c-1.1,0,-1.3,-.4,-1.3,-.9v-2.5h1.2c1.7,0,3.8,-.5,3.8,-2.8c0,-2.3,-2.2,-2.8,-4,-2.8h-3.7c-.1,0,-.2,.1,-.2,.2c0,0,.1,.1,.2,.1m35.1,8.8c-1.5,0,-1.8,-1.4,-1.8,-3.1c0,-1.7,.3,-3,1.8,-3c1.4,0,1.8,1.3,1.8,3c0,1.7,-.4,3.1,-1.8,3.1m0,-6.5c-1.9,0,-3.3,1.5,-3.3,3.4c0,1.9,1.4,3.5,3.3,3.5c1.8,0,3.2,-1.6,3.2,-3.5c0,-1.9,-1.4,-3.4,-3.2,-3.4m10.6,6.6c0,.1,0,.2,-.1,.2h-2.5c0,0,-.1,-.1,-.1,-.2c0,-.1,.1,-.1,.1,-.1c.5,-.1,.5,-.2,.5,-.5v-3.6c0,-1.2,-.2,-1.7,-1.1,-1.7c-.7,0,-1.4,.6,-1.8,1.5v3.8c0,.3,.1,.4,.6,.5q.1,0,.1,.1c0,.1,0,.2,-.1,.2h-2.5c-.1,0,-.2,-.1,-.2,-.2c0,-.1,.1,-.1,.2,-.1c.5,-.1,.6,-.2,.6,-.5v-4.9c0,-.3,-.1,-.6,-.6,-.7c-.1,0,-.2,0,-.2,-.1c0,-.1,.1,-.2,.2,-.2H147c.2,0,.2,.1,.2,.2v1c.5,-.7,1.3,-1.3,2.4,-1.3c1.2,0,1.9,.7,1.9,2v4c0,.3,0,.4,.6,.5q.1,0,.1,.1m-19.8,-5.6c0,.5,-.3,.8,-.8,.8c-.5,0,-.8,-.3,-.8,-.8c0,-.1,0,-.2,0,-.3c-.5,.1,-1,.7,-1.3,1.3v4c0,.3,.2,.4,.8,.5c.1,0,.2,0,.2,.1c0,.1,-.1,.2,-.2,.2h-2.7c-.1,0,-.2,-.1,-.2,-.2c0,-.1,.1,-.1,.2,-.1c.5,-.1,.6,-.2,.6,-.5v-4.9c0,-.3,-.1,-.6,-.6,-.7c-.1,0,-.2,0,-.2,-.1c0,-.1,.1,-.2,.2,-.2h1.7c.2,0,.2,.1,.2,.2v.9c.6,-.8,1.2,-1.2,1.8,-1.2c.8,0,1.1,.5,1.1,1m-7.8,4.3c-.2,.3,-.7,.9,-1.4,.9c-.8,0,-1,-.6,-1,-1.1c0,-.9,.7,-1.4,2.4,-1.8Zm2,1c-.1,0,-.1,.1,-.2,.1c-.4,0,-.5,-.3,-.5,-.8v-3.6c0,-1.3,-.8,-2,-2.4,-2c-1.4,0,-2.5,.7,-2.5,1.5c0,.5,.3,.8,.8,.8c.6,0,.8,-.5,.8,-.7c0,-.3,-.1,-.5,-.3,-.8c.2,-.3,.6,-.4,1.1,-.4c.9,0,1.2,.5,1.2,1.6v.9c-1.5,.4,-3.8,.7,-3.8,2.4c0,.7,.5,1.6,1.8,1.6c.7,0,1.4,-.4,2.1,-1.1c0,.8,.3,1.1,1,1.1c.4,0,.8,-.1,1,-.3c.1,0,.1,-.1,.1,-.2c0,-.1,-.1,-.1,-.2,-.1Z" class="g6"/>
</g>
</svg>